<svg width="60" height="60" viewBox="0 0 60 60" fill="none" xmlns="http://www.w3.org/2000/svg">
<path d="M0.664486 57.7452L20.1641 59.9953C20.1924 59.9984 20.2217 60 20.2499 60C20.2787 60 20.3075 59.9984 20.3362 59.9953L39.793 57.7499H59.2498C59.6641 57.7499 60 57.414 60 56.9997V0.750937C60 0.336598 59.6641 0.000739497 59.2498 0.000739497H39.7502C39.7214 0.000739497 39.6926 0.002309 39.6638 0.00544782L20.2499 2.24562L0.835993 0.00544782C0.620974 -0.0207092 0.410671 0.0483457 0.250589 0.19064C0.0910297 0.333459 0 0.536959 0 0.750932V56.9997C0 57.3805 0.285637 57.7007 0.663871 57.7447L0.664486 57.7452ZM20.9998 3.67006L39.3745 1.54975V29.8616C39.0951 30.0207 38.8105 30.1787 38.5165 30.334C38.1503 30.5276 38.0106 30.9817 38.2037 31.3479C38.3387 31.6026 38.5987 31.7476 38.8676 31.7476C38.9853 31.7476 39.1056 31.7198 39.2175 31.6607C39.2714 31.6325 39.3211 31.6027 39.3745 31.5744V56.289L20.9998 58.4093V38.5482C21.355 38.4179 21.7045 38.285 22.065 38.1569C22.4552 38.0182 22.6593 37.5892 22.5206 37.199C22.3815 36.8082 21.9514 36.6052 21.5627 36.7433C21.3723 36.8113 21.1887 36.882 20.9998 36.9505L20.9998 3.67006ZM58.4991 56.2506H40.8745V30.7163C40.9691 30.6583 41.0706 30.6012 41.1632 30.5432C41.5143 30.3229 41.6205 29.8605 41.4002 29.5094C41.2794 29.3159 41.0837 29.206 40.8744 29.1746V1.50156H58.4991L58.4991 56.2506ZM1.50018 1.59287L19.4999 3.66979V37.5007C19.4972 37.5018 19.4941 37.5028 19.4915 37.5039C19.1044 37.6514 18.9097 38.0846 19.0573 38.4717C19.1378 38.682 19.3047 38.8311 19.5004 38.9038V58.4088L1.50071 56.3318L1.50018 1.59287Z" fill="white"/>
<path d="M43.1296 28.9538C43.2991 28.9538 43.4696 28.8968 43.6103 28.7791C44.1968 28.2889 44.7539 27.7662 45.2677 27.2248C45.5528 26.924 45.5402 26.4495 45.2399 26.1644C44.9386 25.8793 44.4646 25.8919 44.1795 26.1921C43.7055 26.6918 43.1902 27.1751 42.6482 27.6282C42.3307 27.8935 42.2883 28.3669 42.554 28.6845C42.7026 28.8623 42.9151 28.9538 43.1296 28.9538Z" fill="white"/>
<path d="M16.753 38.6163C16.0352 38.9302 15.3556 39.2483 14.7331 39.5616C14.3627 39.7479 14.2141 40.1988 14.4004 40.5687C14.5322 40.8308 14.7964 40.9814 15.0711 40.9814C15.1841 40.9814 15.2997 40.9558 15.4074 40.9014C16.0059 40.6001 16.6604 40.2935 17.3535 39.9911C17.7333 39.8253 17.9065 39.3827 17.7406 39.0034C17.5738 38.6231 17.1317 38.4515 16.753 38.6163Z" fill="white"/>
<path d="M8.14833 44.5949C7.86792 44.9663 7.61367 45.3514 7.39291 45.7395C7.18837 46.0995 7.31444 46.5578 7.67437 46.7623C7.79155 46.8287 7.91868 46.8601 8.04423 46.8601C8.30528 46.8601 8.55902 46.7241 8.69712 46.4808C8.88545 46.1492 9.10362 45.8185 9.34478 45.4994C9.59432 45.1688 9.52893 44.6985 9.19882 44.4489C8.86714 44.1994 8.39736 44.2648 8.14833 44.5949Z" fill="white"/>
<path d="M12.1272 41.0417C11.4586 41.4744 10.8397 41.9258 10.2893 42.3836C9.97128 42.6489 9.92733 43.1213 10.1926 43.4399C10.3406 43.6183 10.5546 43.7103 10.7696 43.7103C10.9386 43.7103 11.1086 43.6533 11.2488 43.5372C11.7536 43.1171 12.3228 42.7017 12.9418 42.3015C13.2897 42.0765 13.389 41.6125 13.1646 41.2646C12.9392 40.9162 12.4751 40.8168 12.1272 41.0417Z" fill="white"/>
<path d="M34.2184 33.8595C34.3105 33.8595 34.4046 33.8423 34.4952 33.8062C35.1904 33.5294 35.8737 33.2448 36.5406 32.9498C36.9199 32.7824 37.091 32.3398 36.9236 31.961C36.7556 31.5817 36.3125 31.4091 35.9348 31.5781C35.2835 31.8653 34.618 32.1425 33.9405 32.4125C33.5555 32.5658 33.3677 33.0021 33.521 33.3866C33.6381 33.6806 33.9197 33.8595 34.2184 33.8595Z" fill="white"/>
<path d="M29.4185 35.6152C29.4996 35.6152 29.5817 35.6021 29.6623 35.5744C30.3586 35.3348 31.0523 35.0926 31.7392 34.8451C32.129 34.7049 32.3309 34.2749 32.1907 33.8852C32.0505 33.4954 31.6215 33.2935 31.2307 33.4337C30.5506 33.6785 29.8643 33.9186 29.1747 34.1556C28.7828 34.2906 28.5746 34.717 28.7091 35.1088C28.8163 35.4195 29.1078 35.6152 29.4185 35.6152Z" fill="white"/>
<path d="M24.5741 37.2466C24.6537 37.2466 24.7348 37.234 24.8138 37.2068L26.8901 36.5105C27.283 36.3792 27.4949 35.9539 27.3631 35.5615C27.2312 35.1686 26.8064 34.9552 26.4141 35.0886L24.3341 35.7865C23.9417 35.9188 23.7309 36.3447 23.8638 36.7365C23.9689 37.0493 24.2608 37.2466 24.5741 37.2466Z" fill="white"/>
<path d="M49.798 15.6433C49.8237 15.6459 49.8488 15.6469 49.8739 15.6469C50.2542 15.6469 50.5807 15.3587 50.6194 14.9721C50.6932 14.2391 50.7361 13.4821 50.7481 12.7236C50.7544 12.3092 50.4237 11.9687 50.0094 11.9624H49.9979C49.5893 11.9624 49.2545 12.2904 49.2482 12.7011C49.2372 13.4173 49.1964 14.1314 49.1268 14.8219C49.0855 15.2342 49.3858 15.6019 49.798 15.6433Z" fill="white"/>
<path d="M46.5515 25.1889C46.7911 25.1889 47.027 25.0743 47.1719 24.8614C47.5962 24.2394 47.9886 23.5813 48.338 22.9064C48.529 22.5386 48.3851 22.0861 48.0173 21.8956C47.649 21.7052 47.1965 21.8491 47.0066 22.2163C46.6843 22.8378 46.3228 23.4436 45.9326 24.0164C45.6998 24.3591 45.7877 24.8252 46.1303 25.0585C46.259 25.1469 46.406 25.1889 46.5515 25.1889Z" fill="white"/>
<path d="M48.5712 20.5902C48.6512 20.6174 48.7328 20.6305 48.8123 20.6305C49.1246 20.6305 49.416 20.4332 49.5222 20.1214C49.7608 19.4194 49.968 18.6864 50.138 17.9421C50.2301 17.5382 49.9774 17.1359 49.5735 17.0438C49.1681 16.9518 48.7674 17.2044 48.6753 17.6083C48.5173 18.3025 48.3242 18.9857 48.1019 19.6386C47.969 20.031 48.1788 20.4568 48.5712 20.5902Z" fill="white"/>
<path d="M7.35677 47.5241C6.95604 47.4174 6.54537 47.6544 6.43812 48.0546C6.27699 48.6557 6.17131 49.2866 6.1237 49.9301C6.09284 50.3434 6.40254 50.7033 6.81583 50.7336C6.83467 50.7352 6.8535 50.7357 6.87233 50.7357C7.26103 50.7357 7.5901 50.4354 7.61939 50.0415C7.66019 49.4911 7.7507 48.9534 7.88724 48.4427C7.99448 48.0425 7.75698 47.6314 7.35677 47.5241Z" fill="white"/>
<path d="M10.9192 27.2208V20.6302L14.8952 24.626C15.0422 24.773 15.2342 24.8467 15.4267 24.8467C15.6177 24.8467 15.8091 24.774 15.9556 24.6286C16.2491 24.3361 16.2501 23.8616 15.9582 23.5676L10.9187 18.5036V15.597L14.8947 19.5929C15.0417 19.7399 15.2337 19.8136 15.4262 19.8136C15.6172 19.8136 15.8087 19.7409 15.9552 19.5955C16.2486 19.303 16.2497 18.8285 15.9578 18.5345L10.9183 13.4705V10.5645L14.8943 14.5597C15.1872 14.8532 15.6612 14.8543 15.9552 14.5624C16.2492 14.2699 16.2508 13.7949 15.9589 13.5014L10.7012 8.21871C10.4192 7.93621 9.91962 7.93621 9.63764 8.21871L4.3805 13.5014C4.08806 13.7949 4.08963 14.2699 4.38312 14.5624C4.52961 14.7078 4.72055 14.7805 4.91202 14.7805C5.10454 14.7805 5.29706 14.7067 5.44355 14.5597L9.41901 10.5645V13.4705L4.38004 18.5345C4.0876 18.828 4.08916 19.303 4.38265 19.5955C4.67718 19.8879 5.15221 19.8869 5.4436 19.5929L9.41907 15.5976V18.5042L4.3801 23.5682C4.08766 23.8616 4.08922 24.3367 4.38271 24.6291C4.67724 24.9216 5.15227 24.9205 5.44366 24.6265L9.41912 20.6312V27.2218C9.41912 27.6362 9.75498 27.972 10.1693 27.972C10.5837 27.9705 10.9195 27.6346 10.9195 27.2208L10.9192 27.2208Z" fill="white"/>
<path d="M49.8021 33.2998C49.6022 33.2998 49.4113 33.3793 49.2705 33.5206L44.0129 38.8038C43.7204 39.0973 43.722 39.5723 44.0155 39.8648C44.162 40.0102 44.3534 40.0829 44.5444 40.0829C44.7369 40.0829 44.9294 40.0091 45.0759 39.8621L49.0519 35.8663V38.7729L44.0124 43.8365C43.7205 44.13 43.7215 44.605 44.015 44.8975C44.3085 45.1894 44.783 45.1883 45.076 44.8949L49.052 40.8996V43.8062L44.0125 48.8698C43.7206 49.1633 43.7216 49.6383 44.0151 49.9307C44.3086 50.2221 44.7831 50.2221 45.076 49.9281L49.052 45.9328V52.5234C49.052 52.9378 49.3879 53.2736 49.8022 53.2736C50.2166 53.2736 50.5524 52.9378 50.5524 52.5234V45.9328L54.5279 49.9281C54.6749 50.0751 54.8669 50.1489 55.0594 50.1489C55.2504 50.1489 55.4418 50.0761 55.5883 49.9307C55.8818 49.6383 55.8829 49.1638 55.5909 48.8698L50.552 43.8062V40.8996L54.5274 44.8948C54.6744 45.0419 54.8664 45.1156 55.059 45.1156C55.2499 45.1156 55.4414 45.0429 55.5879 44.8975C55.8813 44.605 55.8824 44.1305 55.5905 43.8365L50.5515 38.7729V35.8663L54.527 39.8616C54.8194 40.1546 55.2934 40.1556 55.5879 39.8642C55.8814 39.5718 55.8824 39.0973 55.5905 38.8033L50.3334 33.52C50.1927 33.3788 50.0017 33.2998 49.8024 33.2998L49.8021 33.2998Z" fill="white"/>
</svg>
