<svg xmlns="http://www.w3.org/2000/svg" xmlns:xlink="http://www.w3.org/1999/xlink" version="1.1" width="45" height="50" viewBox="0 0 45 50" xml:space="preserve">
<g transform="matrix(0.0745536222 0 0 0.0745536222 22.5 32.3167286041)" id="uE6daS8CIA3DC83PKUUfP"  >
<g>
		<g transform="matrix(1.3333333333 0 0 1.3333333333 0.0034466667 -93.3450440056)" id="Y6m2emEr96ZqupmRt-svW"  >
<path stroke="none" fill="white" transform=" translate(-350.002585, -279.9912169958)" d="M 130.96 487.16 L 276.56 503.961 C 276.77094 503.984437 276.98969 503.996156 277.20062 503.996156 C 277.41546 503.996156 277.63031 503.98443699999996 277.84515 503.961 L 423.12514999999996 487.195 L 568.4051499999999 487.195 C 571.4989499999999 487.195 574.0067499999999 484.6872 574.0067499999999 481.5934 L 574.0067499999999 61.593399999999974 C 574.0067499999999 58.49959999999997 571.4989499999999 55.99179999999998 568.4051499999999 55.99179999999998 L 422.8051499999999 55.99179999999998 C 422.59030999999993 55.99179999999998 422.3754599999999 56.003518999999976 422.16061999999994 56.02695599999998 L 277.20061999999996 72.75395599999997 L 132.24061999999995 56.02695599999997 C 130.63511999999994 55.83164599999997 129.06481999999994 56.34726599999997 127.86951999999995 57.40975599999997 C 126.67811999999995 58.476155999999975 125.99841999999995 59.995655999999975 125.99841999999995 61.59335599999997 L 125.99841999999995 481.59335599999997 C 125.99841999999995 484.43715599999996 128.13121999999996 486.82775599999997 130.95541999999995 487.15585599999997 z M 282.8 83.39000000000004 L 420 67.55800000000005 L 420 278.9580000000001 C 417.9141 280.1455000000001 415.7891 281.3252000000001 413.5938 282.4853000000001 C 410.8594 283.9306000000001 409.81649999999996 287.3212000000001 411.2579 290.0556000000001 C 412.2657 291.9579000000001 414.2071 293.0400000000001 416.2149 293.0400000000001 C 417.09381 293.0400000000001 417.9922 292.8329700000001 418.8282 292.3915600000001 C 419.23053999999996 292.1806200000001 419.60164 291.9579700000001 420.0001 291.7470300000001 L 420.0001 476.2870300000001 L 282.8001 492.11903000000007 L 282.8001 343.81903000000005 C 285.4524 342.84637000000004 288.0618 341.85423000000003 290.7532 340.89713000000006 C 293.6673 339.8619300000001 295.1907 336.6588300000001 294.1555 333.74483000000004 C 293.1164 330.82683000000003 289.9055 329.31123 287.0032 330.34253 C 285.5813 330.85034 284.2102 331.37773 282.8001 331.88943 z M 562.8 476.00000000000006 L 431.19999999999993 476.00000000000006 L 431.19999999999993 285.34000000000003 C 431.9070299999999 284.90641000000005 432.66479999999996 284.48062000000004 433.35619999999994 284.047 C 435.97729999999996 282.40250000000003 436.77029999999996 278.94930000000005 435.12569999999994 276.32820000000004 C 434.22335999999996 274.88290000000006 432.76239999999996 274.06260000000003 431.19989999999996 273.82820000000004 L 431.19989999999996 67.19820000000004 L 562.7999 67.19820000000004 z M 137.19999999999993 67.88000000000005 L 271.5999999999999 83.38800000000005 L 271.5999999999999 335.99800000000005 C 271.58046899999994 336.00581200000005 271.55703199999994 336.01362500000005 271.5374999999999 336.02143700000005 C 268.6468999999999 337.12303700000007 267.1936999999999 340.35733700000003 268.2952999999999 343.24803700000007 C 268.8968599999999 344.81833700000004 270.14299999999986 345.9316370000001 271.6038999999999 346.4746370000001 L 271.6038999999999 492.1146370000001 L 137.2038999999999 476.6066370000001 z" stroke-linecap="round" />
</g>
		<g transform="matrix(1.3333333333 0 0 1.3333333333 138.6539859993 -118.6697120384)" id="0wYZWhkHl-lonv9vQPtch"  >
<path stroke="none" fill="white" transform=" translate(-453.9904894995, -260.9977159712)" d="M 448.04 272.18 C 449.3056 272.18 450.57910000000004 271.75422000000003 451.62980000000005 270.8753 C 456.00870000000003 267.2151 460.16890000000006 263.3128 464.00480000000005 259.27029999999996 C 466.13370000000003 257.02419999999995 466.04 253.48119999999997 463.79777000000007 251.35229999999996 C 461.54777000000007 249.22339999999997 458.00867000000005 249.31709999999995 455.87977000000006 251.55932999999996 C 452.34067000000005 255.28982999999997 448.49307000000005 258.89912999999996 444.44577000000004 262.28232999999994 C 442.07467 264.26282999999995 441.75827000000004 267.79792999999995 443.74265 270.16902999999996 C 444.85205 271.49712999999997 446.43795 272.18073 448.03955 272.18073 z" stroke-linecap="round" />
</g>
		<g transform="matrix(1.3333333333 0 0 1.3333333333 -138.7609709223 3.9018975669)" id="brNI4kbWFcXCTkPkUS8wu"  >
<path stroke="none" fill="white" transform=" translate(-245.9292718082, -352.9264231751)" d="M 251.09 344.33 C 245.7306 346.67379999999997 240.656 349.04879999999997 236.008 351.3886 C 233.2424 352.7792 232.133 356.14639999999997 233.52360000000002 358.9081 C 234.50798 360.8651 236.4806 361.9901 238.53140000000002 361.9901 C 239.37515000000002 361.9901 240.2384 361.79868999999997 241.0431 361.39243999999997 C 245.5119 359.14243999999997 250.39860000000002 356.85333999999995 255.57410000000002 354.59553999999997 C 258.41 353.35724 259.70300000000003 350.05253999999996 258.4647 347.22053999999997 C 257.2186 344.38073999999995 253.9178 343.09943999999996 251.0897 344.32993999999997 z" stroke-linecap="round" />
</g>
		<g transform="matrix(1.3333333333 0 0 1.3333333333 -215.0845745991 61.7549595367)" id="vyuoPfCVsD2te6zM5uBCz"  >
<path stroke="none" fill="white" transform=" translate(-188.6865690507, -396.3162196525)" d="M 186.84 388.97 C 184.74620000000002 391.7434 182.8478 394.6184 181.1994 397.5169 C 179.6721 400.2044 180.61346 403.6263 183.301 405.15360000000004 C 184.176 405.64969 185.12519999999998 405.88407000000007 186.06269999999998 405.88407000000007 C 188.01189999999997 405.88407000000007 189.90649999999997 404.86847000000006 190.93769999999998 403.05207000000007 C 192.3439 400.57547000000005 193.97289999999998 398.1067700000001 195.7736 395.72397000000007 C 197.6369 393.2551700000001 197.1486 389.74347000000006 194.6838 387.8801700000001 C 192.2072 386.0168700000001 188.6994 386.5051700000001 186.84 388.9699700000001 z" stroke-linecap="round" />
</g>
		<g transform="matrix(1.3333333333 0 0 1.3333333333 -182.6661484643 29.2718589038)" id="9-UzTInR4OJiE_hhTsLRf"  >
<path stroke="none" fill="white" transform=" translate(-213.0003886517, -371.9538941778)" d="M 216.55 362.44 C 211.55780000000001 365.6705 206.9367 369.0416 202.827 372.46 C 200.452 374.4405 200.1239 377.96779999999995 202.10434 380.3467 C 203.20984 381.6787 204.80744 382.3662 206.41294000000002 382.3662 C 207.67464 382.3662 208.94414000000003 381.94042 209.99104000000003 381.0732 C 213.76054000000002 377.93649999999997 218.01054000000002 374.8349 222.63204000000002 371.84659999999997 C 225.22974000000002 370.16689999999994 225.97184000000001 366.7021 224.29614 364.10439999999994 C 222.61254 361.5027999999999 219.14774 360.76059999999995 216.55004 362.4402999999999 z" stroke-linecap="round" />
</g>
		<g transform="matrix(1.3333333333 0 0 1.3333333333 52.0477705396 -66.5997882928)" id="CnDvQiwMUmJWWyE8lJSxA"  >
<path  stroke="none" fill="white" transform=" translate(-389.0358279047, -300.0501587804)" d="M 381.5 308.81 C 382.1875 308.81 382.8906 308.68109 383.5664 308.41156 C 388.7578 306.34516 393.8594 304.22016 398.8394 302.01706 C 401.6714 300.76706 402.9488 297.46236 401.6988 294.63426000000004 C 400.4449 291.80226000000005 397.1363 290.51316 394.31600000000003 291.77486000000005 C 389.45270000000005 293.91936000000004 384.48400000000004 295.9896600000001 379.425 298.00536000000005 C 376.55 299.14986000000005 375.1477 302.4076600000001 376.29220000000004 305.27876000000003 C 377.16720000000004 307.47406 379.26880000000006 308.80996000000005 381.49920000000003 308.80996000000005 z" stroke-linecap="round" />
</g>
		<g transform="matrix(1.3333333333 0 0 1.3333333333 4.4997129872 -48.5210135639)" id="n8_tKkk_ViGTrOaMlRL1X"  >
<path stroke="none" fill="white" transform=" translate(-353.3747847404, -313.6092398271)" d="M 345.66 321.92 C 346.26547000000005 321.92 346.8788 321.82234400000004 347.4803 321.61531 C 352.6795 319.82621 357.8593 318.01761000000005 362.9883 316.17001000000005 C 365.89849999999996 315.12311000000005 367.4063 311.9122100000001 366.3594 309.00201000000004 C 365.3125 306.09181 362.1094 304.58401000000003 359.1914 305.63091000000003 C 354.1133 307.45901000000003 348.9884 309.25201000000004 343.8394 311.02151000000003 C 340.91360000000003 312.02931 339.3589 315.21291 340.3628 318.13871000000006 C 341.16357999999997 320.45901000000003 343.3394 321.9199100000001 345.6597 321.9199100000001 z" stroke-linecap="round" />
</g>
		<g transform="matrix(1.3333333333 0 0 1.3333333333 -43.6697996078 -32.1399709366)" id="S1BpEKChdgdvnzgLTE-jY"  >
<path stroke="none" fill="white" transform=" translate(-317.2476502942, -325.8950217976)" d="M 309.49 334.1 C 310.08375 334.1 310.6892 334.00625 311.2791 333.80313 L 326.78310000000005 328.60393 C 329.71670000000006 327.62345999999997 331.29870000000005 324.44773 330.31430000000006 321.51803 C 329.3299200000001 318.58443 326.15810000000005 316.99073 323.2284000000001 317.98683 L 307.6974000000001 323.19773 C 304.76770000000005 324.18600999999995 303.1935000000001 327.36573 304.18570000000005 330.29152999999997 C 304.9708600000001 332.62742999999995 307.1505000000001 334.10013 309.4904000000001 334.10013 z" stroke-linecap="round" />
</g>
		<g transform="matrix(1.3333333333 0 0 1.3333333333 198.4761855921 -254.5846746667)" id="1q1VaBcQoP-vMcmV3CqnH"  >
<path stroke="none" fill="white" transform=" translate(-498.8571391941, -159.061494)" d="M 497.83 172.79 C 498.02141 172.809532 498.20891 172.817344 498.39641 172.817344 C 501.23621 172.817344 503.67371 170.665044 503.96281 167.778244 C 504.51358999999997 162.305544 504.83389999999997 156.653244 504.92375 150.98924399999999 C 504.970625 147.895444 502.50185 145.352544 499.40815 145.30564399999997 L 499.322213 145.30564399999997 C 496.271413 145.30564399999997 493.771413 147.75484399999996 493.724513 150.82124399999998 C 493.64248200000003 156.16894399999998 493.337793 161.50124399999999 492.818263 166.657244 C 492.509673 169.735344 494.751863 172.48144399999998 497.829963 172.790044 z" stroke-linecap="round" />
</g>
		<g transform="matrix(1.3333333333 0 0 1.3333333333 170.3719326006 -158.052209771)" id="gffqaqAzR7mFTN-3Zg0K0"  >
<path stroke="none" fill="white" transform=" translate(-477.7789494505, -231.4608426717)" d="M 473.59 244.07 C 475.3791 244.07 477.14079999999996 243.21453 478.22279999999995 241.6247 C 481.39079999999996 236.9802 484.3204999999999 232.06609999999998 486.92979999999994 227.02669999999998 C 488.3555999999999 224.28059999999996 487.28135999999995 220.90169999999998 484.53529999999995 219.47979999999998 C 481.78529999999995 218.0579 478.40639999999996 219.13214 476.98839999999996 221.87429999999998 C 474.58219999999994 226.51489999999998 471.88289999999995 231.03839999999997 468.96889999999996 235.31529999999998 C 467.2306 237.8739 467.88689999999997 241.35439999999997 470.4455 243.0965 C 471.40644 243.75665999999998 472.5041 244.06915999999998 473.59 244.06915999999998 z" stroke-linecap="round" />
</g>
		<g transform="matrix(1.3333333333 0 0 1.3333333333 190.2526848559 -204.573733789)" id="J9GfVKSfu4vqh6kVI-Fm0"  >
<path stroke="none" fill="white" transform=" translate(-492.6895136419, -196.5696996582)" d="M 488.67 209.73 C 489.26766000000003 209.93312 489.877 210.03078 490.4708 210.03078 C 492.8028 210.03078 494.9786 208.55808 495.7716 206.22997999999998 C 497.5528 200.98778 499.0997 195.51497999999998 500.36929999999995 189.95698 C 501.05679999999995 186.94137999999998 499.17009999999993 183.93748 496.1544999999999 183.24998 C 493.1271999999999 182.56248 490.13499999999993 184.44917999999998 489.44749999999993 187.46478 C 488.2677999999999 192.64838 486.8263999999999 197.74978 485.1662999999999 202.62478 C 484.1741099999999 205.55447999999998 485.74051999999995 208.73417999999998 488.6701999999999 209.73028 z" stroke-linecap="round" />
</g>
		<g transform="matrix(1.3333333333 0 0 1.3333333333 -228.8065116483 96.9797137734)" id="o-rBXjU_SeHSHdcXW8-tf"  >
<path stroke="none" fill="white" transform=" translate(-178.3951162637, -422.7347853301)" d="M 180.93 410.84 C 177.9378 410.04312 174.8714 411.81266 174.0706 414.80089999999996 C 172.8675 419.28919999999994 172.07840000000002 424.0001 171.7229 428.8049 C 171.49243 431.89079999999996 173.8049 434.57829999999996 176.89090000000002 434.8049 C 177.03152000000003 434.816619 177.17215000000002 434.820525 177.31278 434.820525 C 180.21508 434.820525 182.67218 432.57832499999995 182.89088 429.63692499999996 C 183.19557 425.52752499999997 183.87135 421.51192499999996 184.89088 417.698925 C 185.69166 414.710625 183.91822000000002 411.64032499999996 180.92998 410.839525 z" stroke-linecap="round" />
</g>
		<g transform="matrix(1.3333333333 0 0 1.3333333333 -197.4267852393 -212.918434)" id="GEl5_OPDqOGAEClJ6Qot0"  >
<path stroke="none" fill="white" transform=" translate(-201.9299110705, -190.3111745)" d="M 207.53 259.24 L 207.53 210.029 L 237.218 239.865 C 238.3157 240.9627 239.7492 241.51340000000002 241.18679999999998 241.51340000000002 C 242.6126 241.51340000000002 244.04229999999998 240.97043000000002 245.13599999999997 239.88450000000003 C 247.32739999999995 237.70090000000002 247.33519999999996 234.15790000000004 245.15553099999997 231.96260000000004 L 207.52653099999998 194.15060000000005 L 207.52653099999998 172.44760000000005 L 237.21453099999997 202.28360000000004 C 238.31223099999997 203.38130000000004 239.74573099999998 203.93200000000004 241.18333099999995 203.93200000000004 C 242.60913099999996 203.93200000000004 244.03883099999996 203.38903000000005 245.13253099999994 202.30310000000006 C 247.32393099999993 200.11950000000004 247.33173099999993 196.57650000000007 245.15206299999994 194.38120000000006 L 207.52306299999995 156.56920000000008 L 207.52306299999995 134.87020000000007 L 237.21106299999994 164.70220000000006 C 239.39856299999994 166.89360000000005 242.93766299999993 166.90140000000005 245.13296299999993 164.72173100000006 C 247.32826299999994 162.53813100000005 247.33996299999993 158.99123100000006 245.16030699999993 156.79983100000007 L 205.90230699999992 117.35483100000008 C 203.79680699999992 115.24543100000008 200.0664069999999 115.24543100000008 197.96090699999993 117.35483100000008 L 158.70690699999994 156.79983100000007 C 156.52330699999993 158.99123100000006 156.53500699999995 162.53813100000008 158.72643799999994 164.72173100000006 C 159.82023799999993 165.80763100000007 161.24593799999994 166.35063100000005 162.67563799999994 166.35063100000005 C 164.11313799999994 166.35063100000005 165.55063799999994 165.79985100000005 166.64443799999992 164.70223100000004 L 196.32843799999992 134.87023100000005 L 196.32843799999992 156.56923100000006 L 158.70343799999992 194.38123100000007 C 156.5198379999999 196.57263100000006 156.53153799999993 200.11953100000008 158.72296899999992 202.30313100000006 C 160.9221689999999 204.48673100000008 164.46906899999993 204.47893100000007 166.64486899999991 202.28359900000007 L 196.3288689999999 172.45159900000007 L 196.3288689999999 194.15459900000008 L 158.7038689999999 231.9665990000001 C 156.5202689999999 234.15799900000007 156.53196899999992 237.7048990000001 158.7233999999999 239.88849900000008 C 160.9225999999999 242.0720990000001 164.46949999999993 242.0642990000001 166.6452999999999 239.86896800000008 L 196.3292999999999 210.0369680000001 L 196.3292999999999 259.24796800000007 C 196.3292999999999 262.34176800000006 198.8370999999999 264.8495680000001 201.9308999999999 264.8495680000001 C 205.02469999999988 264.8378500000001 207.53249999999989 262.3300680000001 207.53249999999989 259.2401680000001 z" stroke-linecap="round" />
</g>
		<g transform="matrix(1.3333333333 0 0 1.3333333333 197.1426893335 38.9340053333)" id="elyPPA2pUKhLjPzLcZ7q6"  >
<path stroke="none" fill="white" transform=" translate(-497.8570170001, -379.200504)" d="M 497.86 304.63 C 496.3678 304.63 494.942 305.22375 493.8912 306.2784 L 454.63320000000004 345.7274 C 452.44960000000003 347.9188 452.46130000000005 351.46569999999997 454.652731 353.6493 C 455.746531 354.73519999999996 457.176131 355.27819999999997 458.60193100000004 355.27819999999997 C 460.03943100000004 355.27819999999997 461.47693100000004 354.72742 462.570731 353.6298 L 492.258731 323.7938 L 492.258731 345.49679999999995 L 454.629731 383.3058 C 452.45003099999997 385.49719999999996 452.457831 389.04409999999996 454.649263 391.22769999999997 C 456.840663 393.4074 460.383663 393.39959999999996 462.571163 391.208169 L 492.259163 361.376169 L 492.259163 383.079169 L 454.630163 420.88816899999995 C 452.45046299999996 423.07956899999994 452.458263 426.62646899999993 454.649695 428.81006899999994 C 456.841095 430.9858689999999 460.384095 430.9858689999999 462.571595 428.79053799999997 L 492.259595 398.958538 L 492.259595 448.169538 C 492.259595 451.263338 494.76739499999996 453.771138 497.861195 453.771138 C 500.95499500000005 453.771138 503.462795 451.26333800000003 503.462795 448.169538 L 503.462795 398.958538 L 533.146795 428.79053799999997 C 534.244495 429.88823799999994 535.677995 430.43893799999995 537.115595 430.43893799999995 C 538.541395 430.43893799999995 539.971095 429.8959679999999 541.064795 428.81003799999996 C 543.256195 426.62643799999995 543.263995 423.08343799999994 541.084327 420.88813799999997 L 503.45932700000003 383.07913799999994 L 503.45932700000003 361.37613799999997 L 533.143327 391.20813799999996 C 534.241027 392.30583799999994 535.674527 392.85653799999994 537.112127 392.85653799999994 C 538.537927 392.85653799999994 539.967627 392.3135679999999 541.061327 391.22763799999996 C 543.252727 389.04403799999994 543.260527 385.50103799999994 541.080858 383.30573799999996 L 503.45585800000003 345.49673799999994 L 503.45585800000003 323.79373799999996 L 533.139858 353.62573799999996 C 535.323458 355.81323799999996 538.862558 355.82103799999993 541.061758 353.64527 C 543.2531580000001 351.46166999999997 543.2609580000001 347.91866999999996 541.0812890000001 345.72337 L 501.82728900000006 306.27437 C 500.7764890000001 305.21966999999995 499.35068900000005 304.62987 497.86248900000004 304.62987 z" stroke-linecap="round" />
</g>
</g>
</g>
</svg>