<svg width="61" height="62" viewBox="0 0 61 62" fill="none" xmlns="http://www.w3.org/2000/svg">
<path d="M57.8751 13.0353C57.8751 13.0277 57.883 13.0277 57.883 13.0201C60.8652 6.8258 60.9921 1.00963 61 0.767609C61 0.518021 60.881 0.283558 60.659 0.139856C60.4448 -0.00384666 60.1672 -0.0340997 59.9213 0.0490964C55.9477 1.48612 52.4104 3.38451 49.4044 5.69887C49.3964 5.69887 49.3964 5.70644 49.3964 5.70644C44.9232 9.12504 42.512 12.7857 41.2351 15.4933C38.6812 14.0639 35.81 13.1487 32.8834 12.8462C28.2277 12.3621 23.7147 13.2773 19.7649 15.4933C18.488 12.7857 16.0768 9.12504 11.6036 5.70644L11.5956 5.69887C8.58965 3.38451 5.05227 1.48612 1.07866 0.0490964C0.832791 -0.041663 0.555195 -0.00384666 0.341048 0.139856C0.126902 0.283558 0 0.518021 0 0.767609C0.00793135 1.00963 0.134833 6.8258 3.11702 13.0201C3.11702 13.0277 3.12495 13.0277 3.12495 13.0353C5.2109 17.3766 8.15343 20.7725 11.8812 23.1474C10.1283 26.15 9.2083 29.5535 9.2083 33.025C9.2083 33.4637 9.22416 33.8948 9.25588 34.3259C9.37485 36.0882 8.53413 37.563 7.80445 38.4933C7.4634 38.932 7.16201 39.3782 6.90027 39.8169C5.81368 41.6623 5.23469 43.7573 5.23469 45.8902C5.23469 46.4423 5.27435 46.9869 5.34573 47.5239C5.56781 49.1424 6.13093 50.7156 6.99545 52.1299C8.91484 55.2687 12.1508 57.4393 15.8786 58.0973C18.5038 58.5587 21.0419 59.5117 22.9533 60.2907L24.0478 60.7445C26.0941 61.584 28.2832 62 30.4722 62C32.6692 62 34.8583 61.584 36.9046 60.7445L37.9912 60.2907C39.9105 59.5117 42.4486 58.5511 45.0739 58.0898C48.8016 57.4318 52.0455 55.2611 53.957 52.1223C55.1149 50.2315 55.7257 48.076 55.7257 45.8826C55.7257 43.7347 55.1705 41.7077 54.0759 39.8623C54.068 39.8396 54.0521 39.8169 54.0442 39.8017C53.7904 39.3631 53.489 38.932 53.14 38.4933C52.1328 37.1924 51.6252 35.6798 51.7045 34.2503C51.7838 33.0629 51.752 31.8225 51.6014 30.5821C51.2841 27.9501 50.4275 25.4542 49.0633 23.1549C52.8466 20.7574 55.7891 17.3615 57.8751 13.0353ZM59.3344 1.89454C59.1679 3.64922 58.6523 7.18128 57.074 10.9856C57.0423 10.9402 57.0105 10.9024 56.9788 10.857C56.844 10.668 56.7091 10.4864 56.5664 10.3125C56.495 10.2217 56.4315 10.131 56.3602 10.0478C56.1539 9.79818 55.9398 9.55615 55.7177 9.32925C55.6305 9.23849 55.5432 9.16286 55.456 9.0721C55.3053 8.9284 55.1625 8.7847 55.0118 8.64856C54.9167 8.5578 54.8215 8.48216 54.7263 8.39897C54.5835 8.27039 54.4328 8.14938 54.2901 8.03593C54.1949 7.9603 54.1077 7.89223 54.0204 7.81659C53.8618 7.69558 53.7032 7.57457 53.5445 7.46112C53.4732 7.40818 53.4018 7.35523 53.3383 7.30985C53.1162 7.15103 52.8942 7.00732 52.68 6.87118C52.6562 6.85606 52.6324 6.84093 52.6007 6.8258C52.4104 6.70479 52.22 6.59134 52.0455 6.49302C51.99 6.46277 51.9424 6.43251 51.8869 6.40226C51.7362 6.31906 51.6014 6.24343 51.4665 6.17536C51.4507 6.1678 51.4269 6.15267 51.4031 6.14511C53.7507 4.46606 56.4077 3.04416 59.3344 1.89454ZM9.61279 6.13754C9.59693 6.14511 9.57314 6.16023 9.54934 6.1678C9.41451 6.23587 9.27968 6.3115 9.12898 6.3947C9.07346 6.42495 9.02588 6.4552 8.97036 6.48546C8.79587 6.59134 8.60551 6.69723 8.41516 6.81824C8.39137 6.83337 8.36757 6.84849 8.33585 6.86362C8.1217 6.99976 7.89962 7.14346 7.67755 7.30229C7.60616 7.34767 7.53478 7.40061 7.47133 7.45356C7.3127 7.56701 7.15408 7.68046 6.99545 7.80903C6.90027 7.8771 6.81303 7.95273 6.72578 8.02837C6.58302 8.14182 6.43232 8.27039 6.28956 8.3914C6.19438 8.4746 6.09921 8.5578 6.00403 8.64099C5.85334 8.77713 5.71057 8.92083 5.55987 9.06454C5.47263 9.14773 5.38539 9.23093 5.29814 9.32169C5.07606 9.54859 4.86192 9.79061 4.6557 10.0402C4.58432 10.1234 4.52087 10.2217 4.44949 10.3049C4.30672 10.4789 4.17189 10.6604 4.03706 10.8495C4.00533 10.8949 3.97361 10.9327 3.94188 10.978C2.36354 7.17372 1.848 3.64166 1.68145 1.88698C4.60018 3.04416 7.25718 4.46606 9.61279 6.13754ZM6.91614 44.6044C6.91614 44.5817 6.92407 44.5591 6.92407 44.5364C6.97959 44.1279 7.0589 43.7195 7.16201 43.3187C7.16994 43.2809 7.17787 43.243 7.1858 43.2052C7.28891 42.8195 7.41581 42.4338 7.56651 42.0632C7.58237 42.0178 7.59823 41.9724 7.62203 41.927C7.77272 41.564 7.94721 41.2085 8.13756 40.8606C8.15343 40.8304 8.16929 40.8001 8.18515 40.7698C8.9307 40.4522 9.72383 40.2934 10.5566 40.2934C13.8323 40.2934 16.4972 42.8346 16.4972 45.9507C16.4972 49.0743 13.8323 51.6156 10.5566 51.6156C9.75556 51.6156 8.99415 51.4643 8.2724 51.1769C8.22481 51.1013 8.18515 51.0181 8.13756 50.9425C8.08204 50.8441 8.03446 50.7534 7.98687 50.6551C7.93135 50.5416 7.87583 50.4206 7.82031 50.3071C7.77272 50.2088 7.72513 50.1105 7.68548 50.0122C7.63789 49.8912 7.5903 49.7702 7.54271 49.6491C7.50306 49.5508 7.4634 49.4525 7.43167 49.3542C7.39202 49.2332 7.35236 49.1046 7.3127 48.976C7.28098 48.8777 7.24925 48.7794 7.22546 48.681C7.1858 48.5525 7.16201 48.4239 7.13028 48.2878C7.10649 48.1894 7.08269 48.0911 7.0589 47.9928C7.02718 47.8566 7.01131 47.7129 6.98752 47.5768C6.97166 47.4861 6.95579 47.3953 6.93993 47.297C6.91614 47.1381 6.9082 46.9869 6.89234 46.828C6.88441 46.7524 6.87648 46.6768 6.86855 46.5936C6.85269 46.3591 6.84475 46.1247 6.84475 45.8902C6.83682 45.4591 6.86855 45.028 6.91614 44.6044ZM54.1473 46.5936C54.1394 46.6692 54.1315 46.7448 54.1235 46.828C54.1077 46.9869 54.0997 47.1457 54.0759 47.297C54.0601 47.3877 54.0442 47.4785 54.0283 47.5692C54.0046 47.7054 53.9808 47.8491 53.957 47.9852C53.9332 48.0835 53.9094 48.1819 53.8856 48.2726C53.8539 48.4012 53.8221 48.5373 53.7904 48.6659C53.7666 48.7642 53.727 48.8626 53.7032 48.9609C53.6635 49.0895 53.6238 49.218 53.5842 49.339C53.5525 49.4374 53.5128 49.5357 53.4732 49.6265C53.4256 49.7475 53.378 49.876 53.3304 49.9971C53.2907 50.0954 53.2431 50.1861 53.2035 50.2845C53.148 50.4055 53.0924 50.5265 53.029 50.6399C52.9814 50.7307 52.9338 50.829 52.8783 50.9198C52.8307 51.003 52.7911 51.0786 52.7435 51.1618C52.0217 51.4568 51.2524 51.6005 50.4592 51.6005C47.1836 51.6005 44.5187 49.0592 44.5187 45.9356C44.5187 42.8195 47.1836 40.2782 50.4592 40.2782C51.2682 40.2782 52.0772 40.4371 52.8148 40.7396C52.8307 40.7698 52.8466 40.8001 52.8624 40.8304C53.0607 41.1858 53.2352 41.5413 53.3859 41.9043C53.4018 41.9497 53.4176 41.9951 53.4414 42.0405C53.5921 42.4111 53.719 42.7968 53.8221 43.1825C53.8301 43.2204 53.838 43.2582 53.8459 43.296C53.949 43.6968 54.0283 44.0977 54.0839 44.5061C54.0839 44.5288 54.0918 44.5515 54.0918 44.5742C54.1473 45.0053 54.1711 45.4364 54.1711 45.8751C54.1711 46.1247 54.1632 46.3591 54.1473 46.5936ZM47.6198 22.27C47.247 22.4894 47.136 22.9507 47.366 23.3062C48.8412 25.5903 49.7454 28.0938 50.0706 30.7485C50.2054 31.9057 50.2372 33.0477 50.1658 34.152C50.0785 35.7478 50.5623 37.3891 51.53 38.8488C51.1731 38.8034 50.8162 38.7656 50.4592 38.7656C46.3111 38.7656 42.9324 41.98 42.9324 45.9356C42.9324 49.8912 46.3111 53.1131 50.4592 53.1131C50.7527 53.1131 51.0462 53.098 51.3317 53.0602C49.6502 54.8905 47.3739 56.1536 44.828 56.5998C42.052 57.0914 39.4029 58.0822 37.4042 58.899L36.3097 59.3528C32.6216 60.8655 28.3942 60.8655 24.7061 59.3528L23.6037 58.899C21.6129 58.0898 18.9639 57.0914 16.1879 56.6074C13.6419 56.1611 11.3656 54.8981 9.68418 53.0678C9.96971 53.098 10.2632 53.1207 10.5566 53.1207C14.7047 53.1207 18.0835 49.8987 18.0835 45.9431C18.0835 41.9875 14.7047 38.7731 10.5566 38.7731C10.1918 38.7731 9.83487 38.8034 9.47796 38.8563C10.4773 37.3815 10.9532 35.7932 10.8501 34.22C10.8184 33.8116 10.8025 33.4259 10.8025 33.0175C10.8025 29.5762 11.7781 26.2105 13.634 23.2911C13.8561 22.9356 13.745 22.4743 13.3723 22.2549C9.70004 20.0843 6.79717 16.8774 4.72708 12.7176C4.76674 12.6495 4.79847 12.5815 4.83812 12.5134C4.90157 12.3999 4.96502 12.2789 5.03641 12.1731C5.10779 12.052 5.1871 11.9386 5.26642 11.8251C5.36952 11.6663 5.48056 11.515 5.59953 11.3638C5.68678 11.2428 5.78195 11.1293 5.87713 11.0159C5.94851 10.9251 6.02782 10.8419 6.10714 10.7587C6.19438 10.6604 6.28163 10.5621 6.36887 10.4713C6.44819 10.3881 6.51957 10.3125 6.59888 10.2293C6.69406 10.131 6.78923 10.0402 6.88441 9.94944C6.95579 9.88137 7.02717 9.8133 7.09856 9.74523C7.23339 9.62422 7.36029 9.51077 7.49512 9.39732C7.55858 9.34438 7.62203 9.29144 7.68548 9.23849C7.82824 9.12504 7.97101 9.01159 8.11377 8.90571C8.17722 8.86033 8.24067 8.81495 8.30412 8.76957C8.41516 8.68637 8.5262 8.61074 8.63724 8.53511C8.70069 8.48973 8.75621 8.45191 8.81966 8.41409C8.93863 8.3309 9.04967 8.25527 9.16864 8.1872C9.2083 8.15694 9.25588 8.12669 9.30347 8.104C9.62866 7.89979 9.93005 7.72584 10.1997 7.58213C10.2156 7.57457 10.2235 7.56701 10.2394 7.55944C10.3663 7.49137 10.4852 7.4233 10.5963 7.37036C10.6042 7.37036 10.6121 7.3628 10.6121 7.3628C10.7549 7.28716 10.8818 7.23422 10.9928 7.18128C15.2758 10.5621 17.4331 14.1773 18.4325 16.3404C17.0841 17.2253 15.831 18.2539 14.7127 19.4262C14.4192 19.7363 14.4351 20.2128 14.7602 20.4927C14.9109 20.6288 15.1013 20.6893 15.2996 20.6893C15.5137 20.6893 15.7279 20.6061 15.8865 20.4473C17.0683 19.2145 18.4007 18.1405 19.8522 17.248C23.683 14.8807 28.1325 13.8824 32.7406 14.3588C35.7307 14.6689 38.6574 15.6673 41.1954 17.2405C42.6627 18.148 43.9873 19.222 45.1373 20.4473C45.2959 20.6137 45.5101 20.6969 45.7322 20.6969C45.9225 20.6969 46.1129 20.6364 46.2636 20.5078C46.5887 20.228 46.6205 19.7515 46.327 19.4414C45.2325 18.2766 43.9793 17.2405 42.6151 16.3329C43.6145 14.1622 45.7718 10.5545 50.0547 7.17371C50.1658 7.22666 50.2847 7.28716 50.4354 7.35523C50.4434 7.35523 50.4513 7.3628 50.4513 7.3628C50.5623 7.41574 50.6813 7.48381 50.8082 7.55188C50.8241 7.55944 50.832 7.56701 50.8479 7.57457C51.1175 7.71827 51.4189 7.89979 51.7441 8.09644C51.7838 8.12669 51.8314 8.14938 51.8789 8.17963C51.99 8.25527 52.109 8.3309 52.2279 8.40653C52.2914 8.44435 52.3469 8.48973 52.4104 8.52754C52.5214 8.60318 52.6324 8.68637 52.7435 8.76201C52.8069 8.80739 52.8704 8.85277 52.9338 8.89815C53.0766 9.00403 53.2193 9.11748 53.3621 9.23093C53.4256 9.28387 53.489 9.33682 53.5525 9.38976C53.6873 9.50321 53.8142 9.61666 53.949 9.73767C54.0204 9.80574 54.0918 9.87381 54.1632 9.94188C54.2584 10.0326 54.3535 10.1234 54.4487 10.2217C54.528 10.2974 54.6073 10.3805 54.6787 10.4637C54.766 10.5545 54.8532 10.6528 54.9404 10.7512C55.0198 10.8343 55.0911 10.9251 55.1625 11.0083C55.2577 11.1218 55.345 11.2428 55.4401 11.3562C55.5512 11.5075 55.6622 11.6587 55.7732 11.8176C55.8526 11.931 55.9319 12.0445 56.0033 12.1655C56.0746 12.2789 56.1381 12.3924 56.2015 12.5058C56.2412 12.5739 56.2729 12.642 56.3126 12.71C54.2187 16.8623 51.3079 20.0767 47.6198 22.27Z" fill="white"/>
<path d="M40.9813 30.809C38.5543 30.809 36.5794 32.6847 36.5794 35.0066C36.5794 37.3285 38.5464 39.2042 40.9813 39.2042C43.4083 39.2042 45.3832 37.3285 45.3832 35.0066C45.3832 32.6847 43.4162 30.809 40.9813 30.809ZM42.861 35.0066C41.9092 35.0066 41.132 34.273 41.132 33.3578C41.132 32.4427 41.9013 31.709 42.861 31.709C43.8207 31.709 44.59 32.4427 44.59 33.3578C44.59 34.273 43.8128 35.0066 42.861 35.0066Z" fill="white"/>
<path d="M24.4285 35.0066C24.4285 32.6922 22.4616 30.809 20.0266 30.809C17.5996 30.809 15.6247 32.6847 15.6247 35.0066C15.6247 37.3285 17.5917 39.2042 20.0266 39.2042C22.4536 39.1967 24.4285 37.321 24.4285 35.0066ZM21.9064 35.0066C20.9546 35.0066 20.1773 34.273 20.1773 33.3578C20.1773 32.4427 20.9467 31.709 21.9064 31.709C22.8581 31.709 23.6354 32.4427 23.6354 33.3578C23.6354 34.273 22.8581 35.0066 21.9064 35.0066Z" fill="white"/>
<path d="M38.7684 47.5314C38.3719 47.3499 37.896 47.5163 37.7136 47.8869C37.7056 47.8945 36.9918 48.976 34.1603 48.976C31.4478 48.976 31.305 47.6373 31.2971 47.5012V45.2776C31.8682 45.1414 32.4075 44.8616 32.8358 44.4229L33.621 43.6288C34.3507 42.8876 33.8034 41.6774 32.7406 41.6774H28.2673C27.2045 41.6774 26.6493 42.8951 27.3869 43.6288L28.1722 44.4229C28.6084 44.8616 29.1477 45.1414 29.7108 45.2776V47.4936C29.7029 47.66 29.5443 48.976 26.8476 48.976C23.9844 48.976 23.2944 47.8869 23.2944 47.8869C23.104 47.5087 22.6281 47.3499 22.2395 47.5314C21.8429 47.7129 21.6764 48.1592 21.8667 48.5373C21.9619 48.7264 22.8264 50.2542 26.0862 50.466C26.1893 52.561 26.808 58.0066 30.5119 58.0066C34.2158 58.0066 34.8345 52.561 34.9376 50.466C38.1974 50.2542 39.0619 48.7189 39.1571 48.5373C39.3395 48.1592 39.165 47.7129 38.7684 47.5314ZM30.504 56.4939C28.4418 56.4939 27.7914 52.5686 27.6645 50.4584C29.1081 50.3223 29.9805 49.8231 30.504 49.271C31.0274 49.8231 31.8999 50.3223 33.3434 50.4584C33.2244 52.5686 32.5741 56.4939 30.504 56.4939Z" fill="white"/>
</svg>
