<svg width="17" height="21" viewBox="0 0 17 21" fill="none" xmlns="http://www.w3.org/2000/svg">
<path d="M16.472 7.53397C14.981 8.60497 14.235 9.89397 14.235 11.401C14.235 13.206 15.157 14.591 17 15.556C16.505 17.01 15.789 18.276 14.85 19.354C13.914 20.43 13.057 20.97 12.282 20.97C11.917 20.97 11.419 20.848 10.787 20.603L10.484 20.484C9.866 20.24 9.318 20.117 8.843 20.117C8.393 20.117 7.902 20.213 7.368 20.405L6.987 20.544L6.507 20.742C6.13 20.894 5.749 20.97 5.365 20.97C4.459 20.97 3.46 20.213 2.365 18.7C0.788 16.53 0 14.167 0 11.61C0 9.79197 0.492 8.32697 1.475 7.21697C2.459 6.10697 3.761 5.55097 5.383 5.55097C5.989 5.55097 6.556 5.66297 7.083 5.88797L7.445 6.03697L7.825 6.19597C8.165 6.34097 8.438 6.41397 8.647 6.41397C8.914 6.41397 9.21 6.35097 9.536 6.22497L10.034 6.02697L10.405 5.88797C10.998 5.66997 11.652 5.56097 12.369 5.56097C14.069 5.56097 15.437 6.21897 16.472 7.53397ZM12.447 0.969971C12.467 1.20097 12.477 1.37997 12.477 1.50497C12.477 2.64897 12.067 3.65197 11.245 4.51497C10.425 5.37797 9.471 5.80897 8.383 5.80897C8.35 5.55097 8.333 5.36597 8.333 5.25397C8.333 4.28197 8.715 3.36997 9.477 2.51697C10.239 1.66397 11.122 1.16497 12.125 1.01997C12.196 1.00597 12.304 0.989971 12.447 0.969971Z" fill="white"/>
</svg>
