<svg width="36" height="44" viewBox="0 0 36 44" fill="none" xmlns="http://www.w3.org/2000/svg">
<path d="M27.2435 2.544C24.5073 0.863829 21.3875 0 18.2195 0H14.9074C12.1234 0 9.43538 0.768077 7.0833 2.20817C2.71555 4.944 0.0276397 9.79192 0.0276397 14.9282V21.2643C0.0276397 22.9445 0.315588 24.6243 0.939725 26.1604C2.90781 31.2483 7.65955 34.6565 13.0837 34.9444C15.1476 35.0405 17.2117 34.7044 19.1798 33.9845L23.5479 32.3043C25.3238 31.6324 26.5238 30.0004 26.6199 28.1284C26.716 26.9763 26.3319 25.8245 25.6117 24.8646L20.9557 18.9125C20.4277 18.2405 20.0436 17.4246 19.8036 16.6086C19.6597 16.0327 19.6118 15.4086 19.6597 14.8327L23.7877 14.6887C24.9877 14.6408 26.0437 13.8249 26.3317 12.6249C26.5235 11.8089 26.3795 10.993 25.9476 10.2728C25.5157 9.55294 24.7955 9.0728 23.9795 8.88097C23.8834 8.83309 23.7395 8.88097 23.6434 8.88097L22.8274 9.12104C20.6675 9.74514 19.1313 11.377 18.5076 13.393L15.1477 13.4891C14.9558 12.193 14.3317 10.993 13.3718 10.0331C12.0278 8.73705 10.2037 8.16113 8.37993 8.35296H8.18808H8.1402C7.13203 8.54481 6.2682 9.26505 5.8842 10.225C5.45227 11.1849 5.54803 12.241 6.07605 13.153C6.79591 14.353 8.13988 15.121 9.57997 15.0728L13.7559 14.9288C13.564 16.3206 12.9399 17.665 11.8839 18.6249L9.86788 20.593L9.82 20.6409L7.65974 23.4239C6.26791 25.1041 6.41183 27.5041 7.94769 29.0399C8.47571 29.5679 9.09978 29.9038 9.77178 30.0959C13.3239 31.1041 17.2119 30.864 20.6198 29.4239L21.6279 28.992C22.2521 28.7519 22.6839 28.1761 22.8279 27.5041C22.9719 26.8321 22.7319 26.1601 22.2521 25.6321C20.8602 24.2403 18.6521 24.0002 17.0201 25.0562L15.7241 25.8722C15.3879 26.064 15.2921 26.5441 15.484 26.8803C15.6758 27.2165 16.156 27.3123 16.4922 27.1204L17.7882 26.3044C18.8922 25.6325 20.3322 25.7764 21.2442 26.6885C21.3882 26.8325 21.4361 27.0247 21.3882 27.2165C21.3403 27.4084 21.2442 27.5527 21.0521 27.6484L20.0439 28.0804C16.9241 29.3764 13.4198 29.6165 10.1559 28.6562C9.72396 28.5123 9.29205 28.2722 8.95588 27.9364C7.94771 26.9282 7.85197 25.3446 8.76403 24.2403L10.9239 21.6002L12.9399 19.6804C14.236 18.3843 15.052 16.7045 15.2439 14.8804L18.3159 14.7843C18.268 15.4563 18.3159 16.1761 18.5077 16.8481C18.7478 17.9041 19.2276 18.8641 19.8995 19.68L24.5077 25.7761C25.0357 26.4002 25.2758 27.2162 25.2276 28.0321C25.1315 29.3282 24.3155 30.48 23.0677 30.9601L18.6996 32.6403C16.9237 33.3123 15.0517 33.6002 13.1797 33.5041C8.33183 33.2641 4.05974 30.192 2.28374 25.68C1.75573 24.2882 1.46779 22.7999 1.46779 21.264L1.46812 14.9282C1.46812 10.2722 3.91604 5.90421 7.85212 3.45621C9.96421 2.16012 12.412 1.4402 14.9081 1.4402H18.2202C21.1482 1.4402 24.0284 2.25616 26.5241 3.74412C31.4681 6.76821 34.156 12.4321 34.156 19.7761C34.156 29.0881 32.0439 41.5201 13.66 41.5201C6.26821 41.5201 2.14004 37.0563 1.42004 35.3283C1.32394 34.8482 1.6601 34.6084 1.7562 34.5602C1.85229 34.5123 2.23634 34.2723 2.62003 34.6081C4.77994 36.2883 12.124 40.2241 19.852 38.4482C25.9481 37.0081 30.604 35.1361 29.98 25.2002C29.9321 24.8161 29.6439 24.4803 29.2119 24.5282C28.8279 24.5761 28.4921 24.9122 28.54 25.2963C29.1159 34.1763 25.324 35.7123 19.516 37.0563C12.3641 38.7361 5.40397 34.9442 3.53197 33.5042C2.76389 32.9283 1.80397 32.8801 0.987968 33.4081C0.171968 33.9361 -0.164118 34.8482 0.0758815 35.8081C0.0758815 35.856 0.0758818 35.856 0.123761 35.9042C0.987589 38.1602 5.64359 43.0081 13.7078 43.0081C22.4918 43.0081 28.7318 40.1762 32.2358 34.6081C35.3078 29.7602 35.6439 23.8561 35.6439 19.8241C35.5961 11.9521 32.668 5.8561 27.2439 2.5441L27.2435 2.544ZM23.3073 10.56L23.9314 10.3681C24.3154 10.4642 24.6034 10.7043 24.7952 11.0401C25.0353 11.4242 25.0832 11.8561 24.9871 12.288C24.8431 12.8639 24.363 13.248 23.7871 13.248L20.091 13.3441C20.6676 12.048 21.8194 10.9919 23.3073 10.56ZM9.5313 13.6798C8.61921 13.6798 7.75538 13.2479 7.32312 12.4798C7.03518 11.9997 6.98696 11.4238 7.22703 10.8958C7.4671 10.3678 7.89901 10.032 8.42703 9.88766H8.571C9.96283 9.74368 11.355 10.1756 12.3628 11.1837C13.0827 11.8557 13.5149 12.7199 13.7068 13.6317L9.5313 13.6798Z" fill="white"/>
</svg>
