<svg width="20" height="20" viewBox="0 0 20 20" fill="none" xmlns="http://www.w3.org/2000/svg">
<g opacity="1" clip-path="url(#clip0_0_33)">
<path d="M5.97222 5.00001C5.97222 4.25927 6.2963 3.56482 6.94444 2.91667C7.59259 2.26852 8.28704 1.94445 9.02778 1.94445C9.76852 1.94445 10.463 2.26852 11.1111 2.91667C11.7593 3.56482 12.0833 4.25927 12.0833 5.00001C12.0833 5.74075 11.7593 6.43519 11.1111 7.08334C10.463 7.73149 9.76852 8.05556 9.02778 8.05556C8.28704 8.05556 7.59259 7.73149 6.94444 7.08334C6.2963 6.43519 5.97222 5.74075 5.97222 5.00001ZM9.02778 7.62939e-06C8.10185 7.62939e-06 7.26852 0.231489 6.52778 0.694452C5.78704 1.15742 5.18519 1.75927 4.72222 2.50001C4.25926 3.24075 4.02778 4.07408 4.02778 5.00001C4.02778 5.92593 4.25926 6.75927 4.72222 7.50001C5.18519 8.24075 5.78704 8.8426 6.52778 9.30556C7.26852 9.76853 8.10185 10 9.02778 10C9.9537 10 10.787 9.76853 11.5278 9.30556C12.2685 8.8426 12.8704 8.24075 13.3333 7.50001C13.7963 6.75927 14.0278 5.92593 14.0278 5.00001C14.0278 4.07408 13.7963 3.24075 13.3333 2.50001C12.8704 1.75927 12.2685 1.15742 11.5278 0.694452C10.787 0.231489 9.9537 7.62939e-06 9.02778 7.62939e-06ZM3.75 15C5.23148 14.2593 6.99074 13.8889 9.02778 13.8889C11.0648 13.8889 12.8241 14.2593 14.3056 15C14.8611 15.5556 15.2315 16.1111 15.4167 16.6667L15.9722 18.3333C16.1574 18.5185 16.3889 18.7037 16.6667 18.8889C16.9444 19.0741 17.1759 19.1204 17.3611 19.0278C17.5463 18.9352 17.7315 18.75 17.9167 18.4722C18.1019 18.1945 18.1019 17.963 17.9167 17.7778L17.3611 16.1111C17.1759 15.5556 16.8981 15 16.5278 14.4445C16.1574 13.8889 15.6944 13.5185 15.1389 13.3333C13.4722 12.4074 11.4352 11.9445 9.02778 11.9445C6.62037 11.9445 4.58333 12.4074 2.91667 13.3333C2.36111 13.5185 1.89815 13.8889 1.52778 14.4445C1.15741 15 0.87963 15.5556 0.694444 16.1111L0.138889 17.7778C-0.0462963 17.963 -0.0462963 18.1945 0.138889 18.4722C0.324074 18.75 0.509259 18.9352 0.694444 19.0278C0.87963 19.1204 1.11111 19.0741 1.38889 18.8889C1.66667 18.7037 1.89815 18.5185 2.08333 18.3333L2.63889 16.6667C2.82407 16.1111 3.19444 15.5556 3.75 15Z" fill="white"/>
</g>
<defs>
<clipPath id="clip0_0_33">
<rect width="20" height="20" fill="white" transform="matrix(1 0 0 -1 0 20)"/>
</clipPath>
</defs>
</svg>
