<svg width="72" height="72" viewBox="0 0 72 72" fill="none" xmlns="http://www.w3.org/2000/svg">
<g clip-path="url(#clip0_8_39)">
<path d="M13.3519 57.8614C13.1262 57.8614 12.9005 57.7797 12.716 57.6357C12.4803 57.4414 12.347 57.1436 12.3571 56.836C12.7366 43.8227 13.475 37.0864 19.4121 22.6268C19.5248 22.3397 19.7711 22.1241 20.0686 22.0422C20.3662 21.9602 20.6839 22.0216 20.9302 22.206L23.8015 24.3595L23.5039 19.3247C23.4833 19.0377 23.5964 18.7607 23.8015 18.5556C36.1375 6.36258 50.6791 1.29741 67.0042 3.50185C67.5171 3.57327 67.886 4.02465 67.8659 4.53738C67.4657 12.7924 64.123 21.458 57.3755 31.8357C57.2424 32.0408 57.0372 32.1946 56.7908 32.2559L45.1106 35.3323L51.0484 38.1523C51.3353 38.2854 51.5405 38.5625 51.6024 38.88C51.6535 39.1979 51.5609 39.526 51.3359 39.7519C42.2906 48.899 25.3396 55.2156 13.5673 57.841C13.4955 57.8515 13.4238 57.8614 13.3519 57.8614ZM20.7764 24.5757C15.5672 37.507 14.767 43.7923 14.3879 55.6056C25.3704 52.9905 40.2809 47.3406 48.8948 39.3211L41.7985 35.9579C41.419 35.7833 41.1934 35.3837 41.2346 34.9631C41.2757 34.5428 41.563 34.204 41.9731 34.0914L55.9192 30.4204C62.082 20.8937 65.2508 12.8856 65.825 5.34763C50.6587 3.54306 37.1015 8.36272 25.5238 19.6525L25.9239 26.3793C25.9445 26.7688 25.7395 27.1278 25.4011 27.3122C25.0628 27.4967 24.6421 27.4661 24.3345 27.2303L20.7764 24.5757Z" fill="white"/>
<path d="M16.89 68.6295C16.603 68.6295 16.316 68.5063 16.1209 68.2605C15.7721 67.8402 15.8339 67.2041 16.2647 66.8662L20.1715 63.6664C22.6532 61.6257 26.191 61.718 28.5702 63.8614L29.5544 64.7537C31.1851 66.2202 33.687 66.2713 35.3789 64.8769L42.065 59.3496C45.1106 56.909 52.2681 53.8018 57.6825 59.4313C58.062 59.8315 58.0514 60.457 57.6519 60.8365C57.2517 61.216 56.6264 61.2054 56.247 60.8058C50.7401 55.0838 43.6131 60.652 43.3154 60.8981L36.64 66.4149C34.1995 68.4351 30.5691 68.3534 28.2106 66.2304L27.2263 65.3384C25.5755 63.8512 23.1346 63.7899 21.4119 65.205L17.5051 68.4045C17.3408 68.5577 17.1151 68.6295 16.8894 68.6295H16.89Z" fill="white"/>
<path d="M8.99473 65.9024C8.83084 65.9024 8.67702 65.8612 8.5232 65.7792C8.04114 65.5127 7.85666 64.9175 8.12309 64.4359L19.8234 42.8404C28.1808 30.0427 39.9013 19.0193 54.6996 10.0257C55.171 9.73873 55.7764 9.89253 56.0633 10.354C56.3502 10.8255 56.1964 11.4307 55.7352 11.7178C41.1948 20.5574 29.6884 31.3656 21.5363 43.8457L9.87776 65.3803C9.69281 65.7186 9.3545 65.9037 8.99559 65.9037L8.99473 65.9024Z" fill="white"/>
</g>
<defs>
<clipPath id="clip0_8_39">
<rect width="60" height="65.7447" fill="white" transform="translate(8 3)"/>
</clipPath>
</defs>
</svg>
