<svg width="16" height="16" viewBox="0 0 16 16" fill="none" xmlns="http://www.w3.org/2000/svg">
<path d="M8.85223 1.93345C8.80607 1.92713 8.75127 1.92292 8.69215 1.91871C8.44991 1.90186 7.94592 1.86605 7.97548 1.3584C7.98845 1.13864 8.08943 0.77002 8.62151 0.77002C8.68047 0.77002 8.73823 0.773932 8.78871 0.777356L8.79455 0.77774C8.79839 0.777988 8.80223 0.778243 8.80607 0.778483C8.84559 0.781027 8.88183 0.783364 8.91279 0.783364C8.92599 0.783572 8.93927 0.782868 8.95239 0.781252C8.96535 0.779148 8.97839 0.779148 8.99279 0.779148C12.3353 0.888684 15.2322 3.84396 15.1904 7.10185C15.1904 7.14302 15.1922 7.18906 15.1942 7.23828L15.1947 7.2493C15.2055 7.46556 15.217 7.73447 15.0397 7.91492C14.9373 8.01882 14.7953 8.07146 14.6157 8.07146H14.5985C14.0278 8.06098 14.0188 7.5434 14.0145 7.29398C14.0138 7.22447 14.0123 7.15802 14.0051 7.10396C13.592 3.91768 12.0988 2.42003 8.85223 1.93345ZM13.6417 11.0647C13.71 11.1179 13.7789 11.1704 13.8486 11.2219C14.3706 11.6103 15.0209 12.094 14.6648 13.0728C14.2589 14.1899 12.9358 15.17 11.8341 15.17H11.8154C11.7957 15.1699 11.7761 15.1673 11.757 15.1623C11.7225 15.1532 11.6749 15.1427 11.6201 15.1307C11.4578 15.0956 11.2365 15.0471 11.0253 14.9587C8.68351 13.9764 6.66184 12.6698 5.01728 11.0738C3.33666 9.44346 2.00428 7.46766 1.05618 5.20188C0.728854 4.4183 0.714434 3.66491 1.01724 3.02316C1.33088 2.35964 1.95669 1.85692 2.8298 1.57116C3.15534 1.45756 3.51144 1.45856 3.8363 1.57396C4.59622 1.84568 6.3994 4.24066 6.4441 5.03618C6.48232 5.7376 5.92932 6.10342 5.63155 6.30001C5.10812 6.64687 5.01151 7.07236 5.30927 7.72394C5.925 9.0713 7.00215 10.0923 8.50903 10.7579C8.66775 10.8338 8.84127 10.8761 9.01799 10.8821C9.27255 10.8821 9.47943 10.7599 9.64959 10.5086C10.0346 9.94194 10.5004 9.6541 11.0353 9.6541C11.4319 9.6541 11.8515 9.8093 12.3187 10.1287L12.5771 10.3045C12.9314 10.5457 13.2971 10.7946 13.6417 11.0647ZM8.46071 4.91049C8.59839 4.52152 8.99135 4.51168 9.17951 4.50747C9.67991 4.49553 10.2293 4.74971 10.6849 5.20048C11.1399 5.64984 11.4066 6.21435 11.4009 6.71146C11.4167 7.18821 11.2386 7.45151 10.8709 7.49364C10.848 7.49641 10.8249 7.49782 10.8017 7.49785C10.4968 7.49785 10.2581 7.25702 10.2228 6.91297C10.1471 6.17363 9.76711 5.77622 9.02815 5.66108C8.82479 5.62877 8.60055 5.5698 8.48375 5.38022C8.40375 5.25032 8.39583 5.09305 8.46071 4.91049ZM9.29767 2.66363C11.4974 2.92132 13.2732 4.78267 13.2559 6.81323L13.2552 6.81253C13.2553 6.82192 13.2549 6.8313 13.2537 6.84061C13.2481 6.87718 13.2501 6.93138 13.2521 6.98921L13.2523 6.99227C13.2595 7.20087 13.2745 7.63475 12.7873 7.70704C12.7382 7.71407 12.6906 7.71758 12.6473 7.71758C12.1244 7.71758 12.0945 7.24501 12.0801 7.01624L12.08 7.01474C12.0796 7.00955 12.0792 7.0044 12.0789 6.99926C12.0749 6.94396 12.0713 6.89215 12.0641 6.84974C11.7389 4.94064 11.0734 4.26449 9.09655 3.83408C9.05095 3.82428 8.99719 3.81692 8.94055 3.80916L8.92783 3.8074C8.71655 3.77932 8.45343 3.74421 8.30415 3.54692C8.21551 3.42966 8.18591 3.2787 8.21695 3.09965C8.24863 2.9164 8.36903 2.60746 8.82039 2.60746C8.93295 2.61021 9.04503 2.62196 9.15567 2.64256C9.20607 2.651 9.25367 2.65872 9.29767 2.66363Z" fill="white"/>
</svg>
