<svg width="60" height="60" viewBox="0 0 60 60" fill="none" xmlns="http://www.w3.org/2000/svg">
<path d="M28.8761 35.0474C28.9766 33.9344 28.6275 32.9658 27.8318 32.1567C27.0331 31.371 26.0662 31.0186 24.9469 31.1236C24.2801 31.1818 23.6804 30.9981 23.2517 30.5883C22.1689 29.5636 21.0559 29.0396 19.9504 29.0282H19.8696C17.4599 29.0282 13.2762 30.8079 9.26625 34.8179C8.73926 35.3457 4.13575 40.0702 4.81265 43.2509C5.17933 44.9705 5.54977 45.5807 5.99683 46.2015C6.20319 46.4874 6.36518 46.7134 6.55103 47.2554C6.71218 47.7188 6.69711 48.1357 6.68036 48.6195C6.64646 49.5563 6.60544 50.7216 7.94448 52.0523C9.2776 53.393 10.4413 53.3482 11.381 53.3197C11.8657 53.3009 12.2822 53.2879 12.7496 53.4511C13.2871 53.6349 13.5127 53.7973 13.799 54.0032C14.4198 54.4503 15.03 54.8207 16.7487 55.1874C16.9651 55.2334 17.1895 55.2548 17.4192 55.2548C20.5548 55.2548 24.6895 51.2239 25.1817 50.7338C29.236 46.6786 31.01 42.4464 30.9698 40.0571C30.9606 38.945 30.4353 37.8332 29.4068 36.7445C29 36.3197 28.8116 35.7199 28.8761 35.0485L28.8761 35.0474ZM11.3144 51.4443C10.5158 51.4715 10.0319 51.4904 9.27054 50.7252C8.50914 49.9676 8.52715 49.4859 8.55519 48.6851C8.57486 48.1263 8.59914 47.4323 8.32371 46.6412C8.04996 45.8405 7.76784 45.4495 7.51837 45.1033C7.21909 44.6881 6.96042 44.3281 6.64732 42.8577C6.29572 41.2018 8.88172 37.8574 10.5936 36.1395C14.2398 32.4921 17.9643 30.8973 19.9258 30.901C20.5503 30.9065 21.2347 31.2593 21.9584 31.9446C22.7713 32.7218 23.9245 33.0986 25.12 32.9881C25.6683 32.9328 26.1166 33.0969 26.5059 33.4803C26.9044 33.8842 27.0593 34.315 27.0095 34.8709C26.8952 36.07 27.2757 37.2241 28.0492 38.0315C28.7382 38.7611 29.0898 39.4463 29.0956 40.0763C29.1283 42.0114 27.5034 45.7564 23.8571 49.4017C22.1376 51.1145 18.7978 53.7017 17.139 53.3472C15.6698 53.0349 15.3107 52.7762 14.8942 52.4761C14.548 52.2275 14.1563 51.9462 13.3613 51.6737C12.7808 51.4711 11.772 51.441 11.3137 51.441L11.3144 51.4443Z" fill="white"/>
<path d="M59.7251 0.274591C59.443 -0.0083635 59.0114 -0.0807792 58.6506 0.095438C58.5447 0.146923 49.5361 4.64826 42.2023 9.6536L47.1754 2.18915C47.4165 1.82833 47.3779 1.34907 47.0824 1.03219C46.7882 0.714497 46.3143 0.640409 45.9355 0.853038C45.7217 0.97317 24.3877 13.0773 4.76749 32.6889C1.72148 35.7341 0.0283209 39.7704 0.000353294 44.0517C-0.0276914 48.3396 1.61476 52.36 4.62851 55.3727C7.71137 58.4555 11.7665 59.9942 15.8402 59.9933C19.9808 59.9933 24.141 58.404 27.3112 55.232C46.9217 35.6118 59.0271 14.2772 59.1481 14.0639C59.3608 13.6859 59.2859 13.2117 58.969 12.9162C58.6521 12.6236 58.1728 12.5842 57.812 12.8232L50.345 17.7972C55.3424 10.4721 59.8522 1.45491 59.9045 1.34883C60.0807 0.988848 60.0087 0.556465 59.7253 0.274378L59.7251 0.274591ZM45.6706 20.9599C45.3763 21.3199 45.3885 21.8393 45.7007 22.1842C46.013 22.5292 46.5287 22.594 46.915 22.3354L55.374 16.7005C51.1062 23.5542 40.6701 39.2138 25.9855 53.9059C23.2899 56.6015 19.7202 58.1001 15.9342 58.1252C12.1679 58.1084 8.60788 56.702 5.95246 54.0466C3.29704 51.3912 1.84958 47.8463 1.87391 44.0649C1.89902 40.2789 3.39755 36.7092 6.09315 34.0136C20.7863 19.3279 36.446 8.89206 43.2997 4.62512L37.6648 13.0833C37.407 13.4697 37.4718 13.987 37.8159 14.2985C38.16 14.6099 38.6815 14.6237 39.0394 14.3286C44.3423 9.97628 52.676 5.34931 56.8733 3.12551C54.6465 7.32676 50.0107 15.6713 45.6702 20.9594L45.6706 20.9599Z" fill="white"/>
<path d="M34.0753 17.5799C34.0753 17.2647 33.9166 16.9713 33.6542 16.7972C33.3917 16.6227 33.0569 16.5929 32.7689 16.7185C32.6019 16.7897 28.607 18.5272 21.9365 23.6221C21.5251 23.9373 21.446 24.525 21.7603 24.9365C22.0734 25.3463 22.6624 25.425 23.0738 25.1127C27.3618 21.8365 30.537 19.9776 32.1996 19.0923V21.5551C32.1996 21.8825 32.3704 22.1851 32.6488 22.3559C32.9271 22.5267 33.2749 22.5367 33.5667 22.3898L41.8985 18.1018L37.6118 26.4336C37.462 26.7254 37.4749 27.0732 37.6457 27.3515C37.8165 27.6312 38.1191 27.8007 38.4465 27.8007H40.9093C40.1576 29.2138 38.7021 31.7198 36.2719 35.0701C35.9681 35.4883 36.061 36.0751 36.48 36.379C37.1681 36.7775 37.606 36.423 37.7897 36.1697C41.8094 30.6295 43.225 27.3674 43.2832 27.2315C43.4071 26.9418 43.3778 26.6099 43.2045 26.3462C43.0312 26.0837 42.7365 25.9251 42.4217 25.9251H39.9831L44.9056 16.3597C45.0923 15.9968 45.0228 15.5561 44.7348 15.2673C44.4481 14.9793 44.0065 14.9102 43.6424 15.0957L34.0759 20.0182V17.5795L34.0753 17.5799Z" fill="white"/>
<path d="M13.646 39.0807C14.5744 40.6839 12.5731 44.3109 11.1689 46.1861C10.8587 46.5997 10.942 47.1874 11.3564 47.4979C11.5251 47.6243 11.7231 47.6854 11.919 47.6854C12.204 47.6854 12.4853 47.5561 12.669 47.3112C13.1127 46.7206 16.9586 41.4504 15.4116 38.3789C14.9336 37.4195 14.1918 37.25 13.7926 37.234C11.7713 37.1394 9.39791 40.7446 8.47166 42.2905C8.20545 42.735 8.34986 43.3105 8.79313 43.5768C9.23849 43.843 9.8132 43.6994 10.0794 43.2553C11.3536 41.1298 13.1237 39.1147 13.6461 39.0813L13.646 39.0807Z" fill="white"/>
<path d="M23.6609 43.8094C23.7237 44.4984 22.123 46.2183 20.6476 47.3309C20.234 47.6423 20.1516 48.23 20.463 48.6435C20.6476 48.8884 20.9288 49.0169 21.2131 49.0169C21.4089 49.0169 21.6069 48.9558 21.7756 48.8286C22.704 48.1308 25.7173 45.693 25.529 43.6378C25.4624 42.9095 25.017 42.3026 24.2762 41.935C21.1072 40.3428 16.4229 44.8952 15.8988 45.42C15.5321 45.7867 15.5321 46.3794 15.8988 46.7457C16.2655 47.1123 16.8582 47.1123 17.2244 46.7457C18.5823 45.3869 21.9502 42.7157 23.6612 43.809L23.6609 43.8094Z" fill="white"/>
<path d="M22.1189 12.9381L32.4326 5.43718C32.8508 5.13329 32.9437 4.54645 32.639 4.12827C32.3343 3.70802 31.7483 3.61551 31.3292 3.92108L21.0155 11.422C20.5974 11.7258 20.4839 12.3286 20.8092 12.7309C21.2357 13.2595 21.9523 13.059 22.1189 12.9381Z" fill="white"/>
<path d="M51.7505 31.3184L44.2496 41.6321C43.9449 42.0502 44.0198 42.6634 44.456 42.941C45.0729 43.3328 45.5828 42.987 45.7657 42.7338L53.2666 32.4201C53.5713 32.0019 53.4784 31.4151 53.0602 31.1112C52.6412 30.8081 52.054 30.8994 51.7505 31.3184Z" fill="white"/>
<path d="M12.7352 12.9412L19.2984 8.25317C19.7204 7.95305 19.8179 7.36704 19.5169 6.94512C19.216 6.5232 18.6291 6.42483 18.2089 6.72747L11.6456 11.4155C11.2237 11.7156 11.1262 12.3016 11.4271 12.7236C11.7879 13.2288 12.5703 13.0593 12.7352 12.9412Z" fill="white"/>
<path d="M49.8701 43.5137L45.182 50.077C44.8811 50.4981 44.9803 51.082 45.4005 51.385C45.9556 51.7844 46.5257 51.4235 46.7086 51.1674L51.3966 44.6041C51.6976 44.183 51.6001 43.597 51.1781 43.2961C50.757 42.9943 50.171 43.0918 49.8701 43.5137Z" fill="white"/>
<path d="M19.5471 37.8002C20.0967 37.2506 20.0967 36.3599 19.5471 35.8115C18.9975 35.2619 18.1069 35.2619 17.5584 35.8115C17.0088 36.3611 17.0088 37.2518 17.5584 37.8002C18.108 38.3498 18.9987 38.3498 19.5471 37.8002Z" fill="white"/>
<path d="M32.1444 30.5082C31.5948 31.0578 31.5948 31.9485 32.1444 32.4969C32.694 33.0452 33.5846 33.0465 34.1331 32.4969C34.6827 31.9473 34.6827 31.0566 34.1331 30.5082C33.5835 29.9598 32.6928 29.9586 32.1444 30.5082Z" fill="white"/>
<path d="M23.857 38.7946C24.2236 38.4279 24.2236 37.8344 23.857 37.469C23.4903 37.1023 22.8968 37.1023 22.5314 37.469C22.1647 37.8357 22.1647 38.4292 22.5314 38.7946C22.898 39.1613 23.4916 39.1613 23.857 38.7946Z" fill="white"/>
<path d="M27.8345 28.1873C28.2012 27.8206 28.2012 27.2271 27.8345 26.8617C27.4678 26.495 26.8743 26.495 26.5089 26.8617C26.1422 27.2284 26.1422 27.8219 26.5089 28.1873C26.8756 28.5531 27.4691 28.554 27.8345 28.1873Z" fill="white"/>
<path d="M33.1388 25.5351C32.7721 25.9018 32.7721 26.4953 33.1388 26.8608C33.5055 27.2274 34.099 27.2274 34.4644 26.8608C34.8302 26.4941 34.8311 25.9005 34.4644 25.5351C34.0977 25.1685 33.5042 25.1685 33.1388 25.5351Z" fill="white"/>
</svg>
