<svg width="60" height="60" viewBox="0 0 60 60" fill="none" xmlns="http://www.w3.org/2000/svg">
<path d="M58.0288 30.6703C56.9636 30.055 55.5732 30.01 54.3989 30.4732C52.9741 19.0249 45.1463 10.6531 34.2973 8.89672C33.7315 3.48264 28.9577 -0.279395 29.0155 0.0162767C28.9705 0.301427 28.4305 2.46212 28.9662 5.58492C27.6504 3.37498 25.124 1.60046 20.3673 3.5467C20.3673 3.5467 24.9958 3.81894 26.4336 8.78758C15.2013 10.2817 7.04824 18.778 5.59973 30.4939C4.37199 30.0054 2.94037 30.0589 1.86274 30.7316C1.01424 31.2632 -0.344063 32.6201 0.0800827 35.7601C0.530162 39.0696 2.70503 40.5249 4.44937 41.6953C5.34091 42.2909 6.10996 42.81 6.52137 43.4531L7.10011 44.3579L7.11302 44.3492C10.6458 53.81 19.1971 60 29.999 60C40.7984 60 49.35 53.8118 52.8875 44.3529L52.9004 44.3591L53.4748 43.4544C53.8842 42.8095 54.6595 42.2903 55.5511 41.6922C57.2954 40.5239 59.4703 39.0684 59.9204 35.7591C60.3532 32.5363 58.9217 31.1881 58.0282 30.6694L58.0288 30.6703ZM5.64238 39.9149C4.03959 38.8412 2.52484 37.8251 2.20538 35.4734C2.00832 34.0328 2.28908 32.9956 2.996 32.5539C3.6838 32.1252 4.64177 32.2798 5.188 32.6482L5.40418 32.7917C5.38074 33.2826 5.34009 33.7649 5.34009 34.2663C5.34009 36.2963 5.55006 38.2402 5.91883 40.1028C5.82652 40.0411 5.73422 39.9771 5.64238 39.9149ZM29.9989 57.8573C16.9538 57.8573 7.48272 47.9352 7.48272 34.266C7.48272 20.5933 16.954 10.671 29.9989 10.671C43.0439 10.671 52.5151 20.5931 52.5151 34.266C52.5151 47.935 43.0439 57.8573 29.9989 57.8573ZM57.7925 35.4737C57.4754 37.8271 55.9606 38.8409 54.3555 39.9151C54.2632 39.9773 54.1713 40.0414 54.079 40.1036C54.4478 38.243 54.6578 36.2991 54.6578 34.2671C54.6578 33.7743 54.6147 33.2963 54.5937 32.8098L54.7223 32.7089C55.2599 32.295 56.2414 32.1108 56.9574 32.5247C57.6959 32.9552 57.992 34.0017 57.7925 35.4738L57.7925 35.4737Z" fill="white"/>
<path d="M40.4238 27.5261C38.1801 27.5261 36.3545 29.271 36.3545 31.4144C36.3545 32.0058 36.8347 32.4862 37.4259 32.4862C38.017 32.4862 38.4973 32.0058 38.4973 31.4144C38.4973 30.4518 39.3606 29.6696 40.4238 29.6696C41.4866 29.6696 42.3503 30.4518 42.3503 31.4144C42.3503 32.0058 42.8305 32.4862 43.4217 32.4862C44.0129 32.4862 44.4931 32.0058 44.4931 31.4144C44.495 29.273 42.6675 27.5261 40.4238 27.5261Z" fill="white"/>
<path d="M41.1217 41.788C40.5798 41.5651 39.9475 41.8201 39.7227 42.3689C39.1932 43.6464 38.4265 44.7951 37.4407 45.7811C36.4573 46.7648 35.3084 47.5345 34.0228 48.0661C31.4816 49.1249 28.5181 49.1249 25.9726 48.0661C24.6889 47.5346 23.5405 46.7652 22.557 45.7811C21.5712 44.795 20.8041 43.6462 20.275 42.3689C20.0502 41.8244 19.4241 41.5608 18.876 41.788C18.3298 42.0129 18.0705 42.6392 18.2953 43.1875C18.9338 44.7266 19.8575 46.109 21.0422 47.2945C22.2251 48.4796 23.605 49.4035 25.1498 50.0445C26.6862 50.6814 28.3166 51.0048 29.9989 51.0048C31.681 51.0048 33.3116 50.6814 34.8459 50.0445C36.3933 49.4034 37.7731 48.4801 38.9559 47.2945C40.143 46.1093 41.0642 44.7266 41.7028 43.1875C41.9271 42.6392 41.6679 42.0134 41.1217 41.788Z" fill="white"/>
<path d="M21.9187 30.7337C21.9187 32.3958 20.4825 33.7431 18.7108 33.7431C16.9392 33.7431 15.5034 32.3958 15.5034 30.7337C15.5034 29.0717 16.9393 27.7244 18.7108 27.7244C20.4824 27.7244 21.9187 29.0717 21.9187 30.7337Z" fill="white"/>
</svg>
