<svg xmlns="http://www.w3.org/2000/svg" xmlns:xlink="http://www.w3.org/1999/xlink" version="1.1" width="45" height="50" viewBox="0 0 45 50" xml:space="preserve">
<g transform="matrix(0.0867387575 0 0 0.0874395864 22.5000718323 25.0181085371)" id="2zEY9ZAYybZ6lkCSZ5BH5"  >
<path stroke="none" fill="white" transform=" translate(-350.0023316146, -280.0001181475)" d="M 546.1 0 C 546.1 0 375.63 202.88 96.77000000000004 148.03 C 185.23500000000004 437.42999999999995 341.73 575.79 481.19000000000005 558.57 C 643.83 477.31600000000003 620.51 224.94000000000005 546.1 0 z M 472.16600000000005 528.76 C 307.06600000000003 541.865 194.46600000000007 325.84000000000003 143.48600000000005 187.31 C 270.93600000000004 200.212 430.23600000000005 151.802 532.0060000000001 59.25 C 573.3260000000001 188.58 619.9440000000001 457.95 472.1620000000001 528.77 z M 430.50200000000007 283.99 C 432.5918000000001 256.77500000000003 446.13900000000007 234.392 467.79100000000005 227.256 C 491.232 219.5333 515.412 232.1037 531.5020000000001 250.709 C 531.5020000000001 250.709 489.4670000000001 238.287 474.4000000000001 247.3106 C 451.3960000000001 254.88479999999998 430.50200000000007 283.9906 430.50200000000007 283.9906 z M 540.522 338.31 C 530.6587000000001 387.462 495.40100000000007 430.076 444.38100000000003 446.9 C 406.35 459.431 349.276 459.10699999999997 302.521 416.74399999999997 C 302.521 416.74399999999997 386.93100000000004 431.50199999999995 432.951 412.21279999999996 C 487.146 394.3538 540.521 338.3108 540.521 338.3108 z M 301.58200000000005 304.259 C 278.58200000000005 311.841 257.684 340.954 257.684 340.954 C 259.7778 313.731 273.321 291.356 294.973 284.216 C 316.14500000000004 277.2394 340.395 286.5246 358.692 307.661 C 358.692 307.661 326.071 295.981 301.583 304.2587 z" stroke-linecap="round" />
</g>
</svg>