<svg width="61" height="60" viewBox="0 0 61 60" fill="none" xmlns="http://www.w3.org/2000/svg">
<path d="M30.4481 60C13.8799 60 0.44812 46.5682 0.44812 30C0.44812 13.4318 13.8799 0 30.4481 0C47.0163 0 60.4481 13.5 60.4481 30C60.4481 46.5 47.0163 60 30.4481 60ZM30.4481 1.97727C14.9708 1.97727 2.42539 14.5227 2.42539 30C2.42539 45.4773 14.9708 58.0227 30.4481 58.0227C45.9254 58.0227 58.4708 45.4773 58.4708 30C58.4708 14.5227 45.9254 1.97727 30.4481 1.97727Z" fill="white"/>
<path d="M47.3572 10.7725L32.6299 31.3634L44.7662 46.4997C44.7662 46.4997 68.4935 33.9543 47.3568 10.7725H47.3572ZM44.4256 36.8861C41.0845 36.8861 38.3574 34.1591 38.3574 30.8179C38.3574 27.4768 41.0844 24.7497 44.4256 24.7497C47.7666 24.7497 50.4938 27.4768 50.4938 30.8179C50.4938 34.1591 47.7662 36.8861 44.4256 36.8861Z" fill="white"/>
<path d="M13.6754 10.7725C-7.46094 33.8861 16.2664 46.4315 16.2664 46.4315L28.4028 31.3634L13.6754 10.7725ZM16.6075 36.8861C13.2664 36.8861 10.5393 34.1591 10.5393 30.8179C10.5393 27.4768 13.2663 24.7497 16.6075 24.7497C19.9485 24.7497 22.6757 27.4768 22.6757 30.8179C22.6757 34.1591 19.9486 36.8861 16.6075 36.8861Z" fill="white"/>
</svg>
