<svg width="60" height="60" viewBox="0 0 60 60" fill="none" xmlns="http://www.w3.org/2000/svg">
<path d="M14.9999 59.9996C6.72863 59.9996 0 53.271 0 44.9997C0 39.9071 2.5488 35.2071 6.81734 32.4277C9.23468 30.8414 12.0648 30.0002 14.9999 30.0002C17.9349 30.0002 20.7659 30.8415 23.1862 32.4302C27.451 35.2076 29.9998 39.9076 29.9998 45.0001C29.9998 53.2714 23.2712 60 14.9999 60V59.9996ZM14.9999 32.4994C12.5536 32.4994 10.1986 33.1984 8.1863 34.5193C4.62382 36.8396 2.49984 40.7557 2.49984 44.9995C2.49984 51.8917 8.10723 57.4998 15.0001 57.4998C21.8923 57.4998 27.5004 51.8924 27.5004 44.9995C27.5004 40.7557 25.3768 36.8396 21.8181 34.5222C19.8029 33.1984 17.4466 32.4994 15.0003 32.4994H14.9999Z" fill="white"/>
<path d="M14.9998 54.9993C9.48615 54.9993 5 50.5132 5 44.9995C5 39.4859 9.48615 34.9998 14.9998 34.9998C20.5134 34.9998 24.9996 39.4859 24.9996 44.9995C24.9996 50.5132 20.5134 54.9993 14.9998 54.9993ZM14.9998 37.4998C10.8636 37.4998 7.49984 40.8635 7.49984 44.9998C7.49984 49.136 10.8636 52.4997 14.9998 52.4997C19.136 52.4997 22.4997 49.136 22.4997 44.9998C22.4997 40.8635 19.136 37.4998 14.9998 37.4998Z" fill="white"/>
<path d="M7.49989 34.7248C7.29607 34.7248 7.09225 34.675 6.906 34.575C6.50255 34.3561 6.24976 33.9334 6.24976 33.4747V26.2496C6.24976 25.5582 6.80974 24.9995 7.49989 24.9995H22.4998C23.1899 24.9995 23.7499 25.5582 23.7499 26.2496V33.4747C23.7499 33.9334 23.4975 34.3561 23.0937 34.5746C22.6898 34.7935 22.1989 34.7734 21.8139 34.5198C17.7927 31.8772 12.2125 31.8759 8.18646 34.5198C7.97887 34.657 7.73989 34.7248 7.50008 34.7248L7.49989 34.7248ZM8.75002 27.4998V31.3574C12.6339 29.5724 17.3675 29.5724 21.2503 31.3574L21.2499 27.4998H8.75002Z" fill="white"/>
<path d="M44.9997 29.9998C39.9071 29.9998 35.2083 27.451 32.4277 23.1824C30.8402 20.7659 30.0002 17.9362 30.0002 14.9999C30.0002 12.0636 30.8402 9.23393 32.4302 6.81359C35.2088 2.5488 39.9076 0 45.0001 0C53.2714 0 60 6.72863 60 14.9999C60 23.2712 53.2714 29.9998 45.0001 29.9998H44.9997ZM44.9997 2.49962C40.7559 2.49962 36.8398 4.62318 34.5224 8.18191C33.1986 10.1971 32.4997 12.5534 32.4997 14.9997C32.4997 17.4459 33.1986 19.8022 34.5195 21.8133C36.8398 25.3757 40.7559 27.4997 44.9997 27.4997C51.8919 27.4997 57.5 21.8923 57.5 14.9995C57.5 8.10723 51.8922 2.4992 44.9997 2.4992V2.49962Z" fill="white"/>
<path d="M44.9998 24.9996C39.4861 24.9996 35 20.5134 35 14.9998C35 9.48615 39.4861 5 44.9998 5C50.5134 5 54.9996 9.48615 54.9996 14.9998C54.9996 20.5134 50.5134 24.9996 44.9998 24.9996ZM44.9998 7.50005C40.8636 7.50005 37.4998 10.8638 37.4998 15C37.4998 19.1362 40.8636 22.4999 44.9998 22.4999C49.136 22.4999 52.4997 19.1362 52.4997 15C52.4997 10.8638 49.136 7.50005 44.9998 7.50005Z" fill="white"/>
<path d="M33.4744 23.7502H26.2494C25.5593 23.7502 24.9993 23.1914 24.9993 22.5V7.50013C24.9993 6.80874 25.5593 6.25 26.2494 6.25H33.4744C33.9344 6.25 34.3571 6.50237 34.5743 6.90625C34.7932 7.31012 34.7719 7.80231 34.5195 8.18488C33.1982 10.1975 32.4994 12.5538 32.4994 15.0001C32.4994 17.4463 33.1983 19.8026 34.5192 21.8137C34.7716 22.1975 34.7929 22.6888 34.574 23.0923C34.356 23.4974 33.9333 23.7502 33.4745 23.7502L33.4744 23.7502ZM27.4995 21.2499H31.3558C30.4643 19.3088 29.9994 17.184 29.9994 15.0001C29.9994 12.8162 30.4643 10.6914 31.3558 8.75027H27.4995V21.2499Z" fill="white"/>
<path d="M23.1246 18.7499C20.7122 18.7499 18.7498 17.0675 18.7498 15C18.7498 12.9325 20.7122 11.25 23.1246 11.25C25.537 11.25 27.4994 12.9325 27.4994 15C27.4998 17.0675 25.5374 18.7499 23.1246 18.7499ZM23.1246 13.7498C22.126 13.7498 21.2496 14.3349 21.2496 15C21.2496 15.665 22.126 16.2501 23.1246 16.2501C24.1232 16.2501 24.9996 15.665 24.9996 15C24.9996 14.3349 24.1236 13.7498 23.1246 13.7498Z" fill="white"/>
<path d="M15 27.5001C12.9325 27.5001 11.25 25.5377 11.25 23.1253C11.25 20.7129 12.9325 18.7505 15 18.7505C17.0675 18.7505 18.7499 20.7129 18.7499 23.1253C18.7499 25.5377 17.0675 27.5001 15 27.5001ZM15 21.2499C14.3337 21.2499 13.7498 22.1263 13.7498 23.1249C13.7498 24.1235 14.3337 24.9999 15 24.9999C15.6663 24.9999 16.2501 24.1235 16.2501 23.1249C16.2501 22.1263 15.6663 21.2499 15 21.2499Z" fill="white"/>
<path d="M15 21.2495C12.9325 21.2495 11.25 19.2871 11.25 16.8747C11.25 15.3023 11.9661 13.866 13.1011 13.1008C13.8662 11.9658 15.3025 11.2498 16.875 11.2498C19.2874 11.2498 21.2498 12.9322 21.2498 14.9997C21.2498 16.5696 20.1285 17.9349 18.4846 18.4836C17.935 20.1284 16.5698 21.2495 15 21.2495ZM16.875 13.7496C15.9714 13.7496 15.3323 14.1857 15.1214 14.5896C15.0025 14.8172 14.8175 15.0022 14.5915 15.1207C14.1864 15.332 13.7499 15.9699 13.7499 16.8747C13.7499 17.9795 14.4086 18.7497 15 18.7497C15.5587 18.7497 16.0911 18.0985 16.2137 17.2685C16.2936 16.7211 16.7226 16.2921 17.2688 16.2122C18.0987 16.0908 18.7499 15.5585 18.7499 14.9998C18.7499 14.4084 17.9799 13.7496 16.875 13.7496Z" fill="white"/>
</svg>
