<svg width="24" height="28" viewBox="0 0 24 28" fill="none" xmlns="http://www.w3.org/2000/svg">
<path d="M20.4853 5.51473C18.1421 3.17153 15.071 2 12 2C8.92902 2 5.85803 3.17153 3.51468 5.51473C-1.17156 10.2009 -1.17156 17.7995 3.51468 22.4853C5.85789 24.8285 8.92902 26 12 26C15.071 26 18.142 24.8285 20.4853 22.4853C25.1716 17.7991 25.1716 10.2009 20.4853 5.51473ZM5.63565 7.63602C7.33562 5.93625 9.59569 5.00006 11.9995 5.00006C13.9222 5.00006 15.7479 5.60816 17.2734 6.7173C17.1577 6.7826 17.0377 6.84082 16.9389 6.93941L4.93882 18.9395C4.84581 19.0325 4.79298 19.1461 4.72974 19.2544C2.18805 15.7385 2.47133 10.8001 5.63546 7.63623L5.63565 7.63602ZM18.3639 20.3642C16.6639 22.0639 14.4038 23.0001 12 23.0001C10.0774 23.0001 8.25163 22.392 6.72614 21.2829C6.84184 21.2176 6.96182 21.1594 7.06059 21.0608L19.0607 9.06074C19.1537 8.96773 19.2065 8.85408 19.2698 8.74582C21.8115 12.2616 21.5282 17.2001 18.3641 20.364L18.3639 20.3642Z" fill="white"/>
</svg>
