<svg width="21" height="18" viewBox="0 0 21 18" fill="none" xmlns="http://www.w3.org/2000/svg">
<path d="M4.60889 13.97H1.83111C1.46074 13.97 1.18296 13.8774 0.997779 13.6922C0.812594 13.507 0.720001 13.2293 0.720001 12.8589V0.914442C0.720001 0.729256 0.812594 0.544071 0.997779 0.358887C1.18296 0.1737 1.46074 0.0811081 1.83111 0.0811081H19.6089C19.9793 0.0811081 20.257 0.1737 20.4422 0.358887C20.6274 0.544071 20.72 0.729256 20.72 0.914442V12.8589C20.72 13.2293 20.6274 13.507 20.4422 13.6922C20.257 13.8774 19.9793 13.97 19.6089 13.97H16.8311V15.0811H18.7756C18.9607 15.0811 19.1459 15.1737 19.3311 15.3589C19.5163 15.5441 19.6089 15.7756 19.6089 16.0533C19.6089 16.3311 19.5163 16.5626 19.3311 16.7478C19.1459 16.933 18.9607 17.0256 18.7756 17.0256H16.8311C16.8311 17.2107 16.6922 17.3959 16.4144 17.5811C16.1367 17.7663 15.9052 17.8589 15.72 17.8589H5.72C5.53482 17.8589 5.30333 17.7663 5.02556 17.5811C4.74778 17.3959 4.60889 17.2107 4.60889 17.0256H2.66445C2.47926 17.0256 2.29408 16.933 2.10889 16.7478C1.9237 16.5626 1.83111 16.3311 1.83111 16.0533C1.83111 15.7756 1.9237 15.5441 2.10889 15.3589C2.29408 15.1737 2.47926 15.0811 2.66445 15.0811H4.60889V13.97ZM4.60889 12.0256V8.97C4.60889 8.78481 4.74778 8.55333 5.02556 8.27555C5.30333 7.99778 5.53482 7.85889 5.72 7.85889H8.77556V5.91444C8.77556 5.72926 8.86815 5.54407 9.05334 5.35889C9.23852 5.1737 9.42371 5.08111 9.60889 5.08111H15.72C15.9052 5.08111 16.1367 5.1737 16.4144 5.35889C16.6922 5.54407 16.8311 5.72926 16.8311 5.91444V12.0256H18.7756V2.02555H2.66445V12.0256H4.60889ZM10.72 15.9144H14.6089V7.02555H10.72V15.9144ZM6.83111 10.0811V15.9144H8.77556V10.0811H6.83111ZM11.8311 13.97H13.7756V15.0811H11.8311V13.97Z" fill="white"/>
</svg>
