<svg width="61" height="60" viewBox="0 0 61 60" fill="none" xmlns="http://www.w3.org/2000/svg">
<path d="M34.5426 15C41.4698 15 47.3882 19.3457 50.0111 25.584C50.4146 25.2334 50.7509 24.8828 51.0873 24.5328C54.7188 20.748 57.4763 16.6121 58.8213 12.8272C60.368 8.5515 60.0316 5.11668 57.8797 2.87395C56.0638 0.981305 52.9028 0 48.8678 0C42.6804 0 33.4666 2.66367 26.4049 10.0231C23.4456 13.1073 22.6388 13.9482 20.2846 18.224L19.9482 18.7848L21.966 20.8877C24.9923 17.2428 29.4984 15 34.5426 15Z" fill="white"/>
<path d="M12.4832 30.9814L11.878 31.5423C11.2053 32.173 10.4654 32.8037 9.59149 33.5049C8.51531 34.3458 7.1032 35.4675 5.42185 37.0095C-1.10182 42.9677 0.579541 50.1871 3.4041 53.5515C4.81668 55.2339 7.03559 56.2152 9.32259 56.2152C11.6091 56.2152 13.7615 55.3038 15.3752 53.5515L22.7734 45.0002C20.6887 42.8274 19.142 40.1636 18.3345 37.0795L12.4832 30.9814Z" fill="white"/>
<path d="M34.5427 22.0093C30.4402 22.0093 26.8757 24.6026 25.2615 28.3174L35.215 37.9201L35.7531 37.5695C36.9634 36.8684 38.2414 36.1678 39.5868 35.3967C41.2682 34.4854 42.9495 33.5744 44.5637 32.5933V32.4529C44.6308 26.7055 40.0573 22.0093 34.5427 22.0093Z" fill="white"/>
<path d="M60.9062 57.5465L46.312 42.3362C48.3967 39.6726 49.6076 36.2382 49.6076 32.5234C49.6076 23.8317 42.815 16.7524 34.4754 16.7524C26.1357 16.7524 19.4104 23.7618 19.4104 32.5234C19.4104 41.2151 26.203 48.2944 34.5426 48.2944C38.1071 48.2944 41.4027 47.033 43.958 44.8597L58.5521 59.9999L60.9062 57.5465ZM22.773 32.5232C22.773 25.7241 28.0188 20.2569 34.5425 20.2569C41.0661 20.2569 46.312 25.7241 46.312 32.5232C46.312 39.3222 41.0661 44.7895 34.5425 44.7895C28.0188 44.7895 22.773 39.2519 22.773 32.5232Z" fill="white"/>
</svg>
