<svg width="61" height="59" viewBox="0 0 61 59" fill="none" xmlns="http://www.w3.org/2000/svg">
<path d="M13.4768 0C6.45071 0 0.709332 6.12269 0.709332 13.6154C0.709332 17.8726 2.56328 21.7042 5.45278 24.2051H2.12793C2.0541 24.201 1.98011 24.201 1.90628 24.2051C1.38119 24.2638 0.895304 24.5286 0.54302 24.9479C0.190736 25.3673 -0.00279311 25.9113 3.04666e-05 26.4744V56.7308C8.68919e-05 57.3326 0.224294 57.9097 0.623341 58.3353C1.02239 58.7608 1.5636 58.9999 2.12793 59H47.5232C48.0876 58.9999 48.6288 58.7608 49.0278 58.3353C49.4269 57.9097 49.6511 57.3326 49.6511 56.7308V51.625C51.9001 54.3659 55.0419 56.241 58.606 56.7071C58.9051 56.7473 59.2088 56.7192 59.4969 56.6248C59.785 56.5304 60.0511 56.3718 60.2774 56.1595C60.5037 55.9472 60.6852 55.686 60.8097 55.3933C60.9343 55.1006 60.9991 54.783 60.9999 54.4615V28.7436C61.0023 28.4202 60.9398 28.0999 60.8166 27.8044C60.6934 27.5088 60.5124 27.2447 60.2857 27.0298C60.059 26.8149 59.7919 26.6542 59.5022 26.5584C59.2125 26.4626 58.907 26.434 58.606 26.4744C55.0424 26.9405 51.9001 28.8339 49.6511 31.5801V26.4744C49.6511 25.8725 49.4269 25.2954 49.0278 24.8698C48.6288 24.4443 48.0876 24.2052 47.5232 24.2051H44.1984C47.0879 21.7042 48.9418 17.8726 48.9418 13.6154C48.9418 6.12269 43.2004 0 36.1744 0C31.2403 0 26.9491 3.02921 24.8256 7.42228C22.7021 3.02921 18.4109 0 13.4768 0ZM13.4768 4.53846C18.2028 4.53846 21.9884 8.57546 21.9884 13.6154C21.9884 18.6553 18.2028 22.6923 13.4768 22.6923C8.75072 22.6923 4.96514 18.6553 4.96514 13.6154C4.96514 8.57546 8.75072 4.53846 13.4768 4.53846ZM36.1744 4.53846C40.9004 4.53846 44.686 8.57546 44.686 13.6154C44.686 18.6553 40.9004 22.6923 36.1744 22.6923C31.4484 22.6923 27.6628 18.6553 27.6628 13.6154C27.6628 8.57546 31.4484 4.53846 36.1744 4.53846ZM24.8256 19.8085C25.6435 21.5021 26.7739 23.0137 28.1504 24.2051H21.5007C22.8773 23.0137 24.0077 21.5021 24.8256 19.8085ZM4.25584 28.7436H45.3953V54.4615H4.25584V28.7436ZM56.7441 31.7929V51.3886C53.042 49.8275 50.3604 46.1378 50.3604 41.6026C50.3604 37.0673 53.042 33.3539 56.7441 31.7929Z" fill="white"/>
</svg>
