<svg xmlns="http://www.w3.org/2000/svg" xmlns:xlink="http://www.w3.org/1999/xlink" version="1.1" width="45" height="50" viewBox="0 0 45 50" xml:space="preserve">

<g transform="matrix(0.087489872 0 0 0.0874898698 22.4658535886 25.0351148035)" id="qcmrCvbFeuNspMPpap9C5"  >
<path stroke="none" fill="white" transform=" translate(-349.9976124582, -279.9981882718)" d="M 156.5 0 C 65.652 253.7 80.109 478.53 215.695 554.63 C 330.715 586.622 491.815 478.525 601.065 150.71999999999997 C 310.40500000000003 195.89999999999998 156.49500000000006 -2.842170943040401e-14 156.49500000000006 -2.842170943040401e-14 z M 226.988 525.82 C 88.298 437.73400000000004 127.898 199.31000000000006 170.117 59.10000000000002 C 263.44899999999996 145.35000000000002 418.597 201.99 554.497 189.34000000000003 C 510.09499999999997 316.5 386.37699999999995 557.84 226.98699999999997 525.82 z M 168.988 249.00000000000006 C 186.886 228.66800000000006 210.972 219.01200000000006 232.39 226.27000000000007 C 253.339 233.37160000000006 267.019 255.18800000000007 268.90999999999997 282.86000000000007 C 268.90999999999997 282.86000000000007 250.01899999999998 254.13700000000006 225.67199999999997 246.10200000000006 C 202.91799999999998 238.39110000000005 168.98799999999997 249.00040000000007 168.98799999999997 249.00040000000007 z M 381.198 460.20000000000005 C 381.198 460.20000000000005 323.089 398.153 275.09799999999996 385.98900000000003 C 221.48499999999996 367.81300000000005 145.73799999999994 380.3992 145.73799999999994 380.3992 C 182.87899999999993 347.3132 236.24599999999992 334.55920000000003 286.71799999999996 351.6652 C 324.33899999999994 364.41920000000005 369.39399999999995 398.73120000000006 381.191 460.20520000000005 z M 439.88599999999997 340.81000000000006 C 439.88599999999997 340.81000000000006 413.97599999999994 305.88800000000003 396.64799999999997 304.0400000000001 C 373.89399999999995 296.3291000000001 339.96399999999994 306.95020000000005 339.96399999999994 306.95020000000005 C 357.85499999999996 286.61820000000006 381.9479999999999 276.95020000000005 403.36199999999997 284.2162000000001 C 426.54999999999995 292.07560000000007 438.22099999999995 316.4702000000001 439.885 340.81020000000007 z" stroke-linecap="round" />
</g>
</svg>