<svg xmlns="http://www.w3.org/2000/svg" xmlns:xlink="http://www.w3.org/1999/xlink" version="1.1" width="45" height="50" viewBox="0 0 45 50" xml:space="preserve">
<g transform="matrix(0.0715070317 0 0 0.0715070317 22.2022652067 31.233710403)" id="Df1fT2RCqztEwqepwSX8t"  >
<g>
		<g transform="matrix(1.3333333333 0 0 1.3333333333 -145.2366666667 -106.9402666667)" id="Eae2iuByre7G0ltrKosjW"  >
<path stroke="none" fill="white" transform=" translate(-241.0725, -269.7948)" d="M 216.91 368.71 L 185.465 368.71 L 184.215 363.1436 C 183.63297 360.5069 169.78900000000002 298.3856 169.78900000000002 273.3196 C 169.78900000000002 216.83159999999998 215.75 170.87959999999998 272.23900000000003 170.87959999999998 C 286.16100000000006 170.87959999999998 299.65700000000004 173.62179999999998 312.35600000000005 179.04369999999997 L 306.7662 192.15269999999998 C 295.84020000000004 187.49249999999998 284.21520000000004 185.12929999999997 272.2352 185.12929999999997 C 223.59420000000003 185.12929999999997 184.0362 224.69129999999996 184.0362 273.3173 C 184.0362 292.6723 193.4932 338.5163 196.9112 354.46229999999997 L 216.9032 354.46229999999997 z" stroke-linecap="round" />
</g>
		<g transform="matrix(1.3333333333 0 0 1.3333333333 -127.0626666667 36.563)" id="qUHCh5AByRc9PAwDaE8ES"  >
<path stroke="none" fill="white" transform=" translate(-254.703, -377.42225)" d="M 302.91 493.34 L 228.49200000000002 493.34 L 206.496 262.86 L 220.68 261.5045 L 241.453 479.08450000000005 L 302.91 479.08450000000005 z" stroke-linecap="round" />
</g>
		<g transform="matrix(1.3333333333 0 0 1.3333333333 -105.3066663965 -335.4126666667)" id="dUX17PYpE9QqgKiWirUlP"  >
<path stroke="none" fill="white" transform=" translate(-271.0200002026, -98.4405)" d="M 271.02 161.39 C 236.30499999999998 161.39 208.075 133.14399999999998 208.075 98.42899999999999 C 208.075 63.72999999999999 236.30499999999998 35.490999999999985 271.02 35.490999999999985 C 305.735 35.490999999999985 333.965 63.73299999999999 333.965 98.42899999999999 C 333.96890599999995 133.144 305.738 161.39 271.02 161.39 z M 271.02 49.73999999999998 C 244.16799999999998 49.73999999999998 222.32899999999998 71.57999999999998 222.32899999999998 98.42799999999998 C 222.32899999999998 125.29099999999998 244.16899999999998 147.12699999999998 271.02 147.12699999999998 C 297.87199999999996 147.12699999999998 319.72299999999996 125.29099999999998 319.72299999999996 98.42799999999998 C 319.72690599999993 71.57999999999998 297.871 49.73999999999998 271.02 49.73999999999998 z" stroke-linecap="round" />
</g>
		<g transform="matrix(1.3333333333 0 0 1.3333333333 145.8136 -106.9445333333)" id="YYGYr4B1mye3Jee163v0Y"  >
<path stroke="none" fill="white" transform=" translate(-459.3602, -269.7916)" d="M 517.44 368.71 L 495.5450000000001 368.71 L 495.5450000000001 354.464 L 505.50590000000005 354.464 C 508.33790000000005 338.245 515.9509 292.679 515.9509 273.319 C 515.9509 224.69400000000002 476.3919000000001 185.13100000000003 427.76290000000006 185.13100000000003 C 416.0479000000001 185.13100000000003 404.6849000000001 187.38880000000003 393.98990000000003 191.82240000000002 L 388.51720000000006 178.65840000000003 C 400.9662000000001 173.49430000000004 414.1652000000001 170.87320000000003 427.76320000000004 170.87320000000003 C 484.23220000000003 170.87320000000003 530.2032 216.82620000000003 530.2032 273.31320000000005 C 530.2032 298.22720000000004 518.9802000000001 360.23120000000006 518.5002000000001 362.84420000000006 z" stroke-linecap="round" />
</g>
		<g transform="matrix(1.3333333333 0 0 1.3333333333 159.748 -12.6787333333)" id="-SrM5xvswHaZ_iFrkvLR_"  >
<path stroke="none" fill="white" transform=" translate(-469.811, -340.49095)" d="M 508.77 419.71 L 430.852 419.71 L 430.852 405.46 L 492.55899999999997 405.46 L 474.14099999999996 263.09999999999997 L 488.27 261.27189999999996 z" stroke-linecap="round" />
</g>
		<g transform="matrix(1.3333333333 0 0 1.3333333333 105.3066666667 -335.4126666667)" id="bss9W-E05_SOdAaUAqybB"  >
<path stroke="none" fill="white" transform=" translate(-428.98, -98.4405)" d="M 428.98 161.39 C 394.265 161.39 366.035 133.14399999999998 366.035 98.42899999999999 C 366.035 63.72999999999999 394.26500000000004 35.490999999999985 428.98 35.490999999999985 C 463.683 35.490999999999985 491.925 63.73299999999999 491.925 98.42899999999999 C 491.925 133.144 463.687 161.39 428.98 161.39 z M 428.98 49.73999999999998 C 402.117 49.73999999999998 380.289 71.57999999999998 380.289 98.42799999999998 C 380.289 125.29099999999998 402.11699999999996 147.12699999999998 428.98 147.12699999999998 C 455.832 147.12699999999998 477.67100000000005 125.29099999999998 477.67100000000005 98.42799999999998 C 477.674906 71.57999999999998 455.82700000000006 49.73999999999998 428.98 49.73999999999998 z" stroke-linecap="round" />
</g>
		<g transform="matrix(1.3333333333 0 0 1.3333333333 0.7013333333 -182.512)" id="1DY2zgBsibNLEBnfG4w20"  >
<path stroke="none" fill="white" transform=" translate(-350.526, -213.116)" d="M 350.52 269.6 C 319.37899999999996 269.6 294.03999999999996 244.26000000000002 294.03999999999996 213.12000000000003 C 294.03999999999996 181.97200000000004 319.37999999999994 156.63200000000003 350.52 156.63200000000003 C 381.68 156.63200000000003 407.012 181.97200000000004 407.012 213.12000000000003 C 407.012 244.25300000000004 381.676 269.6 350.52 269.6 z M 350.52 170.88100000000003 C 327.24699999999996 170.88100000000003 308.28999999999996 189.83800000000002 308.28999999999996 213.11500000000004 C 308.28999999999996 236.40000000000003 327.24699999999996 255.33800000000002 350.52 255.33800000000002 C 373.817 255.33800000000002 392.762 236.40000000000003 392.762 213.115 C 392.762 189.834 373.817 170.881 350.52 170.881 z" stroke-linecap="round" />
</g>
		<g transform="matrix(1.3333333333 0 0 1.3333333333 0.7052 15.4372666667)" id="tqnK651j2Z9VYDjo-LEpO"  >
<path stroke="none" fill="white" transform=" translate(-350.5289, -361.57795)" d="M 429.57 445.83 L 400.804 445.83 L 400.804 431.584 L 418.765 431.584 C 422.0931 419.252 430.054 387.869 430.054 371.092 C 430.054 327.248 394.366 291.58799999999997 350.519 291.58799999999997 C 306.671 291.58799999999997 271.003 327.24799999999993 271.003 371.092 C 271.003 387.86899999999997 278.9561 419.24 282.28 431.584 L 300.229 431.584 L 300.229 445.83 L 271.46299999999997 445.83 L 269.98639999999995 440.66589999999997 C 269.44733999999994 438.77919999999995 256.76339999999993 394.1699 256.76339999999993 371.09189999999995 C 256.76339999999993 319.39689999999996 298.81839999999994 277.32589999999993 350.51739999999995 277.32589999999993 C 402.22839999999997 277.32589999999993 444.29439999999994 319.39989999999995 444.29439999999994 371.09189999999995 C 444.29439999999994 394.1698999999999 431.5953999999999 438.7828999999999 431.0523999999999 440.66589999999997 z" stroke-linecap="round" />
</g>
		<g transform="matrix(1.3333333333 0 0 1.3333333333 0.7001333333 123.4601066667)" id="2r-UMzssUc6GPr5td3stZ"  >
<path stroke="none" fill="white" transform=" translate(-350.5251, -442.59508)" d="M 404.18 524.51 L 357.418 524.51 L 352.4571 450.139 L 348.5821 450.139 L 343.61330000000004 524.51 L 296.8713 524.51 L 290.1018 361.27 L 304.3398 360.68016 L 310.5312 510.26016000000004 L 330.2932 510.26016000000004 L 335.2463 435.88116 L 365.7853 435.88116 L 370.7423 510.26016000000004 L 390.5153 510.26016000000004 L 396.71840000000003 360.68016 L 410.94840000000005 361.27 z" stroke-linecap="round" />
</g>
		<g transform="matrix(1.3333333333 0 0 1.3333333333 118.4818666667 140.7446666667)" id="HCidHjYKKuaH9nSV5jk2n"  >
<path stroke="none" fill="white" transform=" translate(-438.8614, -455.5585)" d="M 472.23 493.34 L 397.867 493.34 L 397.867 479.082 L 459.367 479.082 L 465.6678 417.777 L 479.8558 419.234 z" stroke-linecap="round" />
</g>
</g>
</g>
</svg>