<svg width="61" height="60" viewBox="0 0 61 60" fill="none" xmlns="http://www.w3.org/2000/svg">
<path d="M6.94011 36.3778C5.67769 36.3644 4.47732 35.8504 3.62713 34.9581C2.77648 34.0653 2.35248 32.8753 2.45572 31.6719C2.55889 30.4685 3.18067 29.3603 4.1719 28.6128C6.34045 26.9892 9.18249 24.5536 10.4743 22.2153C12.0432 19.3651 16.5645 13.3912 20.9844 11.8646H20.984C19.9396 10.6203 19.2985 9.1109 19.1385 7.52278C18.9344 5.35513 18.5767 3.20293 18.068 1.08139C17.9914 0.763842 18.1036 0.431647 18.3609 0.217507C18.6177 0.00336753 18.9768 -0.0582469 19.2953 0.057658C19.7292 0.216647 29.9992 4.06381 29.4455 12.535C29.4126 13.0223 28.9724 13.3915 28.4628 13.3601C27.9532 13.3282 27.5671 12.9077 27.6 12.4204C27.969 7.12589 22.9863 3.81685 20.2825 2.44028H20.283C20.6308 4.08664 20.8741 5.75154 21.012 7.4258C21.1413 9.71114 23.3557 11.7319 23.3742 11.7586H23.3737C23.6405 11.9973 23.7346 12.3639 23.6139 12.694C23.4904 13.0227 23.1755 13.2515 22.811 13.2761C19.12 13.532 14.0081 19.6736 12.1626 23.0356C10.7231 25.6828 7.67819 28.2684 5.37134 29.9979C4.76624 30.4529 4.39318 31.1337 4.34723 31.8687C4.29091 32.6025 4.57025 33.3234 5.11272 33.8451C5.4565 34.1795 5.88903 34.4177 6.36395 34.5345C6.83884 34.6508 7.33761 34.6414 7.80758 34.5069C10.314 33.7908 12.7781 32.9455 15.1895 31.9747C17.7639 30.9157 19.8677 31.1453 22.11 31.3922C24.8324 31.8425 27.6294 31.6236 30.2394 30.7567C36.1913 28.7536 33.1274 19.2853 33.1 19.1618L33.0995 19.1622C33.0009 18.9334 33.0067 18.6758 33.1158 18.4517C33.2252 18.2277 33.4275 18.0575 33.6744 17.9829C33.9209 17.9084 34.189 17.9364 34.4129 18.0601C34.6373 18.1833 34.7968 18.391 34.8531 18.6327C35.0099 19.0825 38.4701 29.8481 30.8485 32.4248H30.8481C27.9749 33.3783 24.8966 33.6239 21.8977 33.1396C19.8306 32.919 18.0406 32.7247 15.9089 33.5985C13.4101 34.5972 10.8528 35.4576 8.25042 36.175C7.82599 36.3025 7.3849 36.371 6.94024 36.3779L6.94011 36.3778Z" fill="white"/>
<path d="M13.0579 20.759C12.7438 20.7586 12.4519 20.6056 12.2825 20.3531L0.637489 3.17255C0.393736 2.81665 0.450058 2.34572 0.770849 2.05189C1.0921 1.7576 1.5868 1.72443 1.94769 1.97261L18.88 13.6293C19.2909 13.9128 19.3855 14.4604 19.0922 14.8555C18.9493 15.0468 18.7326 15.1761 18.4902 15.214C18.2478 15.2523 17.9996 15.1963 17.8 15.0584L4.85392 6.17265L13.8691 19.4088C14.0561 19.6807 14.0718 20.0284 13.9096 20.3145C13.7474 20.6006 13.4343 20.7781 13.0941 20.7764L13.0579 20.759Z" fill="white"/>
<path d="M58.9272 53.823H58.8164L54.4703 53.2934C53.9747 53.2335 53.6188 52.8074 53.6674 52.3317C53.6674 52.1641 55.3376 35.9365 48.0017 23.0533H48.0021C45.7926 19.2725 42.7716 15.9811 39.1378 13.3958C35.5041 10.8102 31.3392 8.98938 26.9173 8.05226C26.5438 7.99151 26.2478 7.71834 26.1698 7.36416C26.0883 7.00654 26.246 6.63773 26.5663 6.43738C28.7857 5.04438 31.3751 4.28561 34.0298 4.2512C36.684 4.21716 39.2941 4.90827 41.5518 6.24347C46.3255 9.02472 50.4048 12.7707 53.5048 17.2185C56.6051 21.6663 58.651 26.7087 59.499 31.9923C60.6893 38.9688 60.8042 46.0745 59.8401 53.0819C59.7675 53.5102 59.3805 53.8243 58.9268 53.823L58.9272 53.823ZM55.5778 51.6522L58.1338 51.9521C58.9079 45.4034 58.7556 38.7843 57.6814 32.2743C56.8664 27.2362 54.9096 22.4295 51.9481 18.191C48.9866 13.9517 45.092 10.3833 40.5368 7.73474C37.2708 5.80226 33.2365 5.47444 29.6762 6.85233C38.1841 9.24885 45.3535 14.769 49.6166 22.2063C56.3154 34.0042 55.8451 48.0345 55.5775 51.6524L55.5778 51.6522Z" fill="white"/>
<path d="M23.6694 60.0001C21.7437 60.0018 19.8212 59.854 17.9207 59.5589C17.5183 59.4912 17.2106 59.1789 17.1638 58.7911C16.4073 52.279 19.5999 48.6696 22.7002 45.1843C25.8005 41.6985 28.7719 38.3456 28.412 31.9481C28.3989 31.7141 28.4831 31.4845 28.6467 31.31C28.8103 31.1354 29.0396 31.0299 29.2842 31.017C29.7938 30.9903 30.2295 31.3638 30.2574 31.8511C30.6544 38.9104 27.1756 42.846 24.1029 46.3051C21.2517 49.5171 18.5664 52.5612 18.9354 57.9C21.2976 58.1998 29.0856 58.9323 33.2563 55.9498C38.7004 52.0143 53.9165 51.5378 54.5624 51.5378H54.5628C55.0724 51.5231 55.4977 51.9061 55.5131 52.3935C55.5284 52.8808 55.1278 53.2879 54.6183 53.3026C54.4705 53.3112 39.3469 53.8231 34.3734 57.3528C31.4479 59.4971 27.1387 60 23.6695 60L23.6694 60.0001Z" fill="white"/>
<path d="M21.5563 24.1827C20.7511 24.1827 19.9789 23.8768 19.4094 23.3322C18.8404 22.788 18.5205 22.0495 18.5205 21.2796C18.5205 20.5096 18.8404 19.7711 19.4094 19.2266C19.9789 18.6824 20.7512 18.3765 21.5563 18.3765C22.3614 18.3765 23.1337 18.6824 23.7027 19.2266C24.2722 19.7712 24.5921 20.5097 24.5921 21.2796C24.5943 22.05 24.2753 22.7897 23.7054 23.3349C23.1359 23.8799 22.3623 24.1849 21.5563 24.1827ZM21.5563 20.1498C21.0737 20.1498 20.6394 20.4281 20.4556 20.8547C20.2717 21.2812 20.3754 21.7716 20.7178 22.0965C21.0602 22.4213 21.5739 22.5165 22.0181 22.3373C22.4628 22.1585 22.7502 21.7406 22.7466 21.2795C22.7466 20.9784 22.6209 20.6897 22.3974 20.4777C22.1739 20.2657 21.8712 20.1476 21.5563 20.1498Z" fill="white"/>
</svg>
