<svg xmlns="http://www.w3.org/2000/svg" xmlns:xlink="http://www.w3.org/1999/xlink" version="1.1" width="45" height="50" viewBox="0 0 45 50" xml:space="preserve">
<g transform="matrix(0.0642857143 0 0 0.0642857143 22.5 31.2370123569)" id="rEerDaHWnLDuqfLEXKNig"  >
<g>
		<g transform="matrix(1.3333333333 0 0 1.3333333333 0.0071905412 -93.3474586155)" id="yWdG5mh6ZReJUXx_cVwjA"  >
<path stroke="none" fill="white" transform=" translate(-350.0053929059, -279.9894060384)" d="M 96.25 393.75 C 125.203 393.75 148.75 370.203 148.75 341.25 L 148.75 288.75 C 148.75 267.426 164.105 249.672 184.32 245.824 C 183.98406 248.42950000000002 183.74969 251.05450000000002 183.74969 253.74980000000002 L 183.74969 349.99980000000005 C 183.74969 364.47280000000006 171.97269 376.24980000000005 157.49969 376.24980000000005 C 152.65989 376.24980000000005 148.74969 380.17170000000004 148.74969 384.99980000000005 L 148.74969 498.74980000000005 C 148.74969 499.46855000000005 148.83562799999999 500.17560000000003 149.01140999999998 500.87480000000005 L 157.76140999999998 535.8748 C 158.74187999999998 539.7693 162.23411 542.4998 166.24971 542.4998 L 209.99971 542.4998 C 214.83951 542.4998 218.74971 538.5779 218.74971 533.7498 L 218.74971 516.2498 C 218.74971 514.8943 218.4333 513.5467000000001 217.83174 512.3396 L 209.99974 496.6836 L 209.99974 428.3556 C 219.19504 427.52357 227.97974 425.32829999999996 236.24974 422.0822 L 236.24974 498.7502 C 236.24974 499.46895 236.335678 500.176 236.51146 500.8752 L 245.26146 535.8752 C 246.24193 539.7697 249.73416 542.5002 253.74976 542.5002 L 297.49976000000004 542.5002 C 302.33956000000006 542.5002 306.24976000000004 538.5782999999999 306.24976000000004 533.7502 L 306.24976000000004 516.2502 C 306.24976000000004 514.8947 305.93335 513.5471 305.33179 512.3399999999999 L 297.49979 496.6839999999999 L 297.49979 376.2539999999999 L 419.99979 376.2539999999999 L 419.99979 498.7539999999999 C 419.99979 499.4727499999999 420.085728 500.1797999999999 420.26151000000004 500.8789999999999 L 429.01151000000004 535.8789999999999 C 429.99198000000007 539.7734999999999 433.48421 542.5039999999999 437.49981 542.5039999999999 L 481.24981 542.5039999999999 C 486.08961000000005 542.5039999999999 489.99981 538.5820999999999 489.99981 533.7539999999999 L 489.99981 516.2539999999999 C 489.99981 514.8984999999999 489.6834 513.5509 489.08184 512.3437999999999 L 481.24984 496.68779999999987 L 481.24984 369.82779999999985 L 483.43734 365.99579999999986 L 523.32834 412.53879999999987 L 509.05834000000004 441.0737999999999 L 501.31614 448.8159999999999 C 499.66774000000004 450.4487999999999 498.74974000000003 452.6792999999999 498.74974000000003 454.99959999999993 L 498.74974000000003 498.74959999999993 C 498.74974000000003 503.57769999999994 502.65994 507.49959999999993 507.49974000000003 507.49959999999993 L 524.99974 507.49959999999993 C 526.35524 507.49959999999993 527.7028399999999 507.1831899999999 528.90994 506.5816299999999 L 546.40994 497.8316299999999 C 547.89824 497.0894399999999 549.14044 495.9332299999999 549.99584 494.5074299999999 L 582.4218400000001 440.46042999999986 C 596.4298400000001 417.11642999999987 593.53484 387.89042999999987 575.23044 367.74942999999985 L 516.25044 302.86242999999985 L 516.25044 186.20242999999985 L 575.3834400000001 200.97942999999984 C 579.11004 201.90520999999984 583.02404 200.28020999999984 585.0084400000001 196.99112999999983 L 611.2584400000001 153.24112999999983 C 613.3248400000001 149.79192999999984 612.7818400000001 145.39342999999982 609.9459400000001 142.55012999999983 L 570.85994 103.46412999999983 L 611.4069400000001 30.480129999999832 C 613.3053400000001 27.05822999999983 612.7038400000001 22.80822999999983 609.94604 20.04212999999983 C 607.1804400000001 17.27652999999983 602.9187400000001 16.67492999999983 599.5160400000001 18.58122999999983 L 522.73504 61.245229999999836 L 510.57104000000004 61.245229999999836 C 502.33664000000005 54.31552999999984 492.14504000000005 50.358229999999836 481.25104000000005 50.358229999999836 C 469.00104000000005 50.358229999999836 457.48504 55.127729999999836 448.83304000000004 63.788229999999835 L 320.13304000000005 192.49822999999984 L 183.75304000000006 192.49822999999984 C 130.68304000000006 192.49822999999984 87.50304000000006 235.67822999999984 87.50304000000006 288.7482299999998 L 87.50304000000006 384.9982299999998 C 87.50304000000006 389.8263299999998 91.41324000000006 393.7482299999998 96.25304000000006 393.7482299999998 z M 105 288.75 C 105 287.91016 105.097656 287.0977 105.12109 286.2656 L 132.37909 277.1836 C 131.66034 280.92580000000004 131.25019 284.7969 131.25019 288.7496 L 131.25019 294.3316 L 105.00019 325.8316 z M 105 375.148 L 105 353.175 L 131.25 321.675 L 131.25 341.249 C 131.25 357.52200000000005 120.086 371.245 105 375.14700000000005 z M 288.75 524.998 L 260.582 524.998 L 253.75 497.6700000000001 L 253.75 412.92800000000005 C 264.059 406.17410000000007 272.938 397.53700000000003 280 387.45500000000004 L 280 498.74500000000006 C 280 500.10050000000007 280.31641 501.44810000000007 280.91797 502.65520000000004 L 288.74997 518.3112 z M 567.4300000000001 431.451 L 536.3050000000001 483.31 L 522.9340000000001 489.9975 L 516.2504000000001 489.9975 L 516.2504000000001 458.6185 L 522.4379000000001 452.431 C 523.1019600000001 451.76694 523.6645000000001 450.99739999999997 524.0824000000001 450.1576 L 541.5824000000001 415.1576 C 543.1566000000001 412.0092 542.6918000000002 408.2279 540.3910000000001 405.5482 L 492.66100000000006 349.8532 L 509.13000000000005 321.0292 L 562.2860000000001 379.5062 C 575.364 393.9042 577.423 414.77619999999996 567.4305 431.4512 z M 539.3870000000001 72.01100000000002 L 542.5198 70.26880000000003 L 566.0118 76.13990000000003 L 557.9806 90.60490000000003 z M 574.8130000000001 60.312000000000026 L 564.9107000000001 57.83540000000003 L 581.2307000000002 48.76900000000003 z M 493.9810000000001 71.14400000000003 L 477.62900000000013 87.49900000000004 L 449.8750000000001 87.49900000000004 L 461.2070000000001 76.16700000000003 C 469.7695000000001 67.60060000000003 483.3750000000001 66.01100000000002 493.98000000000013 71.14360000000003 z M 407.62900000000013 157.49900000000002 L 379.8750000000001 157.49900000000002 L 397.3750000000001 139.99900000000002 L 425.12900000000013 139.99900000000002 z M 442.62900000000013 122.49900000000002 L 414.8750000000001 122.49900000000002 L 432.3750000000001 104.99900000000002 L 460.12900000000013 104.99900000000002 z M 362.37100000000015 174.99900000000002 L 390.12500000000017 174.99900000000002 L 372.62500000000017 192.49900000000002 L 344.87100000000015 192.49900000000002 z M 376.25000000000017 209.99900000000002 C 378.5781000000002 209.99900000000002 380.80080000000015 209.08103000000003 382.43750000000017 207.43650000000002 L 511.1175000000002 78.74650000000003 L 521.3715000000002 78.74650000000003 L 592.7265000000002 150.10150000000004 L 573.3205000000003 182.43350000000004 L 509.6135000000003 166.50750000000005 C 507.02370000000025 165.85906000000006 504.24240000000026 166.44500000000005 502.1135000000003 168.10130000000004 C 499.9885000000003 169.75360000000003 498.74630000000025 172.30050000000003 498.74630000000025 174.99580000000003 L 498.74630000000025 303.9158 L 464.90230000000025 363.1538 C 464.14839000000023 364.47409999999996 463.74610000000024 365.9702 463.74610000000024 367.4936 L 463.74610000000024 498.7436 C 463.74610000000024 500.0991 464.06251000000026 501.4467 464.66407000000027 502.6538 L 472.49607000000026 518.3098 L 472.49607000000026 524.9934 L 444.32807000000025 524.9934 L 437.49607000000026 497.6654 L 437.49607000000026 367.4954 C 437.49607000000026 362.6673 433.5858700000003 358.7454 428.74607000000026 358.7454 L 293.8560700000003 358.7454 C 296.2271700000003 350.39770000000004 297.4966700000003 341.5974 297.4966700000003 332.4954 L 297.4966700000003 323.7454 L 279.9966700000003 323.7454 L 279.9966700000003 332.4954 C 279.9966700000003 362.9724 262.5586700000003 389.4134 237.15667000000028 402.4954 L 236.24651000000028 402.4954 L 236.24651000000028 402.9329 C 225.68451000000027 408.21020000000004 213.82851000000028 411.2454 201.24651000000028 411.2454 C 196.4067100000003 411.2454 192.49651000000028 415.1673 192.49651000000028 419.9954 L 192.49651000000028 498.7454 C 192.49651000000028 500.1009 192.81292000000028 501.4485 193.41448000000028 502.6556 L 201.24648000000028 518.3116 L 201.24648000000028 524.9952 L 173.07848000000027 524.9952 L 166.24648000000028 497.6672 L 166.24648000000028 392.86719999999997 C 186.18748000000028 388.80859999999996 201.24648000000028 371.12519999999995 201.24648000000028 350.00019999999995 L 201.24648000000028 253.75019999999995 C 201.24648000000028 229.62519999999995 220.87148000000028 210.00019999999995 244.99648000000028 210.00019999999995 z M 202.22000000000017 209.99900000000002 C 197.04810000000018 215.05760000000004 192.81380000000016 221.03400000000002 189.68100000000018 227.64000000000001 C 188.0794000000002 227.710313 186.49740000000017 227.82359000000002 184.93100000000018 228.01500000000001 L 184.99350000000018 227.58531000000002 L 142.87250000000017 221.56581000000003 C 154.80250000000018 214.27671000000004 168.76750000000018 209.99981000000002 183.74750000000017 209.99981000000002 z M 124.83300000000017 236.67100000000002 L 154.38000000000017 240.8898 C 149.09480000000016 245.1086 144.54410000000016 250.18280000000001 140.89600000000016 255.89780000000002 L 108.16900000000015 266.7998 C 111.46200000000016 255.49880000000002 117.23150000000015 245.26080000000002 124.83300000000015 236.6708 z" stroke-linecap="round" />
</g>
		<g transform="matrix(1.3333333333 0 0 1.3333333333 245 -303.3333333333)" id="p38rMoR6sqpVA2lec4drq"  >
<path stroke="none" fill="white" transform=" translate(-533.75, -122.5)" d="M 542.5 122.5 C 542.5 127.332 538.582 131.25 533.75 131.25 C 528.918 131.25 525 127.332 525 122.5 C 525 117.668 528.918 113.75 533.75 113.75 C 538.582 113.75 542.5 117.668 542.5 122.5" stroke-linecap="round" />
</g>
</g>
</g>
</svg>