<svg xmlns="http://www.w3.org/2000/svg" xmlns:xlink="http://www.w3.org/1999/xlink" version="1.1" width="45" height="50" viewBox="0 0 45 50" xml:space="preserve">
<g transform="matrix(0.0827067669 0 0 0.0827067669 22.5 25)" id="MpGR4w4VyqDuWgOXiioyU"  >
<path stroke="none" fill="white" transform=" translate(-350, -280)" d="M 350 546 C 496.66999999999996 546 616 426.67 616 280 C 616 133.32999999999998 496.67 14 350 14 C 203.32999999999998 14 84 133.32999999999998 84 280 C 84 426.67 203.32999999999998 546 350 546 z M 418.301 517.504 C 444.42199999999997 494.399 466.231 458.48400000000004 481.024 414.47400000000005 C 503.954 418.5248 525.79 423.6849 546.391 429.86100000000005 C 514.582 471.45500000000004 469.871 502.65000000000003 418.30099999999993 517.5060000000001 z M 557.771 413.644 C 535.439 406.6518 511.65 400.847 486.62299999999993 396.343 C 495.6893999999999 363.839 501.0489999999999 327.636 501.82199999999995 289.413 L 596.935 289.413 C 595.2122999999999 335.065 581.06 377.55400000000003 557.7669999999999 413.653 z M 596.935 270.594 L 501.82599999999996 270.594 C 501.06037999999995 232.367 495.6932 196.16 486.623 163.654 C 511.65 159.154 535.443 153.345 557.775 146.345 C 581.064 182.44299999999998 595.216 224.94299999999998 596.939 270.595 z M 546.3879999999999 130.144 C 525.79 136.31980000000001 503.94999999999993 141.484 481.0209999999999 145.519 C 466.2279999999999 101.51500000000001 444.4159999999999 65.601 418.2869999999999 42.49900000000001 C 469.8649999999999 57.35800000000001 514.5719999999999 88.542 546.387 130.147 z M 359.4079999999999 33.507000000000005 C 402.8809999999999 39.175000000000004 440.6459999999999 83.73400000000001 462.6679999999999 148.54700000000003 C 429.8319999999999 153.38680000000002 395.1289999999999 155.99230000000003 359.4079999999999 156.39860000000002 z M 359.4079999999999 175.217 C 397.0879999999999 174.81075 433.6659999999999 171.9436 468.2679999999999 166.69750000000002 C 477.01019999999994 198.0415 482.2519999999999 233.26350000000002 483.00999999999993 270.6075 L 359.3999999999999 270.6075 z M 359.4079999999999 289.427 L 483.0179999999999 289.427 C 482.2601899999999 326.755 477.0179999999999 361.978 468.2759999999999 393.337 C 433.6739999999999 388.07529999999997 397.0959999999999 385.23539999999997 359.4159999999999 384.8058 z M 359.4079999999999 403.627 C 395.1269999999999 404.02153 429.8339999999999 406.627 462.6579999999999 411.47860000000003 C 440.6419999999999 476.29060000000004 402.8809999999999 520.8486 359.4079999999999 526.5186 z M 340.5919999999999 526.5070000000001 C 297.1189999999999 520.839 259.3539999999999 476.29600000000005 237.33199999999994 411.46700000000004 C 270.16799999999995 406.61930000000007 304.8709999999999 404.01390000000004 340.5919999999999 403.6154 z M 340.5919999999999 384.797 C 302.9119999999999 385.22278 266.33399999999995 388.0704 231.7319999999999 393.32820000000004 C 222.98979999999992 361.97620000000006 217.7479999999999 326.75020000000006 216.9819999999999 289.41820000000007 L 340.5919999999999 289.41820000000007 z M 340.5919999999999 270.607 L 216.9819999999999 270.607 C 217.7437199999999 233.26700000000002 222.98979999999992 198.04800000000003 231.7319999999999 166.69700000000003 C 266.3339999999999 171.94310000000004 302.9199999999999 174.80640000000002 340.5919999999999 175.21650000000002 z M 340.5919999999999 33.517000000000024 L 340.5919999999999 156.41700000000003 C 304.87299999999993 156.01856000000004 270.16599999999994 153.40530000000004 237.33199999999994 148.56540000000004 C 259.3519999999999 83.75340000000004 297.12499999999994 39.185400000000044 340.5919999999999 33.51540000000004 z M 281.70899999999995 42.50530000000003 C 255.57999999999996 65.61030000000002 233.77499999999995 101.52530000000003 218.98199999999994 145.52530000000002 C 196.04799999999994 141.4941 174.21199999999993 136.32610000000003 153.60299999999995 130.15030000000002 C 185.42299999999994 88.54530000000003 230.12999999999994 57.361300000000014 281.703 42.50230000000002 z M 142.22899999999996 146.37530000000004 C 164.56099999999995 153.36750000000004 188.34999999999997 159.18030000000005 213.38099999999997 163.67630000000003 C 204.30679999999998 196.18030000000002 198.94299999999998 232.38730000000004 198.18199999999996 270.6163 L 103.05699999999996 270.6163 C 104.77579999999996 224.96430000000004 118.92799999999995 182.46430000000004 142.22899999999996 146.37630000000001 z M 103.05699999999996 289.42530000000005 L 198.18599999999998 289.42530000000005 C 198.94771999999998 327.6523 204.31099999999998 363.85130000000004 213.385 396.35530000000006 C 188.358 400.85530000000006 164.557 406.67130000000003 142.225 413.6643000000001 C 118.928 377.56630000000007 104.776 335.0703000000001 103.05699999999999 289.4243000000001 z M 218.97699999999998 414.48530000000005 C 233.76599999999996 458.48930000000007 255.57099999999997 494.41130000000004 281.7 517.5153 C 230.118 502.6603 185.415 471.4683 153.6 429.87030000000004 C 174.209 423.69450000000006 196.045 418.53030000000007 218.97899999999998 414.48330000000004 z" stroke-linecap="round" />
</g>
</svg>