<svg width="60" height="83" viewBox="0 0 60 83" fill="none" xmlns="http://www.w3.org/2000/svg">
<path d="M59.6681 65.0397L53.8036 59.6068C53.271 59.1123 52.8658 58.5119 52.619 57.8523L50.7621 52.8578V52.8572C51.2498 53.1096 51.7995 53.2429 52.3584 53.2441C52.5551 53.2447 52.7511 53.2282 52.9444 53.1946C54.0029 53.0179 54.901 52.3712 55.3465 51.4639L58.6037 44.8071C58.9601 44.0699 59.067 43.2507 58.9112 42.4565C58.7548 41.6618 58.343 40.93 57.73 40.3566L52.7412 35.735L52.7227 35.716L47.3695 30.7606V30.752L42.0256 25.8033L42.0091 25.7862L15.0337 0.808793C14.4735 0.290997 13.7146 0 12.9234 0C12.1328 0 11.374 0.290997 10.8137 0.808793L4.71624 6.45751C4.28005 6.86282 3.99034 7.38368 3.88741 7.94793C3.78447 8.5128 3.87355 9.09295 4.14147 9.60824L0.93375 12.5866C0.335875 13.1423 0 13.8948 0 14.6792C0 15.4641 0.335892 16.2166 0.93375 16.7717L20.5909 34.9821V34.9827C19.6446 35.1844 18.7795 35.6301 18.0953 36.2677C17.1476 37.137 16.6158 38.3212 16.6171 39.5561C16.6171 39.8275 16.6435 40.0983 16.6943 40.3661C15.2927 40.3404 13.9412 40.8497 12.9566 41.7746C11.7022 42.9398 11.2053 44.632 11.65 46.2252C10.3632 46.2704 9.14237 46.7668 8.2357 47.6135C7.329 48.4608 6.80305 49.5954 6.76479 50.7881C6.72718 51.9808 7.1792 53.1423 8.03048 54.0374C7.04986 54.2293 6.15108 54.6817 5.44376 55.3401C4.50274 56.2125 3.97482 57.3954 3.97482 58.6285C3.97482 59.8615 4.50274 61.0445 5.44376 61.9169L26.5926 81.5091V81.5085C26.8078 81.7139 27.104 81.8295 27.4129 81.8289C27.4531 81.8313 27.4927 81.8313 27.533 81.8289C27.8761 81.7952 28.1843 81.6198 28.3717 81.3514L31.3875 77.0245C32.3114 77.5087 34.1829 78.1628 37.2653 77.9537L41.5004 81.8772L41.4998 81.8766C41.7142 82.0752 42.0046 82.1865 42.3075 82.1865C42.6104 82.1865 42.9007 82.0752 43.1145 81.8766C43.56 81.4633 43.56 80.7945 43.1145 80.3806L38.4952 76.1013C38.2537 75.8751 37.9138 75.7626 37.5713 75.7968C34.8718 76.0603 33.3216 75.5535 32.6287 75.232L40.4221 64.0508C40.7197 64.3027 41.0319 64.5509 41.3664 64.7954H41.3671C41.862 65.1573 42.5806 65.0791 42.9713 64.62C43.3626 64.1609 43.2775 63.4957 42.7819 63.1332C36.5974 58.6179 38.2141 52.3579 38.2847 52.0974V52.0981C38.4134 51.6365 38.193 51.1517 37.7462 50.9151C37.2995 50.6779 36.7366 50.7476 36.3723 51.0845C34.4323 52.8678 32.3199 54.4835 30.0623 55.9116C29.4202 56.304 28.5696 56.2276 28.0199 55.7288C27.4708 55.2299 27.3718 54.4431 27.7823 53.8404L29.4136 51.5418V51.5332L33.3731 45.953H33.3737C34.1352 44.8753 35.3482 44.1411 36.7195 43.9271C38.0907 43.7132 39.4957 44.0396 40.5963 44.8264L44.8276 47.8439V47.8445C46.2926 48.8868 47.3939 50.3051 47.9945 51.9232L50.4519 58.5389C50.8123 59.5048 51.4035 60.3827 52.1815 61.1065L58.046 66.5394C58.2605 66.7381 58.5509 66.8493 58.8538 66.8493C59.1566 66.8493 59.447 66.7381 59.6608 66.5394C59.8772 66.3413 59.9993 66.0717 60 65.7899C60.0013 65.5087 59.8812 65.2379 59.6667 65.0386L59.6681 65.0397ZM6.33558 7.95628L12.4331 2.30756C12.5644 2.18591 12.7426 2.11805 12.928 2.11805C13.1135 2.11805 13.2916 2.18591 13.4229 2.30756L39.7345 26.6825L35.3224 32.8739C35.1416 33.1075 35.071 33.3997 35.1277 33.6827C35.1838 33.9658 35.3627 34.2152 35.6213 34.3735C35.8807 34.5319 36.1988 34.5857 36.5016 34.5221C36.8045 34.4591 37.0665 34.2843 37.2275 34.0379L41.3869 28.2009L45.0934 31.6366L40.6767 37.8379C40.5011 38.072 40.4338 38.3618 40.4919 38.6418C40.55 38.9218 40.7275 39.1688 40.9842 39.3259C41.2409 39.483 41.5556 39.5374 41.8566 39.4769C42.1575 39.4157 42.4188 39.2452 42.5818 39.0037L46.7411 33.1667L50.4497 36.6024L46.0336 42.8018C45.705 43.2884 45.8555 43.9285 46.3722 44.2452C46.8895 44.5612 47.5837 44.4383 47.9381 43.9676L52.0974 38.1306L56.1123 41.8488L56.113 41.8482C56.7016 42.3983 56.8639 43.2267 56.5208 43.9334L53.2636 50.5901C53.129 50.8646 52.8578 51.0602 52.5383 51.114C52.2183 51.1678 51.8903 51.0731 51.66 50.8603L17.9087 19.5931L6.33463 8.87224C6.06341 8.61915 6.06341 8.21016 6.33463 7.95646L6.33558 7.95628ZM2.54909 14.083L5.64008 11.2195L15.4832 20.3381L11.7476 23.8019L2.54993 15.2813H2.54927C2.3777 15.1223 2.2807 14.9065 2.2807 14.6822C2.2807 14.4572 2.37771 14.2414 2.54927 14.0831L2.54909 14.083ZM19.7719 37.7176C20.2128 37.3117 20.7902 37.0562 21.4078 36.9944C22.0262 36.9321 22.6491 37.0666 23.1737 37.3753L27.9039 41.7573C27.9956 41.8423 28.1025 41.9119 28.2199 41.9627L31.3927 44.9019L28.2806 49.2888L19.7165 41.355C19.2017 40.88 18.9127 40.2344 18.9147 39.5613C18.9187 38.8644 19.2282 38.1987 19.7719 37.7176ZM14.6281 43.2172C15.1415 42.7428 15.837 42.4763 16.5629 42.4763C17.2881 42.4763 17.9836 42.7428 18.497 43.2172L25.2484 49.4772C25.7638 49.9522 26.0529 50.5978 26.0509 51.2708C26.0443 51.9482 25.7513 52.5962 25.2352 53.0755C24.7185 53.5547 24.0204 53.8274 23.2891 53.8347C22.5579 53.8421 21.8532 53.5835 21.3259 53.1146L14.5725 46.8582C14.0538 46.3709 13.7674 45.7113 13.7773 45.0273C13.7878 44.3426 14.0942 43.6909 14.6281 43.2172ZM9.88337 49.0847V49.0853C10.3954 48.6109 11.0903 48.3444 11.815 48.3444C12.5395 48.3444 13.2344 48.6109 13.7466 49.0853L19.7094 54.6123L21.0028 55.8105C21.5208 56.2971 21.8066 56.9555 21.7967 57.639C21.7868 58.3219 21.4812 58.9729 20.9494 59.4461C20.4281 59.9071 19.7352 60.1638 19.0146 60.1638C18.294 60.1638 17.6017 59.9071 17.0804 59.4461L12.605 55.297L9.8335 52.7295C9.31152 52.2434 9.02314 51.5832 9.03238 50.8979C9.04162 50.212 9.34847 49.5591 9.88365 49.0853L9.88337 49.0847ZM6.26515 58.6331C6.26845 57.9368 6.57729 57.271 7.12104 56.79C7.63445 56.3162 8.32997 56.0509 9.05449 56.0509C9.77907 56.0509 10.4739 56.3162 10.9879 56.79L16.3536 61.7607C17.0551 62.41 17.3283 63.3569 17.0723 64.2439C16.8156 65.131 16.0672 65.8243 15.1098 66.0614C14.1522 66.2992 13.13 66.0455 12.4293 65.3962L7.07085 60.4322C6.55283 59.9566 6.26317 59.3086 6.26515 58.6331ZM31.3542 57.6586V57.6592C32.8905 56.686 34.364 55.6308 35.7683 54.4993C35.796 57.394 36.8697 60.1969 38.8171 62.4606L27.2187 79.0904L15.3933 68.1353C16.37 67.9428 17.2655 67.491 17.9689 66.8344C18.5998 66.2494 19.0505 65.5195 19.2755 64.7192C19.5005 63.9196 19.4913 63.0784 19.2498 62.2831C20.8672 62.2036 22.348 61.4162 23.2375 60.1617C24.1263 58.9073 24.3184 57.3355 23.7542 55.9289C24.3105 55.8757 24.8536 55.7381 25.3617 55.5217C25.5854 56.3403 26.1074 57.0623 26.8398 57.5655C27.4885 58.0142 28.2718 58.2648 29.0809 58.2813C29.89 58.2984 30.6845 58.0808 31.3543 57.6596L31.3542 57.6586ZM36.343 41.8427V41.8433C35.0773 42.0463 33.8921 42.5537 32.9062 43.3154L25.2547 36.227C25.062 36.0497 24.8555 35.8865 24.6357 35.7392L13.3646 25.2976L17.1009 21.8382L38.6856 41.8374C37.9109 41.7237 37.1217 41.7261 36.3482 41.8441L36.343 41.8427Z" fill="white"/>
</svg>
