<svg xmlns="http://www.w3.org/2000/svg" xmlns:xlink="http://www.w3.org/1999/xlink" version="1.1" width="45" height="50" viewBox="0 0 45 50" xml:space="preserve">
<g transform="matrix(0.0971102005 0 0 0.0971101934 22.4992106936 24.9988329836)" id="tUcLD0oUCPgG9P9z7vCz4"  >
<path stroke="none" fill="white" transform=" translate(-349.9645769003, -279.9663176777)" d="M 518.14 426.56 L 484.913 393.322 C 481.8935 390.2986 479.5966 386.6306 478.1982 382.592 L 467.67519999999996 352.03299999999996 C 470.44469999999995 353.58379999999994 473.5619 354.4002 476.7338 354.40409999999997 C 477.851 354.40409999999997 478.96819999999997 354.306444 480.06969999999995 354.11112999999995 C 486.06969999999995 352.99782999999996 491.14369999999997 349.00562999999994 493.63969999999995 343.43512999999996 L 512.1007 302.71612999999996 L 512.104607 302.71612999999996 C 514.135807 298.20442999999995 514.7452069999999 293.18492999999995 513.862407 288.31812999999994 C 512.979597 283.4509299999999 510.63580699999994 278.9665299999999 507.14760699999994 275.45912999999996 L 478.84260699999993 247.18612999999996 C 478.81135699999993 247.14316099999996 478.77620099999996 247.10800499999996 478.73322699999994 247.07674999999998 L 448.4362269999999 216.79174999999998 L 418.1632269999999 186.50674999999998 L 418.0655709999999 186.40909399999998 L 265.2055709999999 33.54909399999997 C 262.0336709999999 30.377193999999967 257.73287099999993 28.59599399999997 253.2485709999999 28.59599399999997 C 248.7602709999999 28.59599399999997 244.45947099999992 30.377193999999967 241.2875709999999 33.54909399999997 L 206.7135709999999 68.11909399999996 C 204.2369709999999 70.59959399999997 202.59247099999988 73.79099399999996 202.00267099999988 77.24409399999996 C 201.41673099999988 80.70109399999996 201.91282799999988 84.25579399999997 203.43237099999988 87.41609399999996 L 185.2443709999999 105.61509399999996 C 181.85377099999988 109.01349399999995 179.95137099999988 113.61509399999996 179.95137099999988 118.41209399999995 C 179.95137099999988 123.20909399999995 181.85367099999988 127.81049399999995 185.2443709999999 131.20909399999996 L 296.6343709999999 242.59909399999998 C 291.26717099999985 243.829594 286.3573709999999 246.55609399999997 282.4823709999999 250.462394 C 277.13077099999987 255.78659399999998 274.13077099999987 263.028394 274.1464709999999 270.57539399999996 C 274.1464709999999 272.239494 274.2949109999999 273.89569399999993 274.5839709999999 275.53239399999995 C 266.6230709999999 275.348804 258.9359709999999 278.45039399999996 253.3339709999999 284.106594 C 246.2011709999999 291.243294 243.3808709999999 301.622594 245.9277709999999 311.38359399999996 C 238.6308709999999 311.65312399999993 231.7087709999999 314.68439399999994 226.5647709999999 319.86799399999995 C 221.4241709999999 325.047694 218.44367099999988 331.99299399999995 218.22887099999988 339.29399399999994 C 218.0179309999999 346.59089399999993 220.58827099999988 353.6959939999999 225.42027099999987 359.16899399999994 C 219.86947099999986 360.34869399999997 214.78727099999986 363.12209399999995 210.78727099999986 367.14559399999996 C 205.44747099999987 372.47759399999995 202.44347099999987 379.71559399999995 202.44347099999987 387.262594 C 202.44347099999987 394.809494 205.44737099999986 402.047594 210.78727099999986 407.38359399999996 L 241.18227099999987 437.78959399999997 L 330.6822709999999 527.2815939999999 L 330.6822709999999 527.2776879999999 C 331.8970709999999 528.4885879999999 333.5416709999999 529.1721879999999 335.2564709999999 529.1721879999999 C 335.4830309999999 529.1878129999999 335.7135009999999 529.1878129999999 335.9439709999999 529.1721879999999 C 337.8892709999999 528.9651579999999 339.6353709999999 527.8869879999999 340.69007099999993 526.2385879999999 L 357.85007099999996 499.8475879999999 C 363.12347099999994 502.81238799999994 373.68607099999997 506.8163879999999 391.166071 505.54678799999994 L 415.16207099999997 529.542788 C 417.70897099999996 531.972488 421.72847099999996 531.929488 424.216771 529.441228 C 426.70507100000003 526.952968 426.747971 522.933428 424.318331 520.386528 L 398.177331 494.245528 C 396.81013099999996 492.851028 394.86873099999997 492.163528 392.927331 492.386128 C 377.61533099999997 493.995528 368.79833099999996 490.897828 364.90433099999996 488.917328 L 409.06033099999996 420.48332800000003 C 410.73223099999996 422.02632800000003 412.50563099999994 423.54582800000003 414.39623099999994 425.04582800000003 C 417.20483099999996 427.26062800000005 421.2790309999999 426.780228 423.49783099999996 423.971628 C 425.716631 421.163028 425.23613099999994 417.08882800000003 422.427531 414.87392800000003 C 387.40453099999996 387.244928 396.568531 348.90892800000006 397.02953099999996 347.34692800000005 C 397.75609099999997 344.51882800000004 396.502191 341.55392800000004 393.96703099999996 340.10862800000007 C 391.431831 338.6633280000001 388.244331 339.0891280000001 386.17793099999994 341.15552800000006 C 375.1859309999999 352.06952800000005 363.21293099999997 361.95652800000005 350.4119309999999 370.68652800000007 C 346.7752309999999 373.08492800000005 341.95493099999993 372.6201280000001 338.84193099999993 369.56932800000004 C 335.72863099999995 366.514628 335.17003099999994 361.70602800000006 337.49813099999994 358.01832800000005 L 346.71693099999993 343.94432800000004 L 369.1619309999999 309.796328 C 373.48613099999994 303.218228 380.3569309999999 298.734328 388.12293099999994 297.42532800000004 C 395.88853099999994 296.120628 403.84593099999995 298.10501800000003 410.0879309999999 302.90582800000004 L 434.0719309999999 321.37882800000006 L 434.07583699999986 321.37882800000006 C 442.37663699999985 327.75382800000006 448.61883699999987 336.42982800000004 452.02083699999986 346.32782800000007 L 465.9548369999999 386.79682800000006 L 465.9587439999999 386.79682800000006 C 468.0095439999999 392.6991280000001 471.3767439999999 398.05882800000006 475.8025439999999 402.47282800000005 L 509.0295439999999 435.71082800000005 C 511.5725439999999 438.1405280000001 515.5920439999999 438.09752800000007 518.0803439999999 435.60926800000004 C 520.5686439999998 433.121008 520.6155439999999 429.097568 518.1858139999998 426.554568 z M 215.87 77.26999999999998 L 250.464 42.652999999999984 C 252.0148 41.106099999999984 254.5265 41.106099999999984 256.0734 42.652999999999984 L 405.1834 191.833 L 380.1484 229.755 C 378.1796 232.7394 379 236.755 381.98429999999996 238.72379999999998 C 383.039 239.43473999999998 384.27729999999997 239.81359999999998 385.55069999999995 239.81759999999997 C 387.72649999999993 239.81759999999997 389.75769999999994 238.72379999999998 390.953 236.90739999999997 L 414.52299999999997 201.17339999999996 L 435.53499999999997 222.18539999999996 L 410.49999999999994 260.11539999999997 L 410.49999999999994 260.119307 C 409.50780999999995 261.549007 409.14059999999995 263.322407 409.4726999999999 265.02950699999997 C 409.80081999999993 266.73650699999996 410.8085999999999 268.24040699999995 412.26179999999994 269.20140699999996 C 413.71489999999994 270.15843699999994 415.49229999999994 270.49440699999997 417.19149999999996 270.12718699999994 C 418.89459999999997 269.75999699999994 420.3751 268.7209869999999 421.30479999999994 267.24828699999995 L 444.87479999999994 231.52528699999993 L 465.92979999999994 252.54828699999993 L 440.8947999999999 290.4702869999999 C 438.92599999999993 293.4546869999999 439.74639999999994 297.46638699999994 442.7306999999999 299.4390869999999 C 443.7853999999999 300.1500269999999 445.0275999999999 300.52888699999994 446.2970999999999 300.5328869999999 C 448.47289999999987 300.5328869999999 450.5040999999999 299.4390869999999 451.6993999999999 297.6226869999999 L 475.2693999999999 261.9116869999999 L 498.0193999999999 284.6616869999999 C 501.3631999999999 288.0249869999999 502.2849999999999 293.0991869999999 500.3396999999999 297.4236869999999 L 481.87869999999987 338.1426869999999 L 481.87479299999984 338.1465929999999 C 481.13651299999987 339.84189299999986 479.58959299999987 341.04499299999986 477.76539299999985 341.3496929999999 C 475.94899299999986 341.68953299999987 474.0856929999998 341.1075029999999 472.7887929999998 339.7988929999999 L 281.4887929999998 148.4988929999999 L 215.86379299999982 82.88189299999989 C 214.3207929999998 81.3310929999999 214.3207929999998 78.8232929999999 215.86379299999982 77.2724929999999 z M 194.401 114.76199999999997 L 211.901 97.26199999999997 L 267.682 153.04299999999998 L 246.51800000000003 174.207 L 194.37700000000004 122.066 L 194.37700000000004 122.069907 C 192.36920000000003 120.042607 192.37700000000004 116.776907 194.39653200000004 114.761307 z M 292.026 259.37199999999996 C 294.5221 256.8837 297.7955 255.32119999999995 301.2994 254.93839999999994 C 304.8033 254.55948999999995 308.33459999999997 255.37980999999994 311.3074 257.2742999999999 L 338.1164 284.07129999999995 C 338.63984 284.58692999999994 339.2492 285.01660999999996 339.9094 285.33689999999996 L 357.8894 303.3169 L 340.25640000000004 330.15689999999995 L 291.6974 281.61789999999996 C 288.7833 278.72729999999996 287.14660000000003 274.78979999999996 287.14660000000003 270.6799 C 287.166131 266.40259999999995 288.92780000000005 262.3205 292.0255 259.37089999999995 z M 262.866 293.01699999999994 C 265.77619999999996 290.1302999999999 269.7058 288.51309999999995 273.804 288.51309999999995 C 277.90219999999994 288.51309999999995 281.8352 290.1303 284.74199999999996 293.01699999999994 L 323.02299999999997 331.29799999999994 C 325.9371 334.19249999999994 327.57379999999995 338.12999999999994 327.57379999999995 342.23599999999993 C 327.55036299999995 346.49769999999995 325.7964999999999 350.5679999999999 322.71829999999994 353.5129999999999 C 319.80809999999997 356.41529999999995 315.86279999999994 358.04419999999993 311.75329999999997 358.04419999999993 C 307.64 358.04419999999993 303.69859999999994 356.41529999999995 300.7883 353.5129999999999 L 267.01529999999997 319.7469999999999 L 267.01529999999997 319.6923119999999 L 262.56219999999996 315.2392119999999 L 262.56219999999996 315.2431189999999 C 259.62859999999995 312.2665189999999 258.0114 308.23921899999993 258.06999999999994 304.0631189999999 C 258.1285929999999 299.88731899999993 259.8551999999999 295.9108189999999 262.86689999999993 293.0161189999999 z M 235.97099999999998 328.91499999999996 C 238.8772 326.02049999999997 242.80689999999998 324.39549999999997 246.90899999999996 324.39549999999997 C 251.01059999999995 324.39549999999997 254.94019999999998 326.02049999999997 257.847 328.91499999999996 L 291.644 362.712 L 298.9409 370.0167 C 301.8745 372.99330000000003 303.4917 377.0206 303.437 381.20070000000004 C 303.378406 385.3765 301.6479 389.3609 298.6323 392.2517 C 295.68309999999997 395.06030000000004 291.769 396.62280000000004 287.6943 396.62280000000004 C 283.624 396.62280000000004 279.706 395.06030000000004 276.7563 392.2517 L 251.41230000000002 366.91970000000003 L 235.69330000000002 351.20070000000004 L 235.69720600000002 351.204606 C 232.74410600000002 348.228006 231.111306 344.192906 231.16200600000002 340.00160600000004 C 231.21270600000003 335.8103060000001 232.94720600000002 331.81410600000004 235.97060600000003 328.915606 z M 215.46299999999997 387.34099999999995 C 215.49815599999997 383.20039999999995 217.15829999999997 379.23939999999993 220.08019999999996 376.30999999999995 C 223.00209999999996 373.37639999999993 226.95909999999995 371.70449999999994 231.10019999999997 371.6576999999999 C 235.24079999999998 371.60691899999995 239.23689999999996 373.1810999999999 242.22919999999996 376.04439999999994 L 267.58119999999997 401.40739999999994 L 272.64369999999997 406.46989999999994 C 276.6242 410.44649999999996 278.1828 416.23939999999993 276.72959999999995 421.6728999999999 C 275.28039999999993 427.1064999999999 271.03819999999996 431.3564999999999 265.60859999999997 432.81389999999993 C 260.17499999999995 434.2747999999999 254.37859999999998 432.7240559999999 250.39759999999995 428.75139999999993 L 220.00259999999994 398.3453999999999 C 217.07679999999993 395.43519999999995 215.44009999999994 391.4703999999999 215.46349999999995 387.3413999999999 z M 357.65299999999996 381.38009999999997 C 366.35999999999996 375.4192 374.715 368.95809999999994 382.676 362.03209999999996 C 382.83616 379.74309999999997 388.9221 396.8871 399.957 410.7351 L 334.223 512.5251 L 267.20000000000005 445.51309999999995 C 272.74300000000005 444.3178 277.81300000000005 441.53649999999993 281.802 437.5053 C 285.37620000000004 433.92719999999997 287.9348 429.46229999999997 289.20820000000003 424.5673 C 290.48550000000006 419.6728 290.4309 414.5243 289.05195000000003 409.65729999999996 C 298.21995000000004 409.16510999999997 306.60695000000004 404.34869999999995 311.64195 396.67729999999995 C 316.68105 389.00149999999996 317.77085 379.3922999999999 314.58335 370.7862999999999 C 317.73955 370.4659899999999 320.82165 369.6221999999999 323.70445 368.2940999999999 C 324.96225 373.3057999999999 327.91925000000003 377.7276999999999 332.07165000000003 380.8060999999999 C 335.74355 383.5521999999999 340.18495 385.0833999999999 344.77065000000005 385.1849999999999 C 349.35655 385.2904699999999 353.86045000000007 383.9622999999999 357.65365 381.3841999999999 z M 385.95799999999997 284.61409999999995 L 385.95799999999997 284.618007 C 378.77829999999994 285.832807 372.04799999999994 288.926607 366.44599999999997 293.58680699999996 L 323.09099999999995 250.21980699999997 C 321.99719999999996 249.13000699999998 320.82149999999996 248.13390699999997 319.56759999999997 247.23150699999997 L 255.68059999999997 183.34450699999996 L 276.84459999999996 162.18050699999998 L 399.21459999999996 284.57050699999996 C 394.82399999999996 283.87519699999996 390.3513 283.886917 385.9686 284.61738299999996 z" stroke-linecap="round" />
</g>
</svg>