<svg xmlns="http://www.w3.org/2000/svg" xmlns:xlink="http://www.w3.org/1999/xlink" version="1.1" width="45" height="50" viewBox="0 0 45 50" xml:space="preserve">
<g transform="matrix(0.0950068109 0 0 0.0950068192 22.5120949302 24.9414307051)" id="N6T_5mj1scSv7yIXxewdi"  >
<path stroke="none" fill="white" transform=" translate(-360.8080157488, -298.8319823605)" d="M 258.72 369.6 C 293.439 428.401 358.96000000000004 478.24 403.20000000000005 511.28000000000003 L 412.71950000000004 518.5612 C 414.39920000000006 520.2409 417.20000000000005 520.7995 419.4383 520.7995 L 420.55940000000004 520.7995 C 423.3602 520.7995 425.59850000000006 519.6784 427.84060000000005 517.9987 L 433.44220000000007 513.5182 C 490.56320000000005 466.4792 597.5222000000001 379.67819999999995 595.8422 288.9582 C 595.2836100000001 262.6382 584.6432000000001 237.43819999999997 565.6042 219.51719999999997 C 546.5652 201.03719999999998 521.3661999999999 190.95819999999998 495.0452 191.51719999999997 C 491.12330000000003 191.51719999999997 487.2054 192.07578999999998 483.8462 192.6383 C 484.9673 180.8763 484.40479 169.6773 482.7251 159.03629999999998 C 472.0801 104.71629999999999 420.5611 68.87629999999999 366.8051 78.39529999999998 C 334.88309999999996 83.99689999999998 308.0041 104.15729999999998 294.5671 132.71529999999998 C 272.16909999999996 110.87529999999998 239.6881 100.2353 208.32909999999998 105.83629999999998 C 154.00509999999997 115.35579999999999 118.16509999999998 166.87529999999998 127.12609999999998 221.19629999999998 C 136.08309999999997 272.15729999999996 179.20409999999998 320.8763 258.7261 369.5963 z M 494.48 213.92000000000002 C 515.1990000000001 213.36141 534.242 221.20120000000003 549.359 235.20100000000002 C 563.918 249.20100000000002 572.32 268.803 572.879 288.963 C 574.5587 368.483 474.32000000000005 450.24300000000005 419.439 495.043 L 416.0796 492.8047 C 372.95860000000005 460.3247 307.99960000000004 411.0427 276.0796 355.60470000000004 C 263.75960000000003 334.32370000000003 257.5996 314.16370000000006 257.5996 295.1247 C 257.04101 252.56570000000002 290.6386 217.8437 333.2016 216.72670000000002 C 362.32259999999997 216.16811 390.32259999999997 232.96470000000002 403.2016 259.2857 L 404.3227 260.96540000000005 C 406.561 265.44590000000005 411.6039 267.68420000000003 416.0847 267.1256 C 420.0066 266.56701000000004 423.3659 264.32480000000004 425.0456 260.40680000000003 C 425.0456 260.40680000000003 425.60418999999996 258.7271 426.1667 257.60600000000005 C 435.1276 238.00400000000005 452.4867 222.88700000000006 472.6467 216.72700000000006 C 479.92400000000004 215.60200000000006 487.2017 214.48090000000005 494.4827 213.92230000000006 z M 211.68 128.23600000000002 C 216.1605 127.67741000000002 220.64090000000002 127.11490000000002 224.559 127.11490000000002 C 249.2 127.11490000000002 272.719 138.87690000000003 287.278 159.59490000000002 L 288.39910000000003 161.27460000000002 C 291.1999 165.19650000000001 296.23890000000006 166.8762 301.27810000000005 165.75510000000003 C 305.20000000000005 164.63400000000001 307.99690000000004 161.83320000000003 308.55930000000006 157.91530000000003 C 308.55930000000006 157.91530000000003 309.11789000000005 156.23560000000003 309.11789000000005 155.11450000000002 C 317.51629 126.55550000000002 340.47689 105.83350000000002 369.59789000000006 100.79450000000003 C 411.59789000000006 93.51330000000003 451.35989000000006 121.51350000000002 458.63689000000005 163.51350000000002 C 460.3165900000001 174.71250000000003 460.3165900000001 186.47450000000003 458.63689000000005 199.35350000000003 C 440.15689000000003 206.63470000000004 424.47689 218.95550000000003 413.27789000000007 235.19350000000003 C 394.2388900000001 209.99450000000002 363.99689000000006 194.87350000000004 332.07889000000006 195.43150000000003 C 277.19989000000004 196.55260000000004 233.51989000000006 241.91150000000002 234.63789000000006 296.79150000000004 C 234.63789000000006 308.55350000000004 236.87619000000007 320.3115 240.79809000000006 332.6315000000001 C 185.35709000000006 293.99050000000005 155.67709000000008 256.4715000000001 148.95809000000006 217.83150000000006 C 142.23929000000007 175.28050000000007 170.23909000000006 135.51950000000005 211.68109000000004 128.23750000000007 z" stroke-linecap="round" />
</g>
</svg>