<svg width="60" height="60" viewBox="0 0 60 60" fill="none" xmlns="http://www.w3.org/2000/svg">
<path d="M16.9705 39.5646C21.4017 47.5119 29.7641 54.2479 35.4105 58.7134L36.6255 59.6975C36.8399 59.9245 37.1973 60 37.483 60H37.6261C37.9836 60 38.2692 59.8485 38.5554 59.6215L39.2703 59.0159C46.5607 52.6583 60.2119 40.9268 59.9975 28.6655C59.9262 25.1082 58.5682 21.7023 56.1382 19.2802C53.7083 16.7826 50.4921 15.4203 47.1327 15.4959C46.6322 15.4959 46.1321 15.5714 45.7034 15.6474C45.8465 14.0577 45.7747 12.5441 45.5603 11.1059C44.2017 3.76431 37.6263 -1.07964 30.7654 0.2069C26.6912 0.963984 23.2606 3.68876 21.5456 7.54851C18.687 4.59673 14.5414 3.15868 10.5391 3.91569C3.60566 5.20229 -0.968609 12.1654 0.175087 19.5072C1.31827 26.3948 6.82182 32.9794 16.9712 39.5641L16.9705 39.5646ZM47.0606 18.5237C49.705 18.4482 52.1354 19.5078 54.0648 21.4C55.923 23.2921 56.9954 25.9414 57.0667 28.6662C57.2811 39.4137 44.4876 50.4639 37.4831 56.5189L37.0543 56.2164C31.5508 51.8265 23.26 45.1658 19.1861 37.6731C17.6137 34.7969 16.8275 32.0722 16.8275 29.4989C16.7562 23.7469 21.0442 19.054 26.4766 18.9031C30.1933 18.8276 33.767 21.0977 35.4107 24.6551L35.5538 24.8821C35.8395 25.4877 36.4831 25.7902 37.055 25.7147C37.5555 25.6392 37.9843 25.3362 38.1987 24.8066C38.1987 24.8066 38.27 24.5796 38.3418 24.4281C39.4854 21.7788 41.701 19.7357 44.274 18.9031C45.2028 18.7511 46.1317 18.5995 47.0609 18.524L47.0606 18.5237ZM10.9667 6.94311C11.5386 6.86762 12.1104 6.79159 12.6105 6.79159C15.7554 6.79159 18.7572 8.38128 20.6153 11.1814L20.7584 11.4084C21.1159 11.9385 21.759 12.1655 22.4022 12.014C22.9027 11.8625 23.2597 11.4839 23.3315 10.9544C23.3315 10.9544 23.4028 10.7274 23.4028 10.5759C24.4747 6.71599 27.4051 3.91531 31.1219 3.23426C36.4823 2.25017 41.5572 6.03454 42.4859 11.711C42.7003 13.2246 42.7003 14.8143 42.4859 16.555C40.1273 17.5391 38.1261 19.2043 36.6967 21.3989C34.2668 17.9932 30.407 15.9495 26.3333 16.0249C19.3291 16.1764 13.7542 22.3069 13.8969 29.7242C13.8969 31.3139 14.1825 32.9031 14.6831 34.5682C7.60713 29.3457 3.81906 24.2748 2.96151 19.0524C2.10399 13.3014 5.67761 7.92752 10.9669 6.94332L10.9667 6.94311Z" fill="white"/>
</svg>
