<svg width="60" height="60" viewBox="0 0 60 60" fill="none" xmlns="http://www.w3.org/2000/svg">
<path d="M49.4123 0H10.5886C6.8058 0 3.30994 2.01823 1.41855 5.29382C-0.472848 8.57004 -0.472848 12.6064 1.41855 15.8819C3.30994 19.1582 6.8058 21.1764 10.5886 21.1764V22.941C10.5886 23.4093 10.7745 23.858 11.1056 24.1892C11.4361 24.5197 11.8854 24.7055 12.3532 24.7055H14.1177V58.2351C14.1177 59.21 14.908 59.9996 15.8823 59.9996C16.8572 59.9996 17.6475 59.21 17.6475 58.2351V24.7055H42.3535V58.2351H42.3528C42.3528 59.21 43.1431 59.9996 44.118 59.9996C45.0923 59.9996 45.8826 59.21 45.8826 58.2351V24.7055H47.6471C48.1149 24.7055 48.5642 24.5197 48.8947 24.1892C49.2259 23.858 49.4117 23.4093 49.4117 22.941V21.1764C52.2201 21.1764 54.9129 20.0611 56.8991 18.0749C58.8848 16.0893 60 13.3961 60 10.5881C59.992 7.78207 58.8737 5.09435 56.89 3.10999C54.9057 1.12626 52.2179 0.00787818 49.4119 0H49.4123ZM54.4242 15.6001C53.0874 16.9141 51.2871 17.6497 49.4123 17.6471C49.0522 17.6428 48.6952 17.5831 48.3536 17.4705C48.2478 17.4354 48.1068 17.3997 48.001 17.3646H48.0003C47.3725 17.0852 46.8383 16.6297 46.4623 16.0536C46.0868 15.4776 45.8855 14.8054 45.8831 14.1173V12.3528C45.8831 11.3779 46.6727 10.5882 47.6476 10.5882C48.6225 10.5882 49.4122 11.3779 49.4122 12.3528C49.4122 13.3277 50.2025 14.1173 51.1768 14.1173C52.1517 14.1173 52.9419 13.3277 52.9419 12.3528C52.9419 10.4614 51.9326 8.71338 50.2947 7.768C48.6564 6.82201 46.6388 6.82201 45.0003 7.768C43.3624 8.71338 42.353 10.4614 42.353 12.3528V14.1173H22.9412C21.9669 14.1173 21.1766 14.9076 21.1766 15.8819C21.1766 16.8568 21.9669 17.6471 22.9412 17.6471H43.3063C43.9107 18.7273 44.8025 19.6185 45.8828 20.2236V21.1763H14.1179V20.1177C16.2813 18.891 17.6269 16.6045 17.6477 14.1174V12.3528C17.6477 10.4614 16.6383 8.7134 15.0005 7.76802C13.3621 6.82202 11.3445 6.82202 9.706 7.76802C8.06812 8.7134 7.05877 10.4614 7.05877 12.3528C7.05877 13.3277 7.84905 14.1174 8.82396 14.1174C9.79827 14.1174 10.5885 13.3277 10.5885 12.3528C10.5885 11.3779 11.3782 10.5882 12.3531 10.5882C13.328 10.5882 14.1176 11.3779 14.1176 12.3528V14.1174C14.1176 14.8516 13.8881 15.5674 13.4597 16.1638C13.0319 16.7602 12.4275 17.207 11.732 17.4422C11.367 17.5813 10.9786 17.6508 10.5884 17.6471C8.06614 17.6471 5.73593 16.3017 4.47542 14.1174C3.2143 11.9337 3.2143 9.24267 4.47542 7.05837C5.73593 4.87469 8.06614 3.52926 10.5884 3.52926H49.4121C51.2844 3.53664 53.0773 4.28384 54.3999 5.60831C55.7225 6.93277 56.4673 8.72697 56.4722 10.5993C56.4765 12.471 55.7404 14.2688 54.4239 15.6001L54.4242 15.6001ZM24.7061 30V58.2354C24.7061 59.2103 23.9165 59.9999 22.9416 59.9999C21.9673 59.9999 21.177 59.2103 21.177 58.2354V30C21.177 29.025 21.9673 28.2354 22.9416 28.2354C23.9165 28.2354 24.7061 29.0251 24.7061 30ZM31.7651 30V58.2354C31.7651 59.2103 30.9755 59.9999 30.0006 59.9999C29.0257 59.9999 28.236 59.2103 28.236 58.2354V30C28.236 29.025 29.0257 28.2354 30.0006 28.2354C30.9755 28.2354 31.7651 29.0251 31.7651 30ZM38.8242 30V58.2354C38.8242 59.2103 38.0339 59.9999 37.0596 59.9999C36.0847 59.9999 35.295 59.2103 35.295 58.2354V30C35.295 29.025 36.0847 28.2354 37.0596 28.2354C38.0339 28.2354 38.8242 29.0251 38.8242 30Z" fill="white"/>
</svg>
