<svg width="60" height="50" viewBox="0 0 60 50" fill="none" xmlns="http://www.w3.org/2000/svg">
<path d="M59.717 13.0487L48.0728 1.41343H48.0724C47.165 0.508135 45.9356 0 44.6539 0C43.3723 0 42.1429 0.50818 41.2355 1.41343L15.9039 26.745L15.9022 26.7476L0.850846 41.7978C0.305939 42.3423 0 43.0808 0 43.8512C0 44.6212 0.305939 45.3602 0.850846 45.9046L3.58788 48.6421C4.13322 49.1857 4.87166 49.4907 5.64126 49.4907C6.4113 49.4907 7.14938 49.1857 7.69464 48.6421L22.0635 34.2732L30.2777 42.4879V42.4875C30.6558 42.8656 31.2685 42.8656 31.6466 42.4875L41.4134 32.7198L41.413 32.7202C41.7798 32.3404 41.7746 31.7367 41.4013 31.3633C41.0279 30.9899 40.4243 30.9848 40.0444 31.3512L30.9617 40.4343L22.7704 32.2431C22.7626 32.2348 22.76 32.2236 22.7518 32.2154L17.9605 27.4241L42.604 2.78173C43.148 2.23899 43.8852 1.93391 44.6539 1.93391C45.4223 1.93391 46.1594 2.23898 46.7035 2.78173L57.6638 13.7325L45.8514 25.5437C45.4846 25.9236 45.4902 26.5272 45.8635 26.9006C46.2369 27.2744 46.8406 27.2796 47.2204 26.9127L59.7164 14.4179V14.4174C60.0945 14.0398 60.0945 13.427 59.7164 13.0489L59.717 13.0487ZM20.6948 32.9045L6.32596 47.2733C6.14448 47.4548 5.89816 47.5567 5.64149 47.5567C5.38438 47.5567 5.13806 47.4548 4.95658 47.2733L2.2191 44.5358C1.84142 44.1577 1.84142 43.5449 2.2191 43.1668L16.5879 28.798L20.6948 32.9045Z" fill="white"/>
<path d="M46.7078 8.26099C47.2518 7.71608 47.5573 6.97754 47.5573 6.2076C47.5573 5.43757 47.2518 4.69904 46.7078 4.15378C46.1546 3.62616 45.4192 3.33145 44.6547 3.33145C43.8899 3.33145 43.1548 3.62616 42.6017 4.15378C41.8679 4.88752 41.581 5.9566 41.8493 6.95862C42.1181 7.96071 42.9007 8.74374 43.9027 9.01245C44.9048 9.2808 45.9739 8.99473 46.7076 8.26099H46.7078ZM43.9707 6.89247C43.5935 6.5135 43.5939 5.90076 43.9716 5.52263C44.1531 5.34114 44.399 5.23915 44.6556 5.23915C44.9123 5.23915 45.1582 5.34114 45.3397 5.52263C45.7178 5.90073 45.7178 6.51348 45.3401 6.89203C44.962 7.27014 44.3489 7.27015 43.9707 6.89247Z" fill="white"/>
<path d="M29.5966 37.6922C29.9747 38.0703 30.5875 38.0703 30.9656 37.6922L54.921 13.7368H54.9206C55.1059 13.5562 55.2114 13.309 55.2131 13.0502C55.2144 12.7914 55.1124 12.5425 54.9296 12.3592C54.7464 12.1764 54.4975 12.0745 54.2387 12.0758C53.9798 12.0775 53.7327 12.1829 53.552 12.3683L29.5966 36.3237C29.2185 36.7018 29.2185 37.3145 29.5966 37.6927V37.6922Z" fill="white"/>
<path d="M6.32596 41.7996C5.94785 41.4215 5.33511 41.4215 4.957 41.7996C4.57889 42.1777 4.57933 42.7905 4.957 43.1686L6.32596 44.5376C6.50659 44.7225 6.7542 44.8279 7.01303 44.8297C7.27187 44.8314 7.52034 44.729 7.70356 44.5462C7.88634 44.363 7.98876 44.1145 7.98703 43.8557C7.9853 43.5968 7.8803 43.3492 7.69492 43.1686L6.32596 41.7996Z" fill="white"/>
<path d="M52.344 23.5579C51.8094 23.5579 51.376 23.9909 51.376 24.5259V33.1501C51.3765 33.4112 51.2693 33.6609 51.0792 33.8402C50.9024 34.02 50.6604 34.1203 50.4081 34.1181C49.8735 34.1177 49.4406 33.6847 49.4401 33.1501V32.1822C49.4401 31.1447 48.8866 30.1862 47.9882 29.6673C47.0898 29.1487 45.9827 29.1487 45.0843 29.6673C44.186 30.1863 43.6324 31.1447 43.6324 32.1822V38.9579C43.6329 39.2189 43.5257 39.4686 43.3356 39.6479C43.1588 39.8277 42.9168 39.928 42.6645 39.9258C42.1299 39.9254 41.697 39.4924 41.6965 38.9579V36.1413C41.6965 35.6063 41.2631 35.1733 40.7286 35.1733C40.194 35.1733 39.7606 35.6063 39.7606 36.1413V38.9579C39.7615 39.7279 40.0679 40.466 40.6119 41.0105C41.1564 41.5545 41.8945 41.8609 42.6645 41.8617C43.4337 41.8583 44.17 41.551 44.714 41.0074C45.2576 40.4634 45.5649 39.7271 45.5683 38.9579V32.1823C45.5683 31.6477 46.0017 31.2143 46.5363 31.2143C47.0708 31.2143 47.5042 31.6477 47.5042 32.1823V33.1502C47.5051 33.9202 47.8115 34.6583 48.3555 35.2028C48.9 35.7469 49.6381 36.0532 50.4081 36.0541C51.1773 36.0506 51.9136 35.7434 52.4576 35.1998C53.0012 34.6557 53.3085 33.9194 53.3119 33.1503V24.526C53.3119 24.2693 53.2099 24.023 53.0285 23.8415C52.847 23.66 52.6007 23.5581 52.344 23.5581V23.5579Z" fill="white"/>
<path d="M42.6645 43.7975C41.8944 43.7975 41.1555 44.1034 40.6111 44.6479C40.0667 45.1924 39.7607 45.9313 39.7607 46.7013C39.7607 47.4712 40.0666 48.2103 40.6111 48.7547C41.1556 49.299 41.8945 49.6051 42.6645 49.6051C43.4344 49.6051 44.1735 49.2991 44.7179 48.7547C45.2622 48.2102 45.5683 47.4712 45.5683 46.7013C45.5674 45.9312 45.261 45.1932 44.717 44.6487C44.1725 44.1046 43.4344 43.7983 42.6644 43.7974L42.6645 43.7975ZM42.6645 47.6693C42.273 47.6693 41.9199 47.4333 41.7704 47.0717C41.6205 46.71 41.703 46.2939 41.98 46.0169C42.257 45.7399 42.6731 45.6573 43.0348 45.8073C43.3965 45.9568 43.6324 46.3098 43.6324 46.7013C43.632 47.2359 43.199 47.6689 42.6645 47.6693Z" fill="white"/>
</svg>
