<svg width="16" height="16" viewBox="0 0 16 16" fill="none" xmlns="http://www.w3.org/2000/svg">
<path d="M5.77736 15.37H8.86423V9.94405C8.86423 9.65365 8.88423 9.36357 8.96575 9.15597C9.18895 8.57579 9.69687 7.97489 10.5496 7.97489C11.6665 7.97489 12.1134 8.86589 12.1134 10.172V15.37H15.2V9.79885C15.2 6.8145 13.6771 5.42582 11.6461 5.42582C9.98087 5.42582 9.24983 6.39962 8.84367 7.06291H8.86431V5.65382H5.77744C5.81795 6.56551 5.77736 15.37 5.77736 15.37ZM4.06933 15.37V5.65382H0.982468V15.37H4.06933ZM2.52588 4.32724C3.60234 4.32724 4.27234 3.58115 4.27234 2.64875C4.25228 1.69536 3.60234 0.969971 2.54631 0.969971C1.49038 0.969971 0.799988 1.69536 0.799988 2.64875C0.799988 3.58115 1.46984 4.32724 2.50576 4.32724H2.52588Z" fill="white"/>
</svg>
