<svg width="20" height="20" viewBox="0 0 20 20" fill="none" xmlns="http://www.w3.org/2000/svg">
<rect width="2.51186" height="16.4177" rx="1.25593" transform="matrix(0.708128 0.706084 -0.708128 0.706084 11.6257 6.63416)" fill="white"/>
<rect width="2.23877" height="5.30402" rx="1.11939" transform="matrix(0.708128 0.706084 -0.708128 0.706084 17.0236 0.744507)" fill="white"/>
<rect x="10.5802" width="2.24411" height="4.46688" rx="1.12206" fill="white"/>
<rect width="2.23877" height="5.5" rx="1.11939" transform="matrix(0.708128 -0.706084 0.708128 0.706084 5 2.58081)" fill="white"/>
<rect width="2.23877" height="5.5" rx="1.11939" transform="matrix(0.708128 -0.706084 0.708128 0.706084 13.517 11.2559)" fill="white"/>
<rect x="14.7638" y="9.37012" width="2.23344" height="5.23626" rx="1.11672" transform="rotate(-90 14.7638 9.37012)" fill="white"/>
<rect x="4" y="9.2334" width="2.23344" height="4.48822" rx="1.11672" transform="rotate(-90 4 9.2334)" fill="white"/>
<rect x="11" y="12" width="2.24411" height="4.46688" rx="1.12206" fill="white"/>
</svg>
