<svg width="16" height="15" viewBox="0 0 16 15" fill="none" xmlns="http://www.w3.org/2000/svg">
<path d="M3.11111 0.358887H13.1111C13.5556 0.358887 14 0.507034 14.4444 0.803331C14.8889 1.09963 15.2593 1.50704 15.5556 2.02555C15.8519 2.54407 16 3.09963 16 3.69222V11.2478C16 11.8404 15.8519 12.3959 15.5556 12.9144C15.2593 13.433 14.8889 13.8033 14.4444 14.0256C14 14.2478 13.5556 14.3589 13.1111 14.3589H3.11111C2.51852 14.3589 2 14.2478 1.55556 14.0256C1.11111 13.8033 0.740741 13.433 0.444444 12.9144C0.148148 12.3959 0 11.8404 0 11.2478V3.69222C0 3.09963 0.148148 2.54407 0.444444 2.02555C0.740741 1.50704 1.11111 1.13666 1.55556 0.914442C2 0.69222 2.51852 0.581109 3.11111 0.581109V0.358887ZM2 5.47V9.47L4.44444 7.47L2 5.47ZM2.22222 11.9144C2.22222 12.0626 2.2963 12.1737 2.44444 12.2478C2.59259 12.3218 2.81481 12.3589 3.11111 12.3589H13.1111C13.2593 12.3589 13.4074 12.3218 13.5556 12.2478C13.7037 12.1737 13.7778 12.0626 13.7778 11.9144L10 8.58111L9.11111 9.24778C8.81481 9.54407 8.44444 9.69222 8 9.69222C7.55556 9.69222 7.18519 9.54407 6.88889 9.24778L6 8.58111L2.22222 11.9144ZM14 9.47V5.47L11.5556 7.24778L14 9.47ZM14 3.24778C14 3.09963 13.8889 2.91444 13.6667 2.69222C13.4444 2.47 13.2593 2.35889 13.1111 2.35889H3.11111C2.81481 2.50704 2.55556 2.65518 2.33333 2.80333C2.11111 2.95148 2 3.1737 2 3.47L7.55556 7.69222C7.55556 7.69222 7.66667 7.69222 7.88889 7.69222C8.11111 7.69222 8.2963 7.69222 8.44444 7.69222L14 3.24778Z" fill="white"/>
</svg>
