<svg width="56" height="57" viewBox="0 0 56 57" fill="none" xmlns="http://www.w3.org/2000/svg">
<g clip-path="url(#clip0_9_820)">
<path d="M24.1111 41.4144L24.8889 46.0811C25.4074 48.1551 25.4074 49.7107 24.8889 50.7477C24.3704 51.7848 23.0741 52.5625 21 53.0811H18.6667C17.6296 53.0811 16.8519 52.8218 16.3333 52.3033L15.5556 51.5255L11.6667 37.5255L8.55556 36.7477C7.51852 36.2292 6.87037 35.7107 6.61111 35.1922C6.35185 34.6736 6.22222 34.1551 6.22222 33.6366V21.1922C6.22222 20.6736 6.35185 20.1551 6.61111 19.6366C6.87037 19.1181 7.51852 18.5996 8.55556 18.0811L19.4444 14.9699C19.963 14.9699 20.3519 14.9699 20.6111 14.9699C20.8704 14.9699 21.1296 15.2292 21.3889 15.7477C21.6481 16.2662 21.6481 16.6551 21.3889 16.9144C21.1296 17.1736 20.7407 17.3033 20.2222 17.3033L9.33333 21.1922V33.6366L28 39.0811C28 39.0811 28.1296 39.3403 28.3889 39.8588C28.6481 40.3774 28.7778 40.7662 28.7778 41.0255C28.7778 41.2848 28.5185 41.544 28 41.8033C27.4815 42.0625 27.2222 42.1922 27.2222 42.1922L24.1111 41.4144ZM20.2222 39.8588L15.5556 38.3033L18.6667 50.7477L21.7778 49.9699C22.2963 49.4514 22.5556 48.9329 22.5556 48.4144L20.2222 39.8588ZM35 13.4144C34.4815 13.4144 33.963 13.2848 33.4444 13.0255C32.9259 12.7662 32.7963 12.3774 33.0556 11.8588C33.3148 11.3403 33.7037 10.8218 34.2222 10.3033L49 5.63661C50.5556 5.11809 51.9815 5.24772 53.2778 6.0255C54.5741 6.80328 55.4815 7.96994 56 9.5255V44.5255C56 46.0811 55.4815 47.3774 54.4444 48.4144C53.4074 49.4514 52.1111 49.9699 50.5556 49.9699L42.7778 47.6366C42.2593 47.1181 42 46.5996 42 46.0811C42 45.5625 42.2593 45.1736 42.7778 44.9144C43.2963 44.6551 43.8148 44.5255 44.3333 44.5255L50.5556 46.8588C51.0741 46.8588 51.5926 46.5996 52.1111 46.0811C52.6296 45.5625 52.8889 45.044 52.8889 44.5255V11.0811C52.8889 10.044 52.6296 9.39587 52.1111 9.13661C51.5926 8.87735 51.0741 8.74772 50.5556 8.74772L35 13.4144ZM1.55556 17.3033C2.07407 17.3033 2.46296 17.5625 2.72222 18.0811C2.98148 18.5996 3.11111 18.8588 3.11111 18.8588V35.9699C3.11111 36.4885 2.98148 36.8774 2.72222 37.1366C2.46296 37.3959 2.07407 37.5255 1.55556 37.5255C1.03704 37.5255 0.648148 37.3959 0.388889 37.1366C0.12963 36.8774 0 36.4885 0 35.9699V18.8588C0 18.8588 0.12963 18.5996 0.388889 18.0811C0.648148 17.5625 1.03704 17.3033 1.55556 17.3033Z" fill="white"/>
</g>
<g clip-path="url(#clip1_9_820)">
<path d="M1.55556 1.74786C2.07407 1.22934 2.46296 1.09971 2.72222 1.35897C2.98148 1.61823 3.11111 2.00712 3.11111 2.52563L17.1111 54.6367C17.1111 55.1553 17.1111 55.5442 17.1111 55.8034C17.1111 56.0627 16.8519 56.3219 16.3333 56.5812C15.8148 56.8404 15.4259 56.8404 15.1667 56.5812C14.9074 56.3219 14.5185 55.933 14 55.4145L0 3.30341C0 2.78489 0.12963 2.396 0.388889 2.13674C0.648148 1.87749 1.03704 1.74786 1.55556 1.74786Z" fill="white"/>
</g>
<defs>
<clipPath id="clip0_9_820">
<rect width="56" height="56" fill="white" transform="matrix(1 0 0 -1 0 56.97)"/>
</clipPath>
<clipPath id="clip1_9_820">
<rect width="56" height="56" fill="white" transform="matrix(1 0 0 -1 0 56.97)"/>
</clipPath>
</defs>
</svg>
