<svg width="45" height="45" viewBox="0 0 45 45" fill="none" xmlns="http://www.w3.org/2000/svg">
<path d="M2.9984 37.2395C2.9984 38.0964 2.32744 38.7912 1.4992 38.7912C0.671291 38.7912 0 38.0964 0 37.2395C0 36.3822 0.671291 35.6877 1.4992 35.6877C2.32744 35.6877 2.9984 36.3822 2.9984 37.2395Z" fill="white"/>
<path d="M24.9073 1.55172C24.9073 2.40864 24.236 3.10345 23.4081 3.10345C22.5802 3.10345 21.9089 2.40864 21.9089 1.55172C21.9089 0.694809 22.5802 0 23.4081 0C24.236 0 24.9073 0.694809 24.9073 1.55172Z" fill="white"/>
<path d="M7.51993 30.5851C3.38676 30.5851 0.0239258 27.1045 0.0239258 22.8265C0.0239258 18.5485 3.38676 15.0679 7.51993 15.0679C11.6531 15.0679 15.0159 18.5485 15.0159 22.8265C15.0159 27.1045 11.6531 30.5851 7.51993 30.5851ZM7.51993 18.1713C5.04025 18.1713 3.02233 20.2599 3.02233 22.8265C3.02233 25.393 5.04025 27.4817 7.51993 27.4817C9.99961 27.4817 12.0175 25.393 12.0175 22.8265C12.0175 20.2599 9.99961 18.1713 7.51993 18.1713Z" fill="white"/>
<path d="M17.413 45.0002C13.2798 45.0002 9.91699 41.5195 9.91699 37.2415C9.91699 32.9636 13.2798 29.4829 17.413 29.4829C21.5462 29.4829 24.909 32.9636 24.909 37.2415C24.909 41.5195 21.5462 45.0002 17.413 45.0002ZM17.413 32.5864C14.9333 32.5864 12.9154 34.675 12.9154 37.2415C12.9154 39.8081 14.9333 41.8967 17.413 41.8967C19.8927 41.8967 21.9106 39.8081 21.9106 37.2415C21.9106 34.675 19.8927 32.5864 17.413 32.5864Z" fill="white"/>
<path d="M37.5038 45.0002C33.3706 45.0002 30.0078 41.5195 30.0078 37.2415C30.0078 32.9636 33.3706 29.4829 37.5038 29.4829C41.637 29.4829 44.9998 32.9636 44.9998 37.2415C44.9998 41.5195 41.637 45.0002 37.5038 45.0002ZM37.5038 32.5864C35.0241 32.5864 33.0062 34.675 33.0062 37.2415C33.0062 39.8081 35.0241 41.8967 37.5038 41.8967C39.9835 41.8967 42.0014 39.8081 42.0014 37.2415C42.0014 34.675 39.9835 32.5864 37.5038 32.5864Z" fill="white"/>
<path d="M15.016 22.8272H12.0176V1.55172C12.0176 0.695155 12.6892 0 13.5168 0C14.3444 0 15.016 0.695155 15.016 1.55172V22.8272Z" fill="white"/>
<path d="M24.909 37.2414H21.9106V14.2857C21.9106 11.5919 23.6528 9.17117 26.1459 8.40161L37.3685 4.93514C39.1779 4.37195 41.0911 4.72421 42.6097 5.8942C44.1284 7.0642 44.9994 8.86118 44.9994 10.8195V37.2405H42.001V10.8195C42.001 9.84967 41.5707 8.962 40.8198 8.38316C40.0671 7.80439 39.1258 7.63363 38.2276 7.90829L27.005 11.3748C25.7518 11.7627 24.9105 12.9327 24.9105 14.2856V37.2414L24.909 37.2414Z" fill="white"/>
<path d="M22.1008 22.8973L43.0913 16.6963L43.9142 19.6806L22.9237 25.8816L22.1008 22.8973Z" fill="white"/>
<path d="M4.85571 10.1794C4.85571 9.39729 5.42527 8.73646 6.17655 8.64948C7.89626 8.4479 9.25728 7.8362 10.2348 6.82305C12.0024 4.9922 12.0174 2.3587 12.0174 2.33236L15.0158 2.2998C15.0158 2.4581 15.0352 6.20855 12.3909 8.98153C10.9187 10.5256 8.95307 11.4474 6.53662 11.7327C5.64609 11.8383 4.85606 11.1089 4.85606 10.181L4.85571 10.1794Z" fill="white"/>
</svg>
