<svg width="61" height="60" viewBox="0 0 61 60" fill="none" xmlns="http://www.w3.org/2000/svg">
<g clip-path="url(#clip0_3_41)">
<path d="M59.6532 16.2841C59.5473 16.0584 59.3905 15.8616 59.1955 15.7102C59.0006 15.5587 58.7733 15.4569 58.5323 15.4131L58.4484 15.3978C58.116 15.3379 57.7736 15.3906 57.4732 15.5479C57.1728 15.7053 56.9308 15.9586 56.7841 16.2695L56.7339 16.3762C56.7112 16.4269 56.6754 16.4703 56.6305 16.5018C56.5856 16.5334 56.5331 16.5519 56.4787 16.5553C49.3702 16.895 43.5646 19.7591 41.0121 21.2358C40.9462 21.188 40.8775 21.1443 40.8064 21.105C40.7333 21.0636 40.6579 21.0266 40.5806 20.9942C40.4034 20.9201 40.2046 20.9211 40.0281 20.997C39.8515 21.0729 39.7117 21.2173 39.6393 21.3987C39.5669 21.58 39.5679 21.7833 39.642 21.9639C39.7162 22.1445 39.8574 22.2876 40.0347 22.3616C40.0616 22.3728 40.0879 22.3856 40.1134 22.4C40.1192 22.4037 40.1252 22.407 40.1314 22.41C40.2282 22.4705 40.3166 22.5441 40.3942 22.6288C40.396 22.6308 40.3982 22.6327 40.4 22.6349C40.5987 22.8498 40.7546 23.1023 40.8591 23.3781C41.1049 24.0094 41.5336 24.5487 42.0878 24.9235C42.8638 25.4466 43.8171 26.3574 43.9497 27.7277C44.0457 28.5684 43.8455 29.4166 43.385 30.1199C41.6705 28.388 39.4675 28.1397 38.9672 28.1052C35.9589 27.2318 35.026 25.6048 34.7374 24.6625H36.4339C36.8743 24.6629 37.3042 24.5247 37.6653 24.2666C38.0263 24.0086 38.301 23.6431 38.4521 23.2199C38.5891 22.8307 38.7165 22.3986 38.8311 21.9357C38.8563 21.8336 38.8599 21.7271 38.8416 21.6235C38.8233 21.5198 38.7835 21.4214 38.7249 21.3348C38.6663 21.2481 38.5903 21.1753 38.5019 21.1213C38.4136 21.0672 38.3149 21.033 38.2126 21.0211C37.9918 20.9992 37.777 20.9353 37.5792 20.8326C37.4125 20.7461 37.2765 20.6084 37.1901 20.4388C37.1037 20.2693 37.0713 20.0764 37.0973 19.887C37.1173 19.6747 37.2004 19.4736 37.3354 19.311C37.4704 19.1483 37.6508 19.0318 37.8524 18.9771C38.1227 18.905 38.4022 18.8755 38.6811 18.8896C38.8653 18.897 39.0452 18.832 39.184 18.708C39.3227 18.5839 39.4098 18.4102 39.4272 18.2226C39.4667 17.8051 39.4994 17.3744 39.5236 16.9773C39.5518 16.5195 39.4188 16.0666 39.1486 15.7005C38.8784 15.3344 38.4889 15.0795 38.0507 14.982C37.9993 14.9704 37.9468 14.9645 37.8941 14.9645C37.8071 14.9643 37.7206 14.9512 37.6373 14.9255C37.9956 14.0532 38.1495 13.1071 38.0866 12.1631C38.0237 11.219 37.7457 10.3031 37.2749 9.48859C37.2171 9.38797 35.8349 7.01622 33.3278 6.45554C31.858 6.12674 30.3375 6.48397 28.8064 7.51763C27.6142 7.4676 23.2961 7.72533 21.4714 13.821C21.2938 14.4275 21.173 15.0499 21.1104 15.6798C21.0312 16.4264 20.8471 17.958 20.5057 19.8252C20.4872 19.921 20.4874 20.0195 20.5064 20.1152C20.5253 20.2108 20.5627 20.3017 20.6162 20.3825C20.6697 20.4633 20.7383 20.5324 20.8181 20.586C20.8979 20.6395 20.9872 20.6763 21.081 20.6942C21.1748 20.7122 21.2711 20.7109 21.3645 20.6906C21.4578 20.6702 21.5462 20.6311 21.6247 20.5756C21.7031 20.5201 21.77 20.4492 21.8215 20.367C21.873 20.2849 21.9081 20.1931 21.9247 20.097C22.2577 18.277 22.4463 16.777 22.5457 15.8394C22.5987 15.3019 22.7015 14.7709 22.8525 14.2533C24.5927 8.43997 28.7235 8.9772 28.8941 9.00231C29.0782 9.03166 29.2664 8.98701 29.4191 8.8777C30.6753 7.97788 31.8834 7.64797 33.0105 7.8961C34.8957 8.3124 36.0197 10.2171 36.0231 10.2237C36.603 11.2174 36.7946 12.3986 36.5593 13.5306C33.7912 9.30286 29.5842 10.7691 29.5389 10.7857C29.3672 10.8482 29.225 10.9747 29.1407 11.14C29.0565 11.3053 29.0364 11.4971 29.0846 11.6768C30.4481 16.7571 29.4864 21.6071 29.159 22.9723C29.0489 23.4313 28.9605 23.8524 28.8899 24.2597C28.7846 24.8149 28.7074 25.3754 28.6586 25.9387C26.591 24.2043 23.8892 23.1121 23.4508 22.9413C22.6824 22.4983 15.157 18.3782 5.58124 20.6816C5.29533 20.2668 4.87588 19.968 4.39632 19.8376C3.91675 19.7071 3.40763 19.7534 2.95806 19.9683L2.86782 20.0115C2.56856 20.1557 2.30646 20.3696 2.10248 20.636C1.8985 20.9025 1.75831 21.214 1.69312 21.5458L1.57383 22.1617C1.51236 22.4755 1.38576 22.7721 1.2026 23.0316L0.817646 23.5751C0.518885 23.9947 0.358889 24.5008 0.360967 25.0199C0.363044 25.539 0.527087 26.0438 0.829196 26.4608L0.957693 26.6392C1.31954 27.1422 1.85598 27.4844 2.45679 27.5954C3.0576 27.7064 3.67716 27.5778 4.18817 27.236C4.22426 27.212 4.26036 27.1877 4.29789 27.1633C6.26971 25.8764 8.65891 25.4393 10.9445 25.947C13.4131 26.4874 15.7921 27.3907 18.0074 28.629C16.9079 31.23 15.6125 33.1805 14.1514 34.4301C13.7797 34.7474 13.3122 34.9235 12.8281 34.9286C11.6278 34.9404 9.38111 35.2583 7.8238 37.2518C7.43599 37.7358 7.17519 38.3129 7.06606 38.9287C6.95692 39.5444 7.00305 40.1785 7.20009 40.7709C7.46592 41.5203 8.19413 42.7105 10.1508 42.8604C10.3042 44.3327 11.0541 46.3461 13.2055 46.6531C13.2189 46.6548 14.3291 46.8071 14.8327 47.6545C9.79457 49.9229 6.13746 53.7666 4.15009 58.9326C4.11537 59.0229 4.09836 59.1193 4.10005 59.2162C4.10173 59.3132 4.12207 59.4089 4.1599 59.4978C4.19773 59.5867 4.25232 59.6672 4.32054 59.7345C4.38876 59.8019 4.46928 59.8548 4.55751 59.8903C4.64573 59.9259 4.73993 59.9432 4.83472 59.9415C4.92952 59.9398 5.02305 59.919 5.10999 59.8803C5.19692 59.8416 5.27555 59.7858 5.34139 59.716C5.40723 59.6462 5.45899 59.5638 5.49371 59.4736C7.43867 54.4173 10.9615 50.8223 15.9825 48.7537C16.0079 48.7453 16.0327 48.7354 16.057 48.724C16.9698 48.3532 17.9033 48.0385 18.8527 47.7813C21.9003 46.9631 25.058 46.6595 28.2012 46.8822C28.2194 46.8842 28.2374 46.8855 28.2554 46.8861C29.2467 46.9293 30.2393 46.8397 31.2079 46.6195C31.1769 46.6321 31.1514 46.6419 31.1397 46.6459C16.4696 50.7259 13.9505 58.652 13.8504 58.9875C13.794 59.1747 13.8127 59.3771 13.9022 59.5502C13.9918 59.7233 14.1449 59.8529 14.3279 59.9106C14.5109 59.9682 14.7087 59.9491 14.878 59.8575C15.0472 59.7659 15.1739 59.6093 15.2302 59.4221C15.236 59.4036 15.8307 57.536 18.114 55.2199C20.2355 53.0676 24.2862 50.0796 31.5349 48.0666L31.5595 48.0592C31.6703 48.0241 34.2742 47.1643 34.3884 44.1453C34.4077 43.6038 34.311 43.0646 34.1049 42.5654C34.3364 42.5859 34.5817 42.5984 34.8427 42.5984C35.3018 42.5978 35.7602 42.5625 36.2143 42.4928C36.4029 42.4632 36.5724 42.3584 36.6857 42.2012C36.799 42.0441 36.8468 41.8475 36.8188 41.6544C36.7907 41.4612 36.689 41.2874 36.536 41.1707C36.3829 41.0541 36.1909 41.0042 36.002 41.032C33.8676 41.3567 32.5256 40.6941 32.431 40.6454C31.7517 40.2392 30.871 39.4144 30.508 37.7805C30.505 37.7672 30.5005 37.7545 30.4969 37.7416H30.4981C30.4372 37.3544 30.444 36.9592 30.5182 36.5744C30.5462 36.3807 30.4978 36.1835 30.3837 36.0262C30.2696 35.8689 30.0991 35.7645 29.9097 35.7358C29.7203 35.7072 29.5275 35.7566 29.3738 35.8734C29.22 35.9901 29.1179 36.1645 29.0899 36.3583C29.0299 36.7479 29.0077 37.1426 29.0236 37.5367C28.5164 37.7818 27.9733 37.9405 27.416 38.0065C26.9575 38.0578 26.4937 37.9973 26.0625 37.83C25.6313 37.6627 25.2449 37.3933 24.935 37.0439C24.6486 36.7257 24.4409 36.3418 24.3296 35.9245C24.2183 35.5072 24.2065 35.0687 24.2952 34.6458C24.3068 34.5904 24.32 34.5339 24.3351 34.4772C24.3612 34.3795 24.3674 34.2774 24.3532 34.1771C24.3391 34.0769 24.3049 33.9807 24.2529 33.8946C24.2009 33.8084 24.1321 33.7341 24.0508 33.6763C23.9695 33.6185 23.8774 33.5784 23.7804 33.5586C23.7585 33.5539 21.5842 33.0828 21.4257 30.776C21.4246 30.76 21.3521 29.1302 22.394 27.9363C22.8678 27.4072 23.2456 26.7958 23.5095 26.1309C23.687 25.6809 23.8134 25.2115 23.8863 24.7319C25.1734 25.3266 27.4034 26.502 28.7049 28.0166C28.9314 30.4214 30.5963 34.6144 35.5532 34.7986C36.1073 34.8176 36.6596 34.7244 37.1784 34.5243C37.6972 34.3243 38.1723 34.0214 38.5763 33.633C38.5831 33.6265 38.5904 33.6202 38.597 33.6145C38.6573 33.5556 38.7165 33.4952 38.7737 33.4323C39.1769 32.9923 39.4827 32.4688 39.6706 31.8971C39.8584 31.3255 39.9237 30.7193 39.8622 30.1195C39.8492 29.9971 39.8324 29.8727 39.8116 29.747C40.7281 29.987 42.082 30.5621 42.988 31.9319C43.2231 32.2939 43.3973 32.6936 43.5034 33.1144C43.858 34.4724 44.1791 37.007 42.3437 38.7226C42.2475 38.8124 42.177 38.9272 42.1394 39.0547C42.1018 39.1822 42.0986 39.3177 42.1302 39.4469L42.8436 42.366C42.9854 42.9486 43.2683 43.4854 43.6662 43.9268C44.0641 44.3682 44.5642 44.7 45.1204 44.8917C47.8198 45.8333 54.6094 48.6699 59.3466 54.6839C59.4667 54.8364 59.6412 54.9338 59.8315 54.9548C60.0219 54.9757 60.2126 54.9184 60.3617 54.7955C60.5108 54.6726 60.606 54.4942 60.6265 54.2994C60.6469 54.1047 60.5909 53.9096 60.4708 53.7571C58.1114 50.7619 55.2759 48.5211 52.6455 46.8869C53.2598 46.8864 53.8737 46.8518 54.4845 46.7833C55.4536 46.6725 57.8738 46.5819 59.4024 48.1205C59.5397 48.2532 59.7224 48.3256 59.9112 48.3221C60.1001 48.3186 60.2801 48.2395 60.4126 48.1018C60.5452 47.9641 60.6196 47.7787 60.6201 47.5855C60.6205 47.3922 60.5469 47.2065 60.415 47.0682C58.5152 45.1555 55.7828 45.1491 54.3246 45.3158C53.5962 45.3972 52.8631 45.4267 52.1307 45.4042C51.3148 45.3802 50.4949 45.3237 49.6907 45.2381C48.3591 44.5706 46.9882 43.9883 45.5861 43.4946C45.2585 43.3819 44.964 43.1867 44.7295 42.9271C44.495 42.6674 44.3282 42.3515 44.2444 42.0086L43.6308 39.4978C45.7571 37.1901 45.237 34.0275 44.8983 32.7335C44.7696 32.2359 44.5726 31.7595 44.313 31.3186C44.7281 30.8017 45.0372 30.2045 45.2217 29.5627C45.4063 28.9209 45.4625 28.2476 45.3872 27.5831C45.1886 25.5311 43.7326 24.2639 42.8827 23.6912C42.5739 23.4813 42.3353 23.1798 42.1989 22.8271C42.1372 22.6709 42.0661 22.5189 41.986 22.3718C44.5525 20.9205 49.9714 18.3453 56.5464 18.0311C56.8612 18.0154 57.166 17.9127 57.4282 17.7339C57.6905 17.5551 57.9005 17.3069 58.0358 17.0157L58.0858 16.9092C58.0953 16.8889 58.111 16.8723 58.1306 16.862C58.1501 16.8517 58.1724 16.8482 58.1941 16.852L58.2782 16.8675C58.3015 16.8717 58.3227 16.8842 58.3379 16.9028C58.3531 16.9213 58.3614 16.9448 58.3614 16.969C58.3614 17.1533 58.4288 17.3308 58.5502 17.4669C58.6717 17.6029 58.8384 17.6876 59.0178 17.7043L59.4051 17.7413C59.4584 17.7463 59.5101 17.7628 59.5567 17.7898C59.6033 17.8167 59.6438 17.8534 59.6755 17.8975C59.7073 17.9416 59.7295 17.9921 59.7408 18.0457C59.752 18.0992 59.7521 18.1546 59.7409 18.2082L59.6435 18.6734C59.6077 18.8493 59.5208 19.01 59.3941 19.1345C59.2674 19.259 59.1069 19.3414 58.9337 19.3709C56.5839 19.7735 50.6382 21.0719 46.1906 24.4197C46.1138 24.477 46.0489 24.5493 45.9994 24.6323C45.95 24.7154 45.9171 24.8076 45.9026 24.9038C45.8881 24.9999 45.8923 25.0979 45.915 25.1924C45.9376 25.2868 45.9783 25.3758 46.0346 25.4541C46.091 25.5324 46.1619 25.5986 46.2433 25.6488C46.3247 25.699 46.415 25.7322 46.509 25.7467C46.603 25.7611 46.6989 25.7563 46.7911 25.7328C46.8834 25.7092 46.9701 25.6672 47.0464 25.6092C51.2435 22.4499 56.9247 21.2128 59.1724 20.8277C59.6315 20.7503 60.0569 20.5327 60.3928 20.2036C60.7288 19.8745 60.9597 19.4491 61.0551 18.9834L61.1526 18.5179C61.2047 18.27 61.2068 18.0137 61.1588 17.7649C61.1107 17.516 61.0135 17.2798 60.8732 17.0707C60.7328 16.8616 60.5522 16.684 60.3425 16.5487C60.1327 16.4135 59.8982 16.3234 59.6532 16.2841ZM22.8141 34.7927C22.7555 35.3782 22.8188 35.9697 22.9998 36.5284C23.1809 37.087 23.4755 37.6001 23.8645 38.0338C24.3277 38.5564 24.9053 38.9594 25.55 39.2099C26.1947 39.4603 26.8881 39.5512 27.5737 39.4749C28.1877 39.4037 28.7888 39.2439 29.359 39.0003C29.7817 40.2323 30.6182 41.2708 31.7196 41.9309C32.0968 42.1422 32.4105 42.4549 32.6267 42.8352C32.843 43.2154 32.9537 43.6489 32.9468 44.0888C32.9452 44.1354 32.9385 44.1775 32.9349 44.2225C32.1872 44.8417 30.8082 45.484 28.3263 45.4105C25.0324 45.1665 21.7217 45.4811 18.528 46.3415C17.721 46.5597 16.9414 46.8114 16.1893 47.0964C15.3938 45.4589 13.4755 45.1989 13.3932 45.1888C11.506 44.9192 11.5621 42.268 11.5654 42.1572C11.5689 42.0551 11.5517 41.9534 11.5149 41.8584C11.4781 41.7635 11.4224 41.6774 11.3513 41.6056C11.2803 41.5338 11.1955 41.4779 11.1022 41.4413C11.009 41.4048 10.9093 41.3884 10.8096 41.3933C8.99002 41.4821 8.66445 40.5675 8.55779 40.2671C8.44446 39.9126 8.42121 39.5345 8.49023 39.1683C8.55925 38.8021 8.71827 38.4599 8.9523 38.1739C10.1377 36.6571 11.8987 36.4147 12.8429 36.4055C13.6607 36.3967 14.4503 36.0992 15.0783 35.5633C16.6811 34.1923 18.0861 32.1127 19.2627 29.3787C19.5209 29.5432 19.7796 29.7151 20.0388 29.8943C19.9914 30.2193 19.974 30.5481 19.9868 30.8765C20.1411 33.1288 21.6524 34.3142 22.8141 34.7927ZM22.1658 25.5939C21.9641 26.0948 21.6769 26.555 21.3176 26.953C20.9482 27.3792 20.6506 27.8654 20.4373 28.3915C20.0648 28.1445 19.6935 27.9128 19.3243 27.6933L19.3182 27.6896C16.8072 26.1991 14.082 25.1234 11.2431 24.5023C8.58679 23.9138 5.81085 24.4231 3.52005 25.9192C3.47656 25.9476 3.43415 25.9755 3.39481 26.0021C3.19255 26.1364 2.94766 26.1864 2.71048 26.1418C2.4733 26.0971 2.26185 25.9613 2.11958 25.7621L1.99108 25.5837C1.87149 25.4185 1.80655 25.2186 1.80574 25.013C1.80493 24.8074 1.86828 24.607 1.98657 24.4408L2.37134 23.8973C2.67635 23.4655 2.88715 22.9717 2.98946 22.4493L3.1093 21.8334C3.1301 21.7287 3.17454 21.6304 3.23905 21.5464C3.30356 21.4624 3.38638 21.3949 3.48089 21.3494L3.57113 21.3062C3.72537 21.2322 3.90144 21.2213 4.06328 21.2757C4.22513 21.3301 4.36052 21.4458 4.44173 21.599L4.59315 21.8842C4.66996 22.029 4.79189 22.1433 4.93953 22.2091C5.08718 22.2748 5.25207 22.2881 5.40799 22.247C13.9032 20.0061 20.9659 23.2993 22.4808 24.088C22.4739 24.6063 22.3669 25.1181 22.1658 25.5939ZM35.6064 33.3228C30.5133 33.1336 30.1415 27.9012 30.1283 27.6802C30.1283 27.6776 30.1283 27.6752 30.1283 27.6728C30.1283 27.6704 30.1283 27.6699 30.1283 27.6682C30.0381 26.3883 30.0632 25.9469 30.3126 24.5192C30.3781 24.1432 30.46 23.7523 30.5627 23.3242C30.8948 21.9381 31.8412 17.1765 30.6638 12.0324C31.806 11.8686 34.2101 11.9693 35.8194 15.1496C36.0076 15.5236 36.2892 15.8399 36.6356 16.0665C36.982 16.2931 37.3808 16.4219 37.7916 16.4397C37.8816 16.4716 37.9589 16.5328 38.0117 16.6139C38.0645 16.695 38.0899 16.7916 38.084 16.8889C38.0737 17.067 38.0609 17.2524 38.0466 17.4402C37.8528 17.463 37.661 17.5008 37.4727 17.5531C36.9921 17.6865 36.5622 17.9654 36.2394 18.3533C35.9166 18.7412 35.716 19.2198 35.664 19.7264C35.6049 20.2103 35.6923 20.7011 35.9144 21.1325C36.1366 21.5639 36.4828 21.9152 36.9064 22.139C37.0131 22.1966 37.1233 22.2474 37.2363 22.2911C37.1908 22.4403 37.144 22.5833 37.0959 22.7202C37.0459 22.8577 36.9558 22.9762 36.8378 23.0595C36.7197 23.1429 36.5795 23.1871 36.4361 23.1861H32.5281C32.3366 23.1861 32.153 23.2639 32.0176 23.4024C31.8822 23.5409 31.8062 23.7287 31.8062 23.9246C31.8062 24.1204 31.8822 24.3083 32.0176 24.4468C32.153 24.5852 32.3366 24.663 32.5281 24.663H33.2518C33.5017 25.8739 34.479 28.2261 38.267 29.4319C38.3422 29.7086 38.3959 29.991 38.4276 30.2765C38.4923 30.9195 38.3304 31.565 37.971 32.0966C37.7847 31.9393 37.6112 31.7668 37.4521 31.5808C37.3286 31.4349 37.1542 31.3443 36.9661 31.3283C36.7781 31.3124 36.5915 31.3724 36.4462 31.4954C36.3008 31.6185 36.2084 31.7949 36.1886 31.9868C36.1688 32.1787 36.2232 32.3709 36.3402 32.5223C36.5002 32.7133 36.6724 32.8931 36.8558 33.0606C36.4655 33.2479 36.0373 33.3378 35.6064 33.3228Z" fill="white"/>
<path d="M20.7571 0.635538C19.1554 1.09383 17.5987 1.70296 16.107 2.45511C15.9892 2.51726 15.8905 2.61138 15.8215 2.72714C15.7526 2.84291 15.7161 2.97585 15.7161 3.11141V10.3147C15.0919 10.196 14.4597 10.1273 13.8251 10.1093C13.3881 10.0926 12.9556 10.2036 12.578 10.4292C11.5872 11.027 11.1146 12.1027 11.2811 13.3808C11.3043 13.5582 11.3895 13.7209 11.5211 13.8387C11.6527 13.9566 11.8216 14.0216 11.9965 14.0216H16.438C16.6294 14.0216 16.8131 13.9438 16.9484 13.8053C17.0838 13.6669 17.1599 13.479 17.1599 13.2832V6.92649L20.4115 5.99271C20.5408 5.95556 20.6575 5.8822 20.7484 5.78089C20.8392 5.67959 20.9006 5.55435 20.9256 5.41929L21.6547 1.48698C21.6775 1.36407 21.6694 1.23725 21.6311 1.11843C21.5928 0.999612 21.5257 0.892685 21.436 0.807685C21.3462 0.722685 21.2369 0.662398 21.1181 0.63248C20.9994 0.602563 20.8751 0.603996 20.7571 0.636645V0.635538ZM15.7161 12.5447H12.7191C12.7502 12.3679 12.8195 12.2004 12.922 12.0545C13.0245 11.9086 13.1575 11.7879 13.3115 11.7014C13.4548 11.6179 13.6183 11.5778 13.783 11.5856C14.4331 11.6033 15.0802 11.6824 15.7161 11.8219V12.5447ZM19.5907 4.69449L17.1599 5.39252V3.56908C18.0866 3.12364 19.0396 2.73772 20.0133 2.41357L19.5907 4.69449Z" fill="white"/>
<path d="M49.4283 8.43425C49.0995 8.54366 48.8091 8.74899 48.5928 9.02499C48.3765 9.30099 48.2437 9.63564 48.2109 9.98779C48.1726 10.3343 48.234 10.6847 48.3876 10.996C48.5412 11.3072 48.7803 11.5659 49.0755 11.7402L49.1017 11.7557C49.4847 11.9807 49.9374 12.0471 50.3668 11.9414C51.2692 11.7198 51.8941 11.2729 52.2226 10.6122C52.5 10.0095 52.5362 9.31983 52.3233 8.69031L51.9577 4.90403V4.89997C51.9577 4.89813 51.9577 4.89628 51.9577 4.89443L51.4937 0.656219C51.4818 0.547894 51.4466 0.4436 51.3907 0.350822C51.3348 0.258044 51.2595 0.179084 51.1702 0.119609C51.0809 0.0601345 50.9798 0.0216196 50.8742 0.00682941C50.7686 -0.00796078 50.6612 0.00134049 50.5595 0.0340656C50.4004 0.085204 46.6355 1.30791 44.261 2.97813C44.1402 3.06317 44.0475 3.18386 43.9953 3.32413C43.9432 3.4644 43.9341 3.61759 43.9692 3.7633L44.6369 6.53474C44.6622 6.64939 44.9717 8.03677 45.4606 9.52403C45.0601 9.57001 44.6651 9.65697 44.2816 9.7836C43.9527 9.89291 43.6622 10.0982 43.4459 10.3742C43.2296 10.6503 43.0969 10.985 43.0641 11.3371C43.0257 11.684 43.0872 12.0349 43.2411 12.3465C43.395 12.6581 43.6346 12.9169 43.9304 13.091L43.9544 13.1054C44.3374 13.3299 44.7899 13.396 45.219 13.29C46.1213 13.0685 46.7465 12.6215 47.0751 11.9608C47.2189 11.6451 47.2987 11.3029 47.3097 10.9549C47.3207 10.6068 47.2628 10.2601 47.1394 9.93554C46.7769 8.94796 46.4683 7.94057 46.215 6.918L48.886 6.28847C49.0727 6.2444 49.2346 6.12628 49.3361 5.96009C49.4377 5.79391 49.4705 5.59327 49.4274 5.40231C49.3844 5.21136 49.2689 5.04573 49.1064 4.94186C48.944 4.83799 48.7478 4.8044 48.5612 4.84847L45.8685 5.48299L45.4908 3.91708C47.0174 2.946 49.0378 2.14219 50.1562 1.73345L50.5213 5.05893L50.8198 8.15124C50.347 8.19117 49.8801 8.28612 49.4283 8.43425ZM45.7851 11.2987C45.6552 11.5526 45.352 11.7396 44.8828 11.8546C44.8055 11.8718 44.7247 11.8575 44.6575 11.8147C44.6022 11.7832 44.5576 11.7352 44.5294 11.6772C44.5012 11.6192 44.4909 11.5538 44.4998 11.4896C44.5051 11.4206 44.5305 11.3548 44.5725 11.3006C44.6146 11.2465 44.6715 11.2063 44.736 11.1854C45.1037 11.0656 45.4841 10.9912 45.869 10.9639C45.8651 11.0804 45.8364 11.1946 45.7851 11.2987ZM50.9358 9.94237C50.8077 10.1999 50.5027 10.3893 50.0304 10.5053C49.953 10.5226 49.8721 10.5083 49.8048 10.4656C49.7495 10.434 49.7048 10.386 49.6766 10.3279C49.6484 10.2699 49.6381 10.2045 49.6469 10.1403C49.6523 10.0713 49.6776 10.0056 49.7197 9.9514C49.7617 9.89722 49.8185 9.85706 49.883 9.83604C50.2506 9.71649 50.6309 9.64212 51.0158 9.6145C51.0122 9.72829 50.9852 9.84003 50.9364 9.94237H50.9358Z" fill="white"/>
<path d="M33.6333 17.3525C33.6677 17.3525 33.7021 17.35 33.7362 17.3451C34.3197 17.2313 34.8568 16.942 35.2789 16.5143C35.3486 16.4473 35.4046 16.3667 35.4436 16.2773C35.4826 16.1879 35.5039 16.0915 35.5061 15.9936C35.5084 15.8958 35.4916 15.7984 35.4567 15.7073C35.4219 15.6161 35.3696 15.5329 35.3031 15.4626C35.2365 15.3923 35.1569 15.3362 35.069 15.2976C34.981 15.259 34.8865 15.2387 34.7908 15.2378C34.6951 15.237 34.6002 15.2556 34.5116 15.2926C34.423 15.3296 34.3425 15.3842 34.2747 15.4533C34.0677 15.6654 33.8073 15.8147 33.5225 15.8848C33.343 15.9135 33.1806 16.0104 33.0679 16.1562C32.9551 16.302 32.9002 16.4859 32.9142 16.6712C32.9282 16.8566 33.01 17.0297 33.1433 17.156C33.2766 17.2824 33.4516 17.3527 33.6333 17.3528V17.3525Z" fill="white"/>
</g>
<defs>
<clipPath id="clip0_3_41">
<rect width="61" height="60" fill="white"/>
</clipPath>
</defs>
</svg>
