<svg width="55" height="60" viewBox="0 0 55 60" fill="none" xmlns="http://www.w3.org/2000/svg">
<path d="M48.9396 43.7688C52.5859 39.7075 54.7052 34.6377 54.9714 29.3391C55.238 24.0405 53.6364 18.8064 50.4142 14.4432C47.1918 10.0794 42.5266 6.8277 37.1367 5.18881C31.7467 3.54929 25.9308 3.61344 20.5838 5.37091C20.0432 3.73922 19.5669 2.10754 19.2474 0.845952C19.127 0.351101 18.6564 0 18.1143 0C17.5721 0 17.1016 0.351101 16.9812 0.845952C16.0982 4.33222 14.1339 10.3913 12.6118 11.8107C11.0896 13.2302 4.6164 15.0741 0.891837 15.9064H0.891318C0.368872 16.0235 0 16.461 0 16.9641C0 17.4672 0.368872 17.9048 0.891318 18.0218C2.11728 18.2937 3.63995 18.6798 5.18553 19.1096L5.02885 19.4684V19.4689C3.36506 23.5146 2.89343 27.9042 3.66177 32.1793C4.43066 36.4537 6.41147 40.4572 9.39824 43.77L7.70178 53.0162C7.69607 53.0779 7.69607 53.1396 7.70178 53.2013C7.70178 57.6665 18.5154 60 29.2021 60C39.8881 60 50.7024 57.6665 50.7024 53.2013C50.7076 53.1396 50.7076 53.0779 50.7024 53.0162L48.9396 43.7688ZM14.256 13.3492C15.7554 11.9458 17.1614 8.22007 18.1144 5.27235C19.0556 8.22007 20.4735 11.9458 21.9729 13.3492C23.4723 14.7526 27.4583 16.0687 30.6075 16.9661C27.4583 17.8471 23.4717 19.1743 21.9729 20.5777C20.4735 21.9812 19.0675 25.7069 18.1144 28.6599C17.1733 25.7064 15.7554 21.9807 14.256 20.5777C12.7566 19.1743 8.77055 17.8583 5.62134 16.9661C8.77055 16.0794 12.7572 14.7521 14.256 13.3492ZM7.1903 20.2838L7.40509 19.789C9.72938 20.5451 11.8327 21.3881 12.6347 22.1171C14.1569 23.5366 16.1212 29.5956 17.0041 33.0819L17.0046 33.0814C17.125 33.5763 17.5951 33.9274 18.1377 33.9274C18.6799 33.9274 19.1505 33.5763 19.2708 33.0814C20.1538 29.5951 22.1181 23.5361 23.6402 22.1166C25.1624 20.6971 31.6356 18.8533 35.3602 18.0209H35.3607C35.8831 17.9039 36.252 17.4664 36.252 16.9633C36.252 16.4602 35.8831 16.0226 35.3607 15.9056C31.6128 15.0786 25.1396 13.2511 23.6168 11.8099C22.8962 11.1407 22.0769 9.42211 21.3216 7.45874C26.3759 5.79697 31.8852 5.80132 36.9368 7.47137C41.988 9.14196 46.2775 12.3771 49.0952 16.6419C51.9129 20.9061 53.0895 25.9439 52.4296 30.9199C51.7696 35.8959 49.313 40.5113 45.4671 44.0019C41.6211 47.4921 36.6166 49.6478 31.2823 50.1116C25.9484 50.5754 20.6051 49.3191 16.1386 46.551C11.6716 43.7829 8.34918 39.6697 6.72218 34.8922C5.09465 30.1152 5.26014 24.9608 7.19066 20.2835L7.1903 20.2838ZM29.1555 57.8505C17.5978 57.8505 10.172 55.1801 9.97945 53.2983L11.3626 45.7488C16.157 50.0256 22.5259 52.411 29.1494 52.411C35.7725 52.411 42.1414 50.0256 46.9361 45.7488L48.3307 53.2983C48.1387 55.1801 40.713 57.8505 29.1547 57.8505H29.1555Z" fill="white"/>
</svg>
