<svg width="57" height="60" viewBox="0 0 57 60" fill="none" xmlns="http://www.w3.org/2000/svg">
<path d="M0 31.0139C0 31.3718 0.159219 31.7296 0.636872 31.9682L3.66201 33.7575C1.43296 35.7853 0.159218 38.2903 0.159218 40.9145V58.8072C0.159218 59.5229 0.79609 60 1.7514 60H55.2486C56.2039 60 56.8408 59.5229 56.8408 58.8072V40.9145C56.8408 38.2903 55.567 35.7853 53.338 33.7575L56.3631 31.9682C56.6816 31.7296 57 31.3718 57 31.0139C57 30.6561 56.8408 30.2982 56.3631 30.0596L44.1034 22.1869C44.2626 21.5905 44.2626 20.8748 44.2626 20.2783V16.1034H51.5866C52.5419 16.1034 53.1788 15.6262 53.1788 14.9105C53.1788 14.4334 52.8603 14.0755 52.3827 13.837L45.3771 9.30418L41.2374 0.83499C41.0782 0.357853 40.4413 0 39.8045 0H16.8771C16.2402 0 15.6034 0.357853 15.4441 0.83499L11.3045 9.30418L4.13966 13.9563C3.66201 14.3141 3.50279 14.7913 3.66201 15.2684C3.82123 15.7455 4.4581 15.9841 5.09497 15.9841H12.419V20.159C12.419 20.8748 12.5782 21.4712 12.5782 22.0676L0.477654 30.0596C0.159218 30.2982 0 30.6561 0 31.0139ZM53.4972 40.9145V57.6143H48.243V51.8887C48.243 51.173 47.6061 50.6958 46.6508 50.6958C45.6955 50.6958 45.0587 51.173 45.0587 51.8887V57.6143H11.6229V51.8887C11.6229 51.173 10.986 50.6958 10.0307 50.6958C9.07542 50.6958 8.43855 51.173 8.43855 51.8887V57.6143H3.18436V40.9145C3.18436 38.8867 4.13966 36.8589 5.89106 35.3082L12.5782 39.3638L8.9162 42.4652C8.59776 42.7038 8.43855 43.0616 8.43855 43.4195C8.43855 43.7773 8.75698 44.0159 9.07542 44.2545L27.2263 55.1093C27.2263 55.1093 27.2263 55.1093 27.3855 55.1093L27.5447 55.2286C27.7039 55.3479 28.0223 55.3479 28.1816 55.3479C28.3408 55.3479 28.6592 55.3479 28.8184 55.2286L28.9777 55.1093C28.9777 55.1093 28.9777 55.1093 29.1369 55.1093L47.2877 44.2545C47.6061 44.0159 47.9246 43.7773 47.9246 43.4195C47.9246 43.0616 47.7654 42.8231 47.4469 42.4652L43.7849 39.3638L50.4721 35.3082C52.5419 36.8589 53.4972 38.8867 53.4972 40.9145ZM28.3408 39.006L22.2905 31.2525C24.2011 31.8489 26.1117 32.0875 28.3408 32.0875C30.5698 32.0875 32.4804 31.7296 34.3911 31.2525L28.3408 39.006ZM52.7011 31.0139L40.7598 38.2903C40.4413 38.5288 40.2821 38.7674 40.1229 39.1252C39.9637 39.4831 40.2821 39.7217 40.6006 39.9602L44.2626 43.0616L29.933 51.5308V41.6302L41.0782 27.1968C41.8743 26.4811 42.5112 25.6461 42.9888 24.6919L52.7011 31.0139ZM17.9916 2.50497H38.8492L41.8743 8.94632H14.8073L17.9916 2.50497ZM13.2151 11.2127H43.6257L47.4469 13.7177H9.39386L13.2151 11.2127ZM40.919 16.1034V20.2783C40.919 25.5268 35.1872 29.7018 28.3408 29.7018C21.4944 29.7018 15.7626 25.4076 15.7626 20.2783V16.1034H40.919ZM13.6927 24.8111C14.1704 25.6461 14.8073 26.4811 15.6034 27.3161L26.7486 41.7495V51.5308L12.419 43.0616L16.081 39.9602C16.3994 39.7217 16.5587 39.3638 16.5587 39.1252C16.5587 38.8867 16.2402 38.5288 15.9218 38.2903L3.98045 31.0139L13.6927 24.8111Z" fill="white"/>
</svg>
