<svg width="16" height="16" viewBox="0 0 16 16" fill="none" xmlns="http://www.w3.org/2000/svg">
<g opacity="1" clip-path="url(#clip0_0_29)">
<path d="M1.55556 5.55556C1.55556 4.51852 1.81481 3.59259 2.33333 2.77778C2.85185 1.96296 3.51852 1.2963 4.33333 0.777778C5.14815 0.259259 6.07407 0 7.11111 0C8.14815 0 9.07407 0.259259 9.88889 0.777778C10.7037 1.2963 11.3704 1.96296 11.8889 2.77778C12.4074 3.59259 12.6667 4.51852 12.6667 5.55556V10.8889L12.8889 11.3333L14 12.4444C14.1481 12.7407 14.2222 13.037 14.2222 13.3333C14.2222 13.6296 14.1111 13.8889 13.8889 14.1111C13.6667 14.3333 13.4074 14.4444 13.1111 14.4444H9.33333C9.18519 14.8889 8.88889 15.2593 8.44444 15.5556C8 15.8519 7.55556 16 7.11111 16C6.66667 16 6.22222 15.8519 5.77778 15.5556C5.33333 15.2593 5.03704 14.8889 4.88889 14.4444H1.11111C0.814815 14.4444 0.555556 14.3333 0.333333 14.1111C0.111111 13.8889 0 13.6296 0 13.3333C0 13.037 0.0740741 12.7407 0.222222 12.4444L1.33333 11.3333L1.55556 10.8889V5.55556ZM10.8889 11.3333C10.7407 11.037 10.6667 10.6667 10.6667 10.2222V5.55556C10.6667 4.96296 10.5185 4.37037 10.2222 3.77778C9.92593 3.18519 9.48148 2.74074 8.88889 2.44444C8.2963 2.14815 7.7037 2 7.11111 2C6.51852 2 5.92593 2.14815 5.33333 2.44444C4.74074 2.74074 4.2963 3.18519 4 3.77778C3.7037 4.37037 3.55556 4.96296 3.55556 5.55556V10.2222L3.33333 11.3333C3.33333 11.7778 3.18519 12.1481 2.88889 12.4444H11.3333C11.037 12.1481 10.8889 11.7778 10.8889 11.3333Z" fill="white"/>
</g>
<defs>
<clipPath id="clip0_0_29">
<rect width="16" height="16" fill="white" transform="matrix(1 0 0 -1 0 16)"/>
</clipPath>
</defs>
</svg>
