<svg width="64" height="73" viewBox="0 0 64 73" fill="none" xmlns="http://www.w3.org/2000/svg">
<path d="M21 64.5C21.6667 66.5 23.1667 68.3333 25.5 70C27.8333 71.6667 30.3333 72.5 33 72.5C35.6667 72.5 38.1667 71.8333 40.5 70.5C42.8333 69.1667 44.3333 67.1667 45 64.5C45 63.8333 45 63.3333 45 63C45 62.6667 44.6667 62.3333 44 62C43.3333 61.6667 42.8333 61.6667 42.5 62C42.1667 62.3333 41.6667 63 41 64C40.3333 65 39.3333 66 38 67C36.6667 68 35 68.5 33 68.5C31 68.5 29.3333 68 28 67C26.6667 66 25.6667 64.8333 25 63.5C24.3333 62.1667 23.8333 61.5 23.5 61.5C23.1667 61.5 22.6667 61.5 22 61.5C21.3333 61.5 21 61.8333 21 62.5C21 63.1667 21 63.8333 21 64.5ZM28 18.5C24.6667 18.5 21.6667 19.8333 19 22.5C16.3333 25.1667 15 28.1667 15 31.5C15 32.1667 15.1667 32.6667 15.5 33C15.8333 33.3333 16.3333 33.5 17 33.5C17.6667 33.5 18.1667 33.3333 18.5 33C18.8333 32.6667 19 32.1667 19 31.5C19 28.8333 19.8333 26.6667 21.5 25C23.1667 23.3333 25.3333 22.5 28 22.5C28.6667 22.5 29.1667 22.3333 29.5 22C29.8333 21.6667 30 21.1667 30 20.5C30 19.8333 29.8333 19.3333 29.5 19C29.1667 18.6667 28.6667 18.5 28 18.5ZM14 5.5C10 8.16667 6.66667 11.5 4 15.5C1.33333 19.5 0 24.1667 0 29.5C0 30.1667 0.166667 30.6667 0.5 31C0.833333 31.3333 1.33333 31.5 2 31.5C2.66667 31.5 3.16667 31.3333 3.5 31C3.83333 30.6667 4 30.1667 4 29.5C4 25.5 5 21.6667 7 18C9 14.3333 12 11.5 16 9.5C16.6667 8.83333 17 8.33333 17 8C17 7.66667 16.8333 7.16667 16.5 6.5C16.1667 5.83333 15.8333 5.5 15.5 5.5C15.1667 5.5 14.6667 5.5 14 5.5ZM50 5.5C49.3333 5.5 48.8333 5.5 48.5 5.5C48.1667 5.5 47.8333 5.83333 47.5 6.5C47.1667 7.16667 47 7.66667 47 8C47 8.33333 47.3333 8.83333 48 9.5C52 11.5 55 14.3333 57 18C59 21.6667 60 25.5 60 29.5C60 30.1667 60.1667 30.6667 60.5 31C60.8333 31.3333 61.3333 31.5 62 31.5C62.6667 31.5 63.1667 31.3333 63.5 31C63.8333 30.6667 64 30.1667 64 29.5C64 24.1667 62.6667 19.5 60 15.5C57.3333 11.5 54 8.16667 50 5.5Z" fill="#7E798F"/>
<path d="M38 11.5C38.6667 10.1667 39 8.66667 39 7C39 5.33333 38.3333 3.83333 37 2.5C35.6667 1.16667 34 0.5 32 0.5C30 0.5 28.3333 1.16667 27 2.5C25.6667 3.83333 25 5.33333 25 7C25 8.66667 25.3333 10.1667 26 11.5C22.6667 12.1667 19.6667 13.3333 17 15C14.3333 16.6667 12.1667 19 10.5 22C8.83333 25 8 28.1667 8 31.5V45.5C8 48.1667 6.66667 50.5 4 52.5C2.66667 53.8333 1.66667 55 1 56C0.333333 57 0 58.3333 0 60C0 61.6667 0.5 63 1.5 64C2.5 65 4 65.5 6 65.5H58C60 65.5 61.5 65 62.5 64C63.5 63 64 61.6667 64 60C64 58.3333 63.6667 57 63 56C62.3333 55 61.3333 53.8333 60 52.5C57.3333 50.5 56 48.1667 56 45.5V31.5C56 28.1667 55.1667 25 53.5 22C51.8333 19 49.6667 16.6667 47 15C44.3333 13.3333 41.3333 12.1667 38 11.5ZM33 14.5C35 14.5 37 14.8333 39 15.5C41 16.1667 43 17.1667 45 18.5C49.6667 21.8333 52 26.1667 52 31.5V45.5C52 49.5 54 53.1667 58 56.5L60 57.5V59.5V61.5H58H6H4V59.5V57.5L6 56.5C10 53.1667 12 49.5 12 45.5V31.5C12 26.1667 14.3333 21.8333 19 18.5C21 17.1667 23 16.1667 25 15.5C27 14.8333 29 14.5 31 14.5H33ZM32 10.5C31.3333 10.5 30.6667 10.1667 30 9.5C29.3333 8.83333 29 8.16667 29 7.5C29 6.83333 29.3333 6.16667 30 5.5C30.6667 4.83333 31.3333 4.5 32 4.5C32.6667 4.5 33.3333 4.83333 34 5.5C34.6667 6.16667 35 6.83333 35 7.5C35 8.16667 34.6667 8.83333 34 9.5C33.3333 10.1667 32.6667 10.5 32 10.5Z" fill="#7E798F"/>
</svg>
