<svg width="10" height="17" viewBox="0 0 10 17" fill="none" xmlns="http://www.w3.org/2000/svg">
<path d="M5.00001 9.06819C3.88277 9.06819 2.92896 8.67237 2.13856 7.88069C1.34818 7.08902 0.952992 6.13665 0.952992 5.02354C0.952992 3.9045 1.34818 2.94915 2.13856 2.15747C2.92897 1.3658 3.88278 0.969971 5.00001 0.969971C6.11725 0.969971 7.07106 1.36579 7.86146 2.15747C8.65184 2.94915 9.04702 3.9045 9.04702 5.02354C9.04702 6.13665 8.65183 7.08902 7.86146 7.88069C7.07105 8.67236 6.11724 9.06819 5.00001 9.06819ZM5.00001 3.02354C4.45328 3.02354 3.98529 3.21848 3.59603 3.60838C3.20678 3.99825 3.01214 4.46998 3.01214 5.02354C3.01214 5.57117 3.20678 6.03992 3.59603 6.42979C3.98529 6.81968 4.45328 7.0146 5.00001 7.0146C5.54674 7.0146 6.01473 6.81968 6.40398 6.42979C6.79324 6.03991 6.98787 5.57117 6.98787 5.02354C6.98787 4.46997 6.79324 3.99824 6.40398 3.60838C6.01473 3.21848 5.54674 3.02354 5.00001 3.02354ZM9.6621 9.55926C9.73937 9.71998 9.78392 9.86729 9.79581 10.0012C9.8077 10.1352 9.79432 10.2557 9.7557 10.3628C9.71707 10.47 9.63834 10.5846 9.51946 10.7066C9.40062 10.8286 9.27432 10.9387 9.14063 11.0369C9.00692 11.1352 8.82418 11.2587 8.59242 11.4075C7.90899 11.842 6.97301 12.1218 5.78446 12.2468L6.43519 12.8896L8.81527 15.2735C8.99354 15.4581 9.08268 15.6783 9.08268 15.9343C9.08268 16.1902 8.99354 16.4075 8.81527 16.5861L8.70829 16.7021C8.52406 16.8807 8.30418 16.97 8.04865 16.97C7.7931 16.97 7.57323 16.8807 7.38901 16.7021C6.99084 16.2974 6.19748 15.4997 5.00893 14.3093L2.62885 16.7021C2.44462 16.8807 2.22474 16.97 1.96921 16.97C1.71366 16.97 1.49677 16.8807 1.31847 16.7021L1.21151 16.5861C1.02728 16.4075 0.935168 16.1902 0.935168 15.9343C0.935168 15.6783 1.02728 15.4581 1.21151 15.2735L4.23338 12.2468C3.02701 12.1218 2.0851 11.842 1.4076 11.4075C1.17584 11.2587 0.993096 11.1352 0.859384 11.0369C0.725696 10.9387 0.5994 10.8286 0.480552 10.7066C0.36168 10.5846 0.282944 10.47 0.24432 10.3628C0.205696 10.2557 0.19232 10.1352 0.204208 10.0012C0.216096 9.86729 0.260656 9.71998 0.33792 9.55926C0.397344 9.44022 0.480544 9.33604 0.587504 9.24675C0.694488 9.15747 0.819264 9.09199 0.961896 9.05035C1.10452 9.00867 1.27093 9.0146 1.46109 9.06819C1.65125 9.12176 1.84439 9.22593 2.0405 9.3807C2.07022 9.4045 2.11479 9.43724 2.17422 9.47892C2.23364 9.52056 2.36142 9.59349 2.55752 9.69767C2.75364 9.80182 2.95866 9.89259 3.17261 9.96998C3.38655 10.0474 3.65991 10.1188 3.9927 10.1843C4.3255 10.2497 4.66126 10.2825 5 10.2825C5.54079 10.2825 6.05782 10.2066 6.55105 10.0548C7.04431 9.903 7.40088 9.75271 7.62075 9.60391L7.9595 9.38069C8.15562 9.22593 8.34875 9.12175 8.53891 9.06819C8.72907 9.01459 8.89548 9.00867 9.0381 9.05034C9.18073 9.09199 9.30551 9.15747 9.4125 9.24675C9.51946 9.33603 9.60267 9.44021 9.6621 9.55926Z" fill="white"/>
</svg>
