                <svg
                  version="1.1"
                  xmlns="http://www.w3.org/2000/svg"
                  width="78px"
                  height="78px"
                  viewBox="0,0,256,256"
                >
                  <g
                    fill="#e0e0e0"
                    fill-rule="nonzero"
                    stroke="none"
                    stroke-width="1"
                    stroke-linecap="butt"
                    stroke-linejoin="miter"
                    stroke-miterlimit="10"
                    stroke-dasharray=""
                    stroke-dashoffset="0"
                    font-family="none"
                    font-weight="none"
                    font-size="none"
                    text-anchor="none"
                  >
                    <g transform="scale(5.33333,5.33333)">
                      <path d="M11.39648,4.11133c-2.29228,0.09069 -4.39648,1.96085 -4.39648,4.48047v30.81641c0,3.35949 3.74276,5.56369 6.68164,3.93555l27.80859,-15.4082c3.02344,-1.67529 3.02344,-6.19581 0,-7.87109l-27.80859,-15.4082c-0.73472,-0.40704 -1.52106,-0.57515 -2.28516,-0.54492zM11.43164,7.06641c0.25859,-0.00111 0.52964,0.06593 0.79492,0.21289l27.81055,15.4082c1.09856,0.60871 1.09856,2.01629 0,2.625l-27.81055,15.4082c-1.06112,0.58786 -2.22656,-0.09999 -2.22656,-1.3125v-30.81641c0,-0.60625 0.29071,-1.08018 0.71484,-1.33008c0.21207,-0.12495 0.4582,-0.1942 0.7168,-0.19531z"></path>
                    </g>
                  </g>
                </svg>