<svg width="50" height="60" viewBox="0 0 50 60" fill="none" xmlns="http://www.w3.org/2000/svg">
<path d="M47.5938 27.7142C46.9617 26.6416 46.0198 25.4603 45.7464 25.1216C45.7126 25.0802 45.6788 25.0424 45.6406 25.0067C43.9945 23.0076 43.1954 21.0814 43.1954 19.1212V14.5831C43.1954 6.5406 35.0362 0 25.0015 0C14.963 0 6.80102 6.54126 6.80102 14.5831V19.1212C6.80102 21.1044 5.9528 23.1194 4.27423 25.1053C3.74401 25.7422 2.72118 27.181 2.40508 27.7137C0.808677 30.4044 0 33.2953 0 36.3027C0 46.3631 9.24134 55.8597 9.33499 55.9538C11.8739 58.5265 17.5808 60 25.0013 60C32.4187 60 38.1294 58.5264 40.6632 55.9538C40.7524 55.8588 50 46.3597 50 36.3027C50.0013 33.301 49.1913 30.4096 47.5936 27.7142L47.5938 27.7142ZM16.3712 12.6866C16.9734 12.801 17.5897 12.8659 18.2193 12.8659C21.0686 12.8659 23.5699 11.6702 25.0019 9.87537C26.4319 11.6706 28.932 12.8659 31.7814 12.8659C32.4097 12.8659 33.0234 12.801 33.6264 12.6886C33.7863 13.2178 33.8787 13.7673 33.8787 14.3378C33.8787 18.2605 29.8957 21.4538 25.0027 21.4538C20.1026 21.4538 16.1202 18.2599 16.1202 14.3378C16.1202 13.7678 16.2133 13.2182 16.3713 12.6865L16.3712 12.6866ZM17.3354 10.7615C18.6565 8.95184 20.9373 7.65711 23.6121 7.3195C23.0908 9.3207 20.8717 10.83 18.2187 10.83C17.9211 10.8305 17.626 10.7977 17.3354 10.7615ZM26.3862 7.3195C29.0621 7.65711 31.343 8.95184 32.6622 10.7599C32.3729 10.7967 32.0816 10.8309 31.7821 10.8309C29.1273 10.8304 26.9113 9.32057 26.3862 7.3195ZM25.0026 23.4873C25.0186 23.4873 25.0377 23.4853 25.0587 23.4853C27.4403 27.6857 32.7539 30.4613 38.5583 30.4613H39.26C38.6157 36.3203 32.471 40.9257 25.0026 40.9257C17.5279 40.9257 11.385 36.3201 10.7395 30.4618H11.436C17.2436 30.4618 22.5547 27.6863 24.9389 23.4858C24.9618 23.4848 24.9803 23.4873 25.0026 23.4873ZM8.20197 30.4612C8.29119 31.3944 8.49449 32.2979 8.80293 33.1677C6.91975 32.9721 5.39924 31.8939 4.89953 30.4612H8.20197ZM10.261 35.9923C11.795 38.2014 14.0719 40.0298 16.825 41.2572C15.0164 42.3477 12.2793 42.2568 10.6491 40.9518C8.95978 39.5988 8.84442 37.4715 10.261 35.9923ZM25.0026 42.9606C26.6131 42.9606 28.1686 42.7665 29.6466 42.4263C29.3457 44.2768 27.3919 45.7145 25.0026 45.7145C22.6103 45.7145 20.6551 44.2768 20.3581 42.4263C21.8321 42.7665 23.3909 42.9606 25.0026 42.9606ZM39.7392 35.9933C40.3707 36.6502 40.7321 37.4408 40.7321 38.2845C40.7321 39.2923 40.2439 40.2392 39.3536 40.9497C37.6647 42.3007 35.0156 42.3952 33.1719 41.2597C35.9237 40.0303 38.2071 38.2018 39.7392 35.9933ZM41.7982 30.4612H45.1039C44.5979 31.8934 43.0766 32.9721 41.198 33.1693C41.5084 32.3005 41.7109 31.3944 41.7982 30.4612ZM9.34382 19.1213V14.5832C9.34382 7.66234 16.3641 2.03335 25.0025 2.03335C33.6351 2.03335 40.6593 7.66299 40.6593 14.5832V19.1213C40.6593 21.4968 41.6541 23.8959 43.6163 26.2428C43.6418 26.2745 43.6705 26.3056 43.7036 26.3317C44.1771 26.9257 44.7743 27.7352 45.2044 28.4294H38.5582C34.0132 28.4294 29.8363 26.3756 27.7218 23.2135C32.7028 22.2308 36.4144 18.6293 36.4144 14.338C36.4144 9.2932 31.295 5.18724 25.0019 5.18724C18.7068 5.18724 13.5837 9.29228 13.5837 14.338C13.5837 18.6293 17.2946 22.2307 22.2762 23.2135C20.1573 26.3756 15.9791 28.4294 11.4341 28.4294H4.79556C5.14288 27.8839 5.96944 26.7331 6.3773 26.2443C8.34402 23.9163 9.34382 21.5188 9.34382 19.1213ZM38.6707 54.6931C37.9137 55.4612 34.6921 57.966 25.0017 57.966C15.3086 57.966 12.0832 55.4618 11.3275 54.6931C8.88294 52.2122 2.53676 44.0719 2.53676 36.3024C2.53676 34.9336 2.72859 33.5949 3.0963 32.2879C4.10258 33.7175 5.83909 34.7732 7.90206 35.1251C6.08381 37.3694 6.39552 40.4156 8.85225 42.3871C10.2237 43.4837 12.0399 44.0895 13.9742 44.0895C15.3973 44.0895 16.7521 43.7555 17.9164 43.1487C18.6066 45.7724 21.5209 47.745 25.0018 47.745C28.4776 47.745 31.3899 45.7724 32.0833 43.1487C33.2782 43.7718 34.6535 44.0839 36.0268 44.0839C37.8775 44.0839 39.7326 43.5185 41.1455 42.3871C42.5131 41.29 43.2714 39.8348 43.2714 38.2831C43.2714 37.141 42.8527 36.0541 42.0975 35.1246C44.1572 34.7727 45.8939 33.7179 46.9013 32.2873C47.2716 33.5939 47.4641 34.933 47.4641 36.3019C47.4653 44.07 41.1167 52.2095 38.6709 54.6925L38.6707 54.6931Z" fill="white"/>
</svg>
