<svg xmlns="http://www.w3.org/2000/svg" xmlns:xlink="http://www.w3.org/1999/xlink" version="1.1" width="45" height="50" viewBox="0 0 45 50" xml:space="preserve">
<g transform="matrix(0.0728571429 0 0 0.0728571429 22.5 31.7073170732)" id="OLp4xYKRUPh5i8n0k6COa"  >
<g vector-effect="non-scaling-stroke"   >
		<g transform="matrix(1.3333333333 0 0 1.3333333333 -0.0086737607 -93.3337134899)" id="sZGgDePxyqPI4cP17Aniv"  >
<path stroke="none" fill="white" transform=" translate(-349.9934946795, -279.9997148825)" d="M 349.12 33.656 C 280.272 36.355199999999996 227.8 60.742 193.19 98.22999999999999 C 158.522 135.781 142.108 185.867 142.792 238.92999999999998 C 144.1514 344.77 213.136 463.04999999999995 344.04200000000003 524.88 C 348.27250000000004 526.8488 352.41700000000003 526.8136 355.76500000000004 524.88 C 486.725 463.06399999999996 555.825 344.81 557.195 238.93 C 557.8825 185.864 541.2850000000001 135.78 506.62100000000004 98.23000000000002 C 472.312 61.06200000000002 420.422 36.87500000000002 352.44100000000003 33.83200000000002 C 351.2379 33.83200000000002 350.1949 33.71481000000002 349.1168 33.65622000000002 z M 349.46766 56.054 C 349.76454 56.065718000000004 350.04969 56.042281 350.34266 56.054 C 414.14366 58.6712 459.98266 80.577 490.16266 113.281 C 520.49066 146.133 535.41266 190.488 534.78766 238.76100000000002 C 533.55716 334.062 471.18265999999994 443.961 349.98765999999995 502.831 C 228.70765999999995 443.964 166.41765999999996 334.081 165.18765999999994 238.76100000000002 C 164.56656999999993 190.49500000000003 179.30465999999993 146.14000000000004 209.63665999999995 113.28100000000002 C 239.82765999999995 80.58200000000002 285.66765999999996 58.67600000000002 349.45665999999994 56.05400000000002 z" stroke-linecap="round" />
</g>
		<g transform="matrix(1.3333333333 0 0 1.3333333333 -118.26567386 -86.7019676954)" id="O1jrTSClj_Vfh4iVJDJuZ"  >
<path stroke="none" fill="white" transform=" translate(-261.300744605, -284.9735242285)" d="M 229.55 212.37 C 220.25310000000002 212.291875 210.413 212.87781 200.054 214.1122 C 197.5813 214.40517 195.222 215.5536 193.4642 217.3114 C 191.70250000000001 219.0692 190.558 221.4325 190.2611 223.9012 C 184.6049 271.1312 192.4955 307.6082 216.0731 330.6312 C 239.6511 353.65819999999997 276.2961 360.9792 322.7031 356.1902 C 328.7969 355.1746 331.0117 351.4363 332.69530000000003 346.2058 C 337.50000000000006 299.88980000000004 330.14450000000005 263.31080000000003 307.04330000000004 239.81580000000002 C 288.9963 221.45680000000002 262.75030000000004 212.65580000000003 229.54730000000006 212.37080000000003 z M 229.16328000000001 234.733 C 258.11628 234.89316 278.14028 242.358 291.06928 255.514 C 306.40128 271.116 313.73328 296.948 311.19828 334.69 C 273.33528 337.2212 247.37828000000002 329.9009 231.71828 314.608 C 216.00328 299.25600000000003 208.39028 273.92 211.59328 235.45600000000002 C 217.78078 234.94428000000002 223.63628 234.70209000000003 229.15928 234.73334000000003 z" stroke-linecap="round" />
</g>
		<g transform="matrix(1.3333333333 0 0 1.3333333333 117.0313487803 -86.7059514996)" id="UGR-jlD5lGE1Rg3b59LlJ"  >
<path stroke="none" fill="white" transform=" translate(-437.7735115852, -284.9705363753)" d="M 469.52 212.37 C 436.32099999999997 212.65516 410.07099999999997 221.452 392.024 239.815 C 368.926 263.315 361.571 299.89300000000003 366.372 346.205 C 367.3915 352.29879999999997 371.13370000000003 354.5136 376.36420000000004 356.1894 C 422.8052 360.97459999999995 459.45020000000005 353.65819999999997 483.02420000000006 330.62739999999997 C 506.59420000000006 307.6004 514.4732 271.12339999999995 508.81720000000007 223.89739999999995 C 508.5203200000001 221.42469999999994 507.3719000000001 219.06539999999995 505.61410000000006 217.30759999999995 C 503.85240000000005 215.54979999999995 501.49300000000005 214.40139999999994 499.0203000000001 214.10839999999996 C 488.6613000000001 212.87399999999997 478.82130000000006 212.28809999999996 469.5243000000001 212.36619999999996 z M 469.90281 234.733 C 475.42620999999997 234.705656 481.28580999999997 234.94394 487.46880999999996 235.45566 C 490.67190999999997 273.92466 483.07041 299.26066 467.36380999999994 314.61166000000003 C 451.71180999999996 329.90466000000004 425.75480999999996 337.22066 387.86380999999994 334.69366 C 385.33260999999993 296.95166 392.66070999999994 271.11566000000005 407.99280999999996 255.51766000000003 C 420.92280999999997 242.36166000000003 440.94580999999994 234.89666000000003 469.89880999999997 234.73666000000003 z" stroke-linecap="round" />
</g>
		<g transform="matrix(1.3333333333 0 0 1.3333333333 -0.1333333333 108.2789476685)" id="vN1eSe5h-N_maCPP5ktBc"  >
<path stroke="none" fill="white" transform=" translate(-349.9, -431.2092107514)" d="M 321.9 420.01 C 318.90779999999995 419.970938 316.0211 421.135 313.8922 423.2405 C 311.7594 425.3421 310.5602 428.2132 310.5602 431.2093 C 310.5602 434.2015 311.7594 437.07259999999997 313.8922 439.1781 C 316.0211 441.2797 318.9078 442.4437 321.9 442.4086 L 377.9 442.4086 C 380.8961 442.44375599999995 383.77889999999996 441.2797 385.9117 439.1781 C 388.0406 437.07259999999997 389.2398 434.20149999999995 389.2398 431.2093 C 389.2398 428.2132 388.0406 425.34209999999996 385.9117 423.2405 C 383.7789 421.135 380.8961 419.971 377.9 420.01 z" stroke-linecap="round" />
</g>
</g>
</g>
</svg>