<svg viewBox="0 0 17 16" fill="none" xmlns="http://www.w3.org/2000/svg">
<g opacity="1" clip-path="url(#clip0_0_25)">
<path d="M12.6867 11.1111C12.8348 11.1111 12.9089 11.1852 12.9089 11.3333L15.5756 14C15.8719 14.2963 16.02 14.5926 16.02 14.8889C16.02 15.1852 15.9089 15.4444 15.6867 15.6667C15.4645 15.8889 15.2052 16 14.9089 16C14.6126 16 14.3163 15.9259 14.02 15.7778L11.1311 12.6667C9.94595 13.5556 8.64965 14 7.24224 14C5.83483 14 4.57558 13.7037 3.46446 13.1111C2.35335 12.5185 1.5015 11.6667 0.908908 10.5556C0.316316 9.44444 0.0200195 8.25926 0.0200195 7C0.0200195 5.74074 0.316316 4.55556 0.908908 3.44444C1.5015 2.33333 2.35335 1.48148 3.46446 0.888888C4.57558 0.296296 5.76076 0 7.02002 0C8.27928 0 9.46446 0.296296 10.5756 0.888888C11.6867 1.48148 12.5385 2.33333 13.1311 3.44444C13.7237 4.55556 14.02 5.81481 14.02 7.22222C14.02 8.62963 13.5756 9.92593 12.6867 11.1111ZM7.13113 2C6.09409 2 5.2052 2.22222 4.46446 2.66667C3.72372 3.11111 3.13113 3.7037 2.68669 4.44444C2.24224 5.18519 2.02002 6.03704 2.02002 7C2.02002 7.96296 2.24224 8.81481 2.68669 9.55556C3.13113 10.2963 3.72372 10.8889 4.46446 11.3333C5.2052 11.7778 6.05706 12 7.02002 12C7.98298 12 8.83483 11.7778 9.57557 11.3333C10.3163 10.8889 10.9089 10.2963 11.3534 9.55556C11.7978 8.81481 12.02 7.96296 12.02 7C12.02 6.03704 11.7978 5.18519 11.3534 4.44444C10.9089 3.7037 10.3163 3.11111 9.57557 2.66667C8.83483 2.22222 8.02002 2 7.13113 2Z" fill="white"/>
</g>
<defs>
<clipPath id="clip0_0_25">
<rect width="16" height="16" fill="white" transform="matrix(1 0 0 -1 0.0200195 16)"/>
</clipPath>
</defs>
</svg>
