<svg width="60" height="60" viewBox="0 0 60 60" fill="none" xmlns="http://www.w3.org/2000/svg">
<path d="M59.4969 50.5667L49.4148 41.8741C54.0774 35.1007 55.7437 26.4049 53.2749 18.7344C49.6268 7.40859 38.7175 1.17133 29.5246 0.0133994C28.7796 -0.0861805 28.0917 0.379018 27.9013 1.0845C27.7103 1.78898 28.0821 2.52462 28.77 2.80314C37.149 6.19324 43.0015 12.3321 44.8272 19.6471C45.4838 22.2704 46.3555 28.7143 41.7686 35.2824L24.5373 20.4284L30.8718 13.2393C31.2491 12.8083 31.34 12.2033 31.0996 11.6871C30.8617 11.1704 30.3395 10.835 29.7592 10.8316L17.9726 10.7449C17.5923 10.7503 17.115 10.9296 16.8301 11.2586L3.3045 26.9104C3.04793 27.2062 2.92419 27.5891 2.95753 27.9775C2.99136 28.3635 3.18127 28.7202 3.4843 28.9694L11.4728 35.5153C12.0986 36.0281 13.0294 35.9478 13.5557 35.3419L19.1557 28.8771L33.8476 41.7514C32.0131 42.4465 30.0268 42.819 27.8812 42.819C23.7186 42.819 19.0432 41.4214 14.7151 38.8859C14.0918 38.5202 13.2928 38.65 12.822 39.1935L0.352113 53.6125C0.0884664 53.9187 -0.0362778 54.3195 0.00918255 54.7183C0.0551433 55.1166 0.267269 55.4798 0.595047 55.7206L6.03051 59.7112C6.29668 59.9059 6.60881 60 6.91891 60C7.3467 60 7.77095 59.8192 8.06389 59.4719L16.1282 49.9034C19.2737 51.353 24.1016 52.7307 29.3758 52.7307C34.0395 52.7307 38.1174 51.6522 41.4947 49.5258C41.7311 49.3777 41.9503 49.2068 42.1816 49.0507L52.7319 58.2922C53.0046 58.532 53.3561 58.6613 53.7208 58.6613C53.7546 58.6613 53.789 58.6603 53.8228 58.6584C54.2218 58.6316 54.5935 58.4468 54.8526 58.1476L59.6466 52.6009C60.1714 51.9965 60.1037 51.0914 59.4966 50.5672L59.4969 50.5667ZM19.9996 25.7111C19.7036 25.45 19.3117 25.3291 18.9102 25.3435C18.5102 25.3712 18.1395 25.555 17.8804 25.8533L12.248 32.3552L6.53429 27.675L18.6452 13.6606L26.5261 13.719L21.33 19.6185C20.7966 20.2239 20.8608 21.137 21.4724 21.6641L39.9281 37.5746C38.9291 38.6606 37.8462 39.5781 36.6806 40.3282L19.9996 25.7111ZM39.893 47.0752C37.0016 48.8949 33.4636 49.8183 29.3756 49.8183C23.9937 49.8183 19.0497 48.1934 16.4511 46.8012C15.8258 46.4648 15.0495 46.6134 14.5959 47.1515L6.6771 56.5461L3.63659 54.3152L14.2889 41.9996C18.8047 44.4431 23.481 45.7277 27.8843 45.7277C33.7 45.7277 38.7724 43.4279 42.5529 39.0781C49.697 30.8616 48.5394 22.2659 47.7091 18.9531C46.6464 14.6966 44.3969 10.805 41.1892 7.5199C45.2873 10.3215 48.751 14.3517 50.445 19.6096C53.6239 29.4873 49.0879 41.2946 39.8933 47.0754L39.893 47.0752ZM53.5738 55.1262L44.5695 47.2386C45.667 46.3028 46.6796 45.2847 47.609 44.1973L56.4411 51.8095L53.5738 55.1262Z" fill="white"/>
</svg>
