<svg width="61" height="60" viewBox="0 0 61 60" fill="none" xmlns="http://www.w3.org/2000/svg">
<path d="M19.9685 56H41.9686C42.2338 56 42.4882 55.8947 42.6757 55.7072C42.8632 55.5197 42.9686 55.2652 42.9686 55V50C42.9686 49.7348 42.8632 49.4804 42.6757 49.2929C42.4882 49.1054 42.2338 49 41.9686 49H19.9685C19.4163 49 18.9685 49.4478 18.9685 50V55C18.9685 55.2652 19.0739 55.5197 19.2614 55.7072C19.4489 55.8947 19.7033 56 19.9685 56ZM20.9685 51H40.9686V54H20.9685V51Z" fill="white"/>
<path d="M56.9229 5.09744C54.9403 3.87378 52.239 3.1988 48.6912 3.03846V3.0389C48.5725 2.1956 48.1533 1.4237 47.5104 0.865181C46.8676 0.306699 46.0448 -0.00044523 45.1935 4.85913e-07H16.7431C15.8918 -0.000445916 15.0691 0.306699 14.4262 0.865181C13.7833 1.42366 13.3641 2.19559 13.2454 3.0389C9.69761 3.19872 6.99622 3.87418 5.0137 5.09788C2.32935 6.75458 0.968201 9.41356 0.968201 13.0002C0.968201 16.8087 2.45929 21.2078 4.95702 24.7671C7.7776 28.7863 11.3329 31.0002 14.9683 31.0002C16.4982 31.0019 18.0179 30.7524 19.4664 30.2613C19.6263 30.4198 19.7897 30.5752 19.9562 30.7283C22.2013 32.7823 24.9768 34.1662 27.9682 34.7234V37.9403C27.9678 38.4863 27.7504 39.01 27.3642 39.3961C26.978 39.7822 26.4544 39.9997 25.9084 40.0001H25.0281C23.9517 40.0014 22.92 40.4296 22.1589 41.1907C21.3977 41.9519 20.9696 42.9837 20.9683 44.0599V45.0001H15.3745C14.4643 44.9956 13.5834 45.3197 12.8928 45.9121C12.2022 46.5046 11.7481 47.326 11.6138 48.226L10.3687 56.3202C10.2272 57.2416 10.4946 58.1787 11.1017 58.8858C11.7084 59.5929 12.5937 60.0001 13.5258 60.0001H48.4106C49.3427 60.0001 50.2284 59.5934 50.8351 58.8858C51.4423 58.1786 51.7101 57.2416 51.5682 56.3202L50.323 48.226V48.2264C50.1887 47.326 49.7346 46.5046 49.0441 45.9121C48.3534 45.3193 47.4722 44.9956 46.5619 45.0001H40.9681V44.0599C40.9668 42.9835 40.5387 41.9519 39.7775 41.1907C39.0163 40.4296 37.9846 40.0015 36.9084 40.0001H36.028C35.482 39.9997 34.9583 39.7822 34.5722 39.3961C34.1861 39.0099 33.9686 38.4863 33.9682 37.9403V34.7234C36.9597 34.1662 39.7356 32.7823 41.9807 30.7283C42.1472 30.5756 42.3106 30.4202 42.4704 30.2613C43.9191 30.7524 45.4388 31.0019 46.9681 31.0001C50.6035 31.0001 54.1588 28.7863 56.9794 24.7671C59.4771 21.2076 60.9682 16.8085 60.9682 13.0002C60.9682 9.41355 59.6071 6.75468 56.9227 5.09753L56.9229 5.09744ZM48.155 9.99346C50.4613 9.97649 52.4434 9.9756 53.322 10.847C53.7568 11.2787 53.9684 11.9832 53.9684 13.0002C53.9684 17.1377 50.5778 24.0002 46.9684 24.0002C46.7827 24.0002 46.5983 23.9904 46.4139 23.9757C46.8389 22.7373 47.1135 21.4525 47.2318 20.1485L48.155 9.99346ZM14.7046 20.1484C14.8229 21.4524 15.0975 22.7372 15.5225 23.9756C15.3381 23.9899 15.1533 24.0001 14.968 24.0001C13.368 24.0001 11.6193 22.5961 10.1715 20.1483C8.8331 17.8844 7.96795 15.0787 7.96795 13.0001C7.96795 11.9831 8.17956 11.2787 8.61438 10.8469C9.49251 9.97549 11.4751 9.97639 13.7814 9.99335L14.7046 20.1484ZM6.59382 23.6184C4.35724 20.4309 2.96787 16.3626 2.96787 13.0001C2.96787 7.83219 6.17542 5.35458 13.3304 5.03618L13.5992 7.99151C10.9304 7.9732 8.63401 8.00981 7.20544 9.42717C6.37284 10.254 5.96795 11.4223 5.96795 13C5.96795 17.5661 9.67916 26 14.968 26C15.4211 26 15.8738 25.9661 16.322 25.8982C16.7944 26.8549 17.3595 27.7625 18.0096 28.6081C17.0167 28.8683 15.9944 29.0001 14.9681 29.0001C12.0463 29.0001 8.99436 27.0384 6.59435 23.6183L6.59382 23.6184ZM48.3448 48.5305L49.5903 56.6247C49.643 56.9689 49.543 57.3189 49.3162 57.5832C49.0894 57.8475 48.7582 57.9997 48.41 57.9997H13.5253C13.177 57.9997 12.8458 57.8475 12.619 57.5832C12.3922 57.3189 12.2922 56.9689 12.3449 56.6247L13.5901 48.5305C13.6539 48.1033 13.8691 47.7136 14.1968 47.4323C14.5244 47.1515 14.9423 46.9975 15.374 46.9997H46.5616C46.9933 46.9975 47.4111 47.151 47.7388 47.4323C48.0665 47.7131 48.2817 48.1028 48.3455 48.5296L48.3448 48.5305ZM36.0271 41.9996H36.9074C37.4534 42.0001 37.9771 42.2175 38.3632 42.6037C38.7493 42.9898 38.9668 43.5135 38.9672 44.0594V44.9996H22.9672V44.0594C22.9676 43.5135 23.185 42.9898 23.5712 42.6037C23.9574 42.2175 24.481 42.0001 25.027 41.9996H25.9073C26.9837 41.9983 28.0153 41.5702 28.7765 40.809C29.5377 40.0478 29.9658 39.0161 29.9671 37.9398V34.9684C30.2993 34.9885 30.6323 34.9997 30.9671 34.9997C31.302 34.9997 31.635 34.9885 31.9671 34.9684V37.9398C31.9685 39.0162 32.3966 40.0479 33.1578 40.809C33.9189 41.5702 34.9507 41.9983 36.0269 41.9996H36.0271ZM40.6306 29.251H40.6311C37.99 31.6627 34.5431 32.9997 30.9672 32.9997C27.3913 32.9997 23.9444 31.6627 21.3037 29.251C18.6627 26.8393 17.0193 23.5278 16.6957 19.9666L15.2144 3.67286C15.1751 3.2434 15.3184 2.8175 15.6091 2.49914C15.8997 2.18083 16.3108 1.99958 16.7421 1.99958H45.1925C45.6237 1.99958 46.0349 2.18083 46.3255 2.49914C46.6162 2.81745 46.7595 3.24334 46.7202 3.67286L45.2389 19.9666C44.9184 23.5287 43.2742 26.8416 40.6314 29.251H40.6306ZM55.3404 23.6175C52.9404 27.0381 49.8886 28.9997 46.9667 28.9997C45.9403 28.9997 44.918 28.868 43.9252 28.6077C44.5752 27.7622 45.1404 26.8541 45.6127 25.8979C46.0609 25.9658 46.5136 25.9997 46.9668 25.9997C49.3262 25.9997 51.6409 24.2831 53.4846 21.1657C54.9922 18.6161 55.9668 15.4108 55.9668 12.9996C55.9668 11.4219 55.5619 10.2537 54.7293 9.42682C53.3007 8.00944 51.0043 7.97275 48.3351 7.9915L48.6039 5.03617C55.7592 5.35402 58.9669 7.83172 58.9669 12.9996C58.9669 16.3622 57.5776 20.4305 55.3406 23.618L55.3404 23.6175Z" fill="white"/>
</svg>
