<svg width="16" height="17" viewBox="0 0 16 17" fill="none" xmlns="http://www.w3.org/2000/svg">
<path d="M3.55556 2.46997C3.25926 2.46997 2.96296 2.61812 2.66667 2.91442C2.51852 3.06256 2.37037 3.28479 2.22222 3.58108C2.07407 3.87738 2 4.28479 2 4.8033C2 5.32182 2.14815 5.91442 2.44444 6.58108C2.74074 7.24775 3.14815 7.95145 3.66667 8.69219C4.18519 9.43293 4.81482 10.1737 5.55556 10.9144C6.2963 11.6552 7.03704 12.2848 7.77778 12.8033C8.51852 13.3218 9.22222 13.7292 9.88889 14.0255C10.5556 14.3218 11.1481 14.47 11.6667 14.47C12.1852 14.47 12.5926 14.3959 12.8889 14.2477C13.1852 14.0996 13.4074 13.9515 13.5556 13.8033L14 13.1366V12.6922L11.3333 10.9144L10.4444 11.5811C10.1481 11.8774 9.77778 12.0255 9.33333 12.0255L8.66667 11.8033C8.37037 11.6552 8 11.4329 7.55556 11.1366L5.33333 8.91441L4.66667 7.8033L4.44444 6.91442C4.44444 6.61812 4.51852 6.32182 4.66667 6.02553L5.55556 5.13664L3.77778 2.46997H3.55556ZM1.33333 1.35886C1.92593 0.766267 2.66667 0.469971 3.55556 0.469971C3.85185 0.469971 4.18519 0.544044 4.55556 0.692193C4.92593 0.840341 5.18519 1.06256 5.33333 1.35886L7.33333 4.46997C7.48148 4.61812 7.55556 4.87738 7.55556 5.24775C7.55556 5.61812 7.48148 5.95145 7.33333 6.24775L6.44444 7.13664L7.77778 8.69219L9.33333 10.0255L10.2222 9.13664C10.5185 8.98849 10.8148 8.91441 11.1111 8.91441C11.4074 8.91441 11.7037 8.98849 12 9.13664L12.6667 9.35886L15.1111 11.1366C15.4074 11.2848 15.6296 11.5811 15.7778 12.0255C15.9259 12.3218 16 12.6552 16 13.0255C16 13.3959 15.9259 13.7663 15.7778 14.1366C15.6296 14.507 15.3704 14.8774 15 15.2477C14.6296 15.6181 14.1481 15.9144 13.5556 16.1366C12.963 16.3589 12.2963 16.47 11.5556 16.47C10.8148 16.47 10 16.2848 9.11111 15.9144C8.22222 15.544 7.33333 15.0626 6.44444 14.47C5.7037 13.7292 4.96296 12.9885 4.22222 12.2477C3.33333 11.507 2.59259 10.6922 2 9.8033C1.40741 9.06256 0.962963 8.24775 0.666667 7.35886C0.222222 6.46997 0 5.65516 0 4.91442C0 4.17367 0.111111 3.50701 0.333333 2.91442C0.555556 2.32182 0.888889 1.8033 1.33333 1.35886Z" fill="white"/>
</svg>
