<svg width="16" height="14" viewBox="0 0 16 14" fill="none" xmlns="http://www.w3.org/2000/svg">
<path d="M0.979909 6.14489C0.979909 6.14489 8.05695 3.33476 10.5119 2.34423C11.4519 1.94939 14.6419 0.683155 14.6419 0.683155C14.6419 0.683155 16.115 0.128811 15.9919 1.47479C15.9519 2.02815 15.625 3.96788 15.297 6.06514C14.8069 9.03383 14.275 12.2781 14.275 12.2781C14.275 12.2781 14.1929 13.1889 13.4979 13.3474C12.8019 13.505 11.6569 12.7931 11.4519 12.6346C11.2889 12.5165 8.38495 10.7353 7.32191 9.86479C7.03491 9.62751 6.70691 9.15199 7.36191 8.59863C8.83495 7.29199 10.5929 5.66931 11.6569 4.64038C12.1469 4.16579 12.6389 3.0571 10.5929 4.40308C7.68891 6.3428 4.82591 8.16239 4.82591 8.16239C4.82591 8.16239 4.17091 8.55823 2.94391 8.20175C1.71691 7.84631 0.285912 7.37271 0.285912 7.37271C0.285912 7.37271 -0.696088 6.779 0.980909 6.14588L0.979909 6.14489Z" fill="white"/>
</svg>
