<svg xmlns="http://www.w3.org/2000/svg" xmlns:xlink="http://www.w3.org/1999/xlink" version="1.1" width="45" height="50" viewBox="0 0 45 50" xml:space="preserve">
<g transform="matrix(0.0813862318 0 0 0.0824406117 22.554884742 30.5342359501)" id="7s689HeR_pAEMBuK8Uee8"  >
	<g>
		<g transform="matrix(1 0 0 1 0.0122046757 -69.9959798872)" id="eI7XORfgVlZgHbIMqbRjB"  >
			<path stroke="none" fill="white" transform=" translate(-350.0122046757, -280.0040201128)" d="M 616.02 230.69 C 607.9028 217.053 591.329 207.663 566.754 202.784 C 547.352 199.3543 528.469 193.4637 510.563 185.249 L 506.80129999999997 183.4248 C 492.30929999999995 176.4365 478.62129999999996 169.8348 471.6993 156.5928 C 467.2852 146.5068 464.6485 135.73780000000002 463.8985 124.75280000000001 C 463.39459 120.9012 462.89070000000004 117.07700000000001 462.2696 113.34280000000001 C 455.5235 72.8588 433.24960000000004 4.322800000000015 359.7896 0.1828000000000145 C 355.4615 -0.055479999999985485 344.5706 -0.055479999999985485 340.2276 0.1828000000000145 C 285.0636 3.2883000000000147 247.4346 46.29980000000001 236.9876 118.19280000000002 C 236.48369 121.65760000000002 236.10088 125.19670000000002 235.71419999999998 128.7478 C 235.32357999999996 138.92780000000002 232.99939999999998 148.93880000000001 228.8704 158.2478 C 213.4834 186.9078 166.86239999999998 196.13080000000002 136.01839999999999 202.23180000000002 L 133.2489 202.77868 C 108.6899 207.65758 92.12389999999999 217.04468 83.99889999999999 230.68068 L 83.99889999999999 230.684586 C 79.11999999999999 238.606486 77.577 248.137586 79.70589999999999 257.196586 C 82.51839999999999 270.149586 94.60789999999999 285.41958600000004 135.94389999999999 285.41958600000004 C 151.34189999999998 285.24380600000006 166.69389999999999 283.64618600000006 181.8029 280.65398600000003 C 198.0369 277.77508600000004 209.5959 279.91960600000004 215.3539 286.989886 C 223.20940000000002 296.64218600000004 219.9242 313.087886 219.9008 313.21988600000003 C 219.803144 313.66910600000006 219.74064 314.12613600000003 219.71721 314.58708600000006 C 217.02581 363.98908600000004 154.10820999999999 438.42708600000003 153.46721 439.17708600000003 C 141.52221 453.216086 119.29120999999999 479.341086 133.31520999999998 512.0170860000001 C 139.70970999999997 526.9150860000001 153.43621 535.119086 171.96021 535.119086 C 179.10861 535.05268 186.21821 534.025286 193.09321 532.064386 C 198.28851 530.474586 203.30421 528.337786 208.05421 525.6932860000001 C 219.59721000000002 519.3924860000001 232.53421 516.0721860000001 245.68721000000002 516.037086 C 262.48421 516.0605240000001 278.66021 522.408186 290.98821000000004 533.8140860000001 C 292.92571000000004 535.5718860000001 294.75381000000004 537.4507860000001 296.56241000000006 539.3179860000001 C 302.37491000000006 546.2320860000001 309.81241000000006 551.5949860000002 318.20741000000004 554.9269860000002 C 328.67241 558.3371860000002 339.61741000000006 560.0480860000001 350.62541000000004 559.9972860000001 C 362.32441000000006 560.1379060000002 373.94141 558.0519860000002 384.85941 553.8488860000001 C 392.03911000000005 550.5090860000001 398.38241000000005 545.6027860000002 403.41841000000005 539.4858860000002 C 405.28171000000003 537.5053860000002 407.04731000000004 535.6264860000001 408.87541000000004 533.9585860000002 C 421.22741 522.4625860000002 437.46941000000004 516.0635860000002 454.34041 516.0365860000002 C 463.84041 516.1459660000002 473.25041000000004 517.8920860000002 482.15641 521.1967860000002 C 493.70341 528.2905860000002 506.51941 533.0757860000002 519.89441 535.2867860000002 C 527.61321 536.6344860000003 535.53941 536.2164760000003 543.07441 534.0562860000002 C 549.4767099999999 532.4351860000003 555.33241 529.1382860000002 560.03541 524.5054860000002 C 564.7385099999999 519.8726860000003 568.12131 514.0674860000003 569.83231 507.6894860000003 C 576.34011 482.9704860000003 558.84831 452.36548600000026 546.55931 439.1774860000003 C 545.92259 438.4313960000003 482.98530999999997 363.9004860000003 480.30530999999996 314.58748600000024 L 480.30921599999994 314.58748600000024 C 480.28968499999996 314.12654600000025 480.22718499999996 313.66560600000025 480.12952599999994 313.2163860000002 C 480.0943689999999 313.0523260000002 476.84432599999997 296.6733860000002 484.62172599999997 287.0483860000002 C 488.723326 281.9741860000002 495.68772599999994 279.4038860000002 505.32872599999996 279.4038860000002 C 509.55922599999997 279.4390420000002 513.777926 279.8374760000002 517.941726 280.5952860000002 C 533.1367260000001 283.6264860000002 548.582726 285.2397860000002 564.074726 285.41948600000023 C 605.406726 285.41948600000023 617.5007260000001 270.1534860000002 620.3127260000001 257.1964860000002 C 622.4494260000001 248.14178600000022 620.9103860000001 238.60648600000022 616.0275260000001 230.6884860000002 z M 603.3009999999999 252.483 C 600.3557 268.151 576.02 267.921 564.0669999999999 267.921 C 549.6959999999999 267.71788 535.3719999999998 266.2101 521.2739999999999 263.4171 C 498.0119999999999 259.3116 481.0279999999999 263.63585 471.00099999999986 276.0501 C 459.0479999999999 290.8551 462.08299999999986 311.8511 462.86039999999986 316.1481 C 466.30569999999983 371.3201 530.4853999999998 447.30809999999997 533.4813999999999 450.81809999999996 C 544.3444 462.4781 557.1333999999999 487.1851 552.9073999999999 503.23609999999996 C 551.8956999999999 506.73609999999996 549.9621 509.89629999999994 547.3018999999999 512.3845 C 544.6456999999999 514.8728 541.3643999999999 516.5954 537.8058 517.3767 C 522.5717999999999 522.197 489.5048 505.2597 488.9618 505.06070000000005 L 488.9618 505.056793 C 477.8918 500.86539300000004 466.1688 498.66229300000003 454.33279999999996 498.545093 C 433.0988 498.545093 412.6448 506.576293 397.08279999999996 521.029093 C 394.7469 523.161893 392.66869999999994 525.372893 390.657 527.513493 C 387.2976 531.732293 383.075 535.181493 378.274 537.638493 C 369.4459 540.9978930000001 360.063 542.646293 350.618 542.5056930000001 C 341.5086 542.5603810000001 332.44599999999997 541.157993 323.774 538.349493 C 318.0631 535.8221930000001 313.036 531.974493 309.098 527.1264930000001 C 307.0199 524.9897930000001 304.9339 522.8530930000001 302.7191 520.8491930000001 C 287.1881 506.50519300000013 266.8211 498.5401930000001 245.68010000000004 498.5441930000001 C 233.84010000000004 498.6613830000001 222.11810000000003 500.8644930000001 211.04710000000003 505.05589300000014 C 207.27370000000002 506.5246930000001 203.59400000000002 508.22389300000015 200.03110000000004 510.14569300000016 C 185.57810000000003 517.5870930000002 157.73010000000005 524.5596930000002 149.39010000000005 505.1222930000002 C 141.23780000000005 486.1382930000002 149.59713000000005 470.7272930000002 166.77310000000006 450.5132930000002 C 172.89420000000007 443.3491930000002 233.79610000000005 369.85329300000024 237.14410000000004 316.1532930000002 C 237.92144000000005 311.86419300000017 240.96050000000002 290.85629300000016 228.99960000000004 276.04829300000017 C 217.28460000000004 261.5402930000002 195.53860000000003 259.64229300000017 178.44860000000006 263.4782930000002 L 178.45250700000005 263.4743870000002 C 164.44050700000005 266.2399870000002 150.21450700000005 267.7282870000002 135.93650700000006 267.9235870000002 C 128.59270700000008 268.15405700000025 121.24850700000006 267.5681170000002 114.03850700000007 266.1774870000002 C 108.23770700000007 265.2360770000002 102.88250700000006 262.4938870000002 98.72950700000007 258.3376870000002 C 94.52640700000006 253.18928700000018 95.94040700000006 244.61468700000017 99.23341700000007 239.2986870000002 C 104.75681700000007 230.4119870000002 117.69841700000008 223.7206870000002 136.64741700000008 219.9586870000002 L 139.39741700000008 219.4118070000002 C 173.47941700000007 212.6657070000002 224.97941700000007 202.48580700000022 244.26741700000008 166.5368070000002 C 251.84941700000007 152.4038070000002 252.0408170000001 136.2088070000002 254.29041700000008 120.71280700000021 C 259.66541700000005 83.7558070000002 278.0994170000001 21.21280700000021 341.1884170000001 17.662807000000214 C 345.08681700000005 17.444057000000214 354.9184170000001 17.451867000000213 358.8134170000001 17.662807000000214 C 420.10241700000006 21.112007000000215 439.12241700000004 80.88980700000022 445.0044170000001 116.22180700000021 C 447.7349170000001 132.6198070000002 448.3169170000001 149.67480700000021 456.1804170000001 164.7098070000002 C 465.8171170000001 183.1358070000002 485.0634170000001 192.2878070000002 502.8994170000001 200.98680700000023 L 502.90332300000006 200.98290000000023 C 522.157323 209.86960000000022 542.473323 216.24490000000023 563.348323 219.9559000000002 C 582.3093230000001 223.72150000000022 595.2503230000001 230.40890000000022 600.766323 239.30390000000023 L 600.7702290000001 239.30390000000023 C 603.184329 243.2453000000002 604.0827290000001 247.9328000000002 603.297529 252.48790000000022 z" stroke-linecap="round" />
		</g>
		<g transform="matrix(1 0 0 1 -43.752 -214.38)" id="-XLtH3AfU-YxdG5Ndx4uH"  >
			<path stroke="none" fill="white" transform=" translate(-306.248, -135.62)" d="M 341.25 135.62 C 341.25 108.636 325.879 87.495 306.246 87.495 C 286.61699999999996 87.495 271.246 108.636 271.246 135.62 C 271.246 162.604 286.61699999999996 183.745 306.246 183.745 C 325.87899999999996 183.745 341.25 162.604 341.25 135.62 z M 306.246 166.245 C 304.8905 166.21375 303.5546 165.89734 302.328 165.31922 C 304.6092 161.39342 304.8592 156.61222 302.99987999999996 152.47122 C 300.49987999999996 145.82672 294.88658 141.80321999999998 290.46487999999994 143.46341999999999 C 290.11331999999993 143.61576 289.78128999999996 143.79935999999998 289.46878999999996 144.01810999999998 C 288.98831999999993 141.24470999999997 288.74612999999994 138.43610999999999 288.74612999999994 135.61970999999997 C 288.74612999999994 117.57270999999997 297.9688299999999 104.99470999999997 306.24612999999994 104.99470999999997 C 314.52342999999996 104.99470999999997 323.74612999999994 117.57270999999997 323.74612999999994 135.61970999999997 C 323.74612999999994 153.66670999999997 314.52342999999996 166.24470999999997 306.24612999999994 166.24470999999997 z" stroke-linecap="round" />
		</g>
		<g transform="matrix(1 0 0 1 0.004 -126.875)" id="Vk2Ts9RXtgqvwX5n02zBG"  >
			<path stroke="none" fill="white" transform=" translate(-350.004, -223.125)" d="M 350 192.5 C 335.531 192.5 323.754 206.238 323.754 223.125 C 323.754 240.004 335.531 253.75 350 253.75 C 364.473 253.75 376.254 240.004 376.254 223.125 C 376.254 206.238 364.473 192.5 350 192.5 z M 350 236.25 C 345.3398 236.25 341.2578 230.1094 341.2578 223.125 C 341.2578 216.1367 345.3359 210 350 210 C 354.6641 210 358.7539 216.1367 358.7539 223.125 C 358.7539 230.1094 354.66409999999996 236.25 350 236.25 z" stroke-linecap="round" />
		</g>
		<g transform="matrix(1 0 0 1 -142.1906553165 100.6291896246)" id="s4wKfrOe2S_tufLKMQJ_7"  >
			<path stroke="none" fill="white" transform=" translate(-207.8093446835, -450.6291896246)" d="M 228.01 417.11 C 223.9983 414.4186 218.5647 415.485 215.869 419.4928 C 212.4823 424.5358 202.053 436.7348 202.053 436.7348 C 192.9632 446.6567 179.213 461.6368 185.198 479.6298 L 185.198 479.633707 C 185.92456 481.836807 187.5027 483.66100700000004 189.5769 484.704007 C 191.655 485.747007 194.0574 485.918807 196.2644 485.188387 C 198.4675 484.454007 200.2878 482.875887 201.3269 480.79778699999997 C 202.36599999999999 478.71968699999996 202.5378 476.313387 201.79955999999999 474.11028699999997 C 199.06516 465.887587 207.86986 456.282287 214.95155999999997 448.571287 C 214.95155999999997 448.571287 226.54955999999999 434.97328699999997 230.39655999999997 429.251287 L 230.39265399999996 429.251287 C 231.68955399999996 427.325487 232.16605399999997 424.962187 231.71685399999996 422.684887 C 231.27154399999995 420.407587 229.93565399999994 418.403687 228.00985399999996 417.110687 z" stroke-linecap="round" />
		</g>
		<g transform="matrix(1 0 0 1 142.1861265378 100.6246898548)" id="QyrEqPv6xZg8k6Gli1nKM"  >
			<path stroke="none" fill="white" transform=" translate(-492.1861265378, -450.6246898548)" d="M 485.05 448.57 C 492.12420000000003 456.2809 500.937 465.88599999999997 498.202 474.109 C 497.46372 476.3121 497.63169 478.7184 498.67075 480.7965 C 499.70595 482.8785 501.53015 484.45669999999996 503.73325 485.191 C 505.94025 485.92537999999996 508.34265 485.74958999999996 510.42075 484.70662999999996 C 512.49495 483.66362999999996 514.07305 481.83552999999995 514.79965 479.63242999999994 C 520.7840500000001 461.6404299999999 507.04185000000007 446.65542999999997 497.94465 436.73742999999996 C 497.94465 436.73742999999996 487.51865000000004 424.53443 484.12865000000005 419.49542999999994 L 484.12865000000005 419.49152399999997 C 482.83565000000004 417.56182399999994 480.83175000000006 416.22592399999996 478.55055000000004 415.77672399999994 C 476.27325 415.3275039999999 473.90995000000004 415.80016199999994 471.98025000000007 417.0970239999999 C 470.0544500000001 418.3939239999999 468.71855000000005 420.40172399999994 468.2732500000001 422.6829239999999 C 467.82794000000007 424.9602239999999 468.30840600000005 427.3235239999999 469.60915000000006 429.2493239999999 C 473.4489500000001 434.97202399999986 485.05015000000003 448.5693239999999 485.05015000000003 448.5693239999999 z" stroke-linecap="round" />
		</g>
		<g transform="matrix(1 0 0 1 -0.0069921696 150.1130246372)" id="IxpgqyQlnG6GUsbaEl9b3"  >
			<path stroke="none" fill="white" transform=" translate(-349.9930078304, -500.1130246372)" d="M 362.36 490.06 C 358.8327 492.7475 354.5436 494.2475 350.11 494.353 C 345.6764 494.45456 341.32480000000004 493.1499 337.672 490.63030000000003 C 333.7853 487.78260000000006 328.32430000000005 488.6147 325.461 492.4897 C 322.59770000000003 496.3686 323.4063 501.8335 327.2735 504.71270000000004 C 333.9141 509.3416 341.8165 511.82210000000003 349.9105 511.82210000000003 C 358.1058 511.79866200000004 366.0745 509.13460000000003 372.6375 504.22830000000005 C 376.5398 501.3885 377.4031 495.9236 374.5711 492.01730000000003 C 371.7352 488.1111 366.2742 487.2361 362.3601 490.06030000000004 z" stroke-linecap="round" />
		</g>
		<g transform="matrix(1 0 0 1 43.75 -214.379)" id="v831YL-0ayq89_uJ2xEWd"  >
			<path stroke="none" fill="white" transform=" translate(-393.75, -135.621)" d="M 393.75 87.496 C 374.121 87.496 358.75 108.637 358.75 135.62099999999998 C 358.75 162.60499999999996 374.121 183.74599999999998 393.75 183.74599999999998 C 413.379 183.74599999999998 428.75 162.605 428.75 135.62099999999998 C 428.75 108.63699999999997 413.379 87.49599999999998 393.75 87.49599999999998 z M 376.25 135.62099999999998 C 376.25 117.57399999999998 385.4688 104.99599999999998 393.75 104.99599999999998 C 402.0195 104.99599999999998 411.25 117.57399999999998 411.25 135.62099999999998 C 411.246094 138.43739999999997 411.00391 141.24599999999998 410.52344 144.0194 C 410.21485 143.80065 409.87891 143.61705999999998 409.53125 143.46471 C 405.10545 141.80451 399.49625 145.82801 396.99625 152.47251 C 395.13295 156.60921 395.38295 161.39441 397.66422 165.32051 C 396.43762 165.90254000000002 395.10562 166.21504000000002 393.75012 166.24629000000002 C 385.46891999999997 166.24629000000002 376.25012 153.66829 376.25012 135.62129000000002 z" stroke-linecap="round" />
		</g>
	</g>
</g>
</svg>