<svg width="18" height="18" viewBox="0 0 18 18" fill="none" xmlns="http://www.w3.org/2000/svg">
<path d="M1.05333 2.02563C0.682964 2.58119 0.451483 3.13675 0.35889 3.6923C0.266298 4.24786 0.220001 5.26637 0.220001 6.74786V10.9145C0.405186 11.6553 0.729261 12.2571 1.19222 12.7201C1.65519 13.183 2.16445 13.4608 2.72 13.5534C3.27556 13.646 4.29408 13.7849 5.77556 13.9701H12.4422C13.9237 13.7849 14.9422 13.646 15.4978 13.5534C16.0533 13.4608 16.5626 13.183 17.0256 12.7201C17.4885 12.2571 17.8126 11.6553 17.9978 10.9145V6.74786C17.9978 5.26637 17.9515 4.24786 17.8589 3.6923C17.7663 3.13675 17.4885 2.62749 17.0256 2.16452C16.5626 1.70156 16.0533 1.42378 15.4978 1.33119C14.9422 1.2386 13.9237 1.09971 12.4422 0.914522H5.77556C4.29408 1.09971 3.27556 1.2386 2.72 1.33119C2.16445 1.42378 1.60889 1.65526 1.05333 2.02563ZM4.66445 15.9145C4.47926 15.9145 4.34037 15.9608 4.24778 16.0534C4.15519 16.146 4.10889 16.2849 4.10889 16.4701C4.10889 16.6553 4.20148 16.7479 4.38667 16.7479L4.66445 17.0256H13.5533L13.8311 16.7479C14.0163 16.7479 14.1089 16.6553 14.1089 16.4701C14.1089 16.2849 14.0163 16.1923 13.8311 16.1923L13.5533 15.9145H4.66445Z" fill="white"/>
</svg>
