<svg width="16" height="13" viewBox="0 0 16 13" fill="none" xmlns="http://www.w3.org/2000/svg">
<path d="M14.4 2.08834C14.1376 2.16194 13.8672 2.20754 13.6008 2.26514L13.5872 2.22594C14.17 1.84322 14.6031 1.27139 14.8136 0.606738C14.764 0.630738 14.7392 0.640338 14.7168 0.653138C14.1933 0.951816 13.6285 1.17152 13.0408 1.30514C12.9544 1.32434 12.9072 1.29714 12.8488 1.24514C12.704 1.11714 12.5616 0.981138 12.4024 0.874738C11.3032 0.138738 9.87919 0.209138 8.87519 1.07234C8.12639 1.71634 7.76639 2.55234 7.81359 3.55954C7.82159 3.73074 7.84719 3.90194 7.86639 4.09394C5.39039 3.92194 3.36559 2.86034 1.75679 0.933938C1.3816 1.59479 1.26608 2.37172 1.43279 3.11314C1.59679 3.87954 2.01359 4.48274 2.62719 4.96194C2.4033 4.9452 2.18135 4.90852 1.96399 4.85234C1.75279 4.79234 1.55039 4.69874 1.33519 4.61634C1.33679 5.33314 1.55119 5.96514 1.98319 6.52034C2.41519 7.07554 2.97919 7.42194 3.65119 7.61074C3.44349 7.65548 3.23279 7.68489 3.02079 7.69874C2.81279 7.71154 2.60399 7.70194 2.38079 7.70194C2.86639 8.95794 3.76959 9.64674 5.12799 9.76994C3.83199 10.7723 2.39359 11.1699 0.799988 11.0315C0.953588 11.1363 1.09919 11.2419 1.25919 11.3171C1.68799 11.5187 2.11519 11.7267 2.55599 11.8971C3.23359 12.1579 3.93999 12.2971 4.66239 12.3459C5.62959 12.4123 6.58479 12.3427 7.52639 12.0939C8.17637 11.9244 8.80258 11.6742 9.39039 11.3491C9.80719 11.1171 10.1984 10.8483 10.5696 10.5459C11.023 10.1841 11.4304 9.76788 11.7824 9.30674C12.0848 8.90194 12.3656 8.47794 12.6224 8.04194C12.9896 7.41954 13.2464 6.74434 13.4368 6.04594C13.668 5.20114 13.7728 4.33714 13.7464 3.45794C13.7448 3.40354 13.7856 3.33314 13.8272 3.29394C14.024 3.11234 14.2328 2.94594 14.4272 2.76114C14.72 2.47735 14.9793 2.16088 15.2 1.81794C14.9232 1.91234 14.6648 2.01474 14.4 2.08914V2.08834Z" fill="white"/>
</svg>
