<svg width="40" height="37" viewBox="0 0 40 37" fill="none" xmlns="http://www.w3.org/2000/svg">
<path d="M6.25156 23.3992C4.18793 23.3992 2.50073 25.4238 2.50073 27.9002C2.50073 30.3766 4.18793 32.4012 6.25156 32.4012L33.7485 32.4016C35.8121 32.4016 37.4993 30.3769 37.4993 27.9005C37.4993 25.4242 35.8121 23.3995 33.7485 23.3995L6.25156 23.3992ZM6.25156 24.8995H33.7485C35.1366 24.8995 36.2491 26.2344 36.2491 27.9002C36.2491 29.566 35.1366 30.9009 33.7485 30.9009L6.25156 30.9012C4.86343 30.9012 3.75101 29.5663 3.75101 27.9005C3.75101 26.2348 4.86343 24.8998 6.25156 24.8998V24.8995Z" fill="white"/>
<path d="M7.50228 25.6475C6.47408 25.6475 5.62451 26.667 5.62451 27.9008C5.62451 29.1346 6.47415 30.1485 7.50228 30.1485C8.53049 30.1485 9.37534 29.1343 9.37534 27.9008C9.37534 26.6669 8.53021 25.6475 7.50228 25.6475ZM7.50228 27.1478C7.85496 27.1478 8.12505 27.4776 8.12505 27.9008C8.12505 28.324 7.85468 28.6481 7.50228 28.6481C7.14961 28.6481 6.87477 28.3237 6.87477 27.9008C6.87477 27.4776 7.14961 27.1478 7.50228 27.1478Z" fill="white"/>
<path d="M20 25.6475C18.9718 25.6475 18.127 26.667 18.127 27.9008C18.127 29.1346 18.9721 30.1485 20 30.1485C21.0282 30.1485 21.8731 29.1343 21.8731 27.9008C21.8731 26.6669 21.0279 25.6475 20 25.6475ZM20 27.1478C20.3527 27.1478 20.6228 27.4776 20.6228 27.9008C20.6228 28.324 20.3524 28.6481 20 28.6481C19.6473 28.6481 19.3725 28.3237 19.3725 27.9008C19.3725 27.4776 19.6473 27.1478 20 27.1478Z" fill="white"/>
<path d="M13.7485 25.6475C12.7203 25.6475 11.8755 26.667 11.8755 27.9008C11.8755 29.1346 12.7206 30.1485 13.7485 30.1485C14.7768 30.1485 15.6263 29.1343 15.6263 27.9008C15.6263 26.6669 14.7767 25.6475 13.7485 25.6475ZM13.7485 27.1478C14.1012 27.1478 14.3761 27.4776 14.3761 27.9008C14.3761 28.324 14.1012 28.6481 13.7485 28.6481C13.3959 28.6481 13.1258 28.3237 13.1258 27.9008C13.1258 27.4776 13.3961 27.1478 13.7485 27.1478Z" fill="white"/>
<path d="M32.4985 25.6475C33.5268 25.6475 34.3763 26.667 34.3763 27.9008C34.3763 29.1346 33.5267 30.1485 32.4985 30.1485C31.4704 30.1485 30.6255 29.1343 30.6255 27.9008C30.6255 26.6669 31.4706 25.6475 32.4985 25.6475ZM32.4985 27.1478C32.1459 27.1478 31.8758 27.4776 31.8758 27.9008C31.8758 28.324 32.1461 28.6481 32.4985 28.6481C32.8512 28.6481 33.1261 28.3237 33.1261 27.9008C33.1261 27.4776 32.8512 27.1478 32.4985 27.1478Z" fill="white"/>
<path d="M26.252 25.6475C27.2802 25.6475 28.1251 26.667 28.1251 27.9008C28.1251 29.1346 27.28 30.1485 26.252 30.1485C25.2238 30.1485 24.3743 29.1343 24.3743 27.9008C24.3743 26.6669 25.2239 25.6475 26.252 25.6475ZM26.252 27.1478C25.8994 27.1478 25.6245 27.4776 25.6245 27.9008C25.6245 28.324 25.8994 28.6481 26.252 28.6481C26.6047 28.6481 26.8748 28.3237 26.8748 27.9008C26.8748 27.4776 26.6044 27.1478 26.252 27.1478Z" fill="white"/>
<path d="M6.87438 19.6517C3.08476 19.6517 0 23.3535 0 27.9007C0 32.4483 3.08484 36.15 6.87438 36.15H33.1256C36.9152 36.15 40 32.4482 40 27.9007C40 23.3532 36.9152 19.6514 33.1256 19.6514L6.87438 19.6517ZM6.87438 21.1521H33.1256C36.2397 21.1521 38.7497 24.1641 38.7497 27.901C38.7497 31.638 36.2397 34.65 33.1256 34.65L6.87438 34.6497C3.76026 34.6497 1.25028 31.6376 1.25028 27.9007C1.25028 24.1638 3.76033 21.1517 6.87438 21.1517V21.1521Z" fill="white"/>
<path d="M10.1458 10.1511C8.71976 9.97098 7.39584 11.104 7.07327 12.7808L5.64307 20.2329L6.86099 20.5704L8.29119 13.1186C8.47395 12.1684 9.20861 11.5382 10.0166 11.6404L29.855 14.1485C30.8045 14.2684 31.6017 15.0382 31.9036 16.125L33.1586 20.6371L34.3444 20.161L33.0894 15.6543C32.6335 14.013 31.4184 12.8401 29.9845 12.659L10.1458 10.1511Z" fill="white"/>
<path d="M14.33 4.02168C12.9946 3.93262 11.7921 5.02377 11.5019 6.5908L10.6392 11.2357L11.8618 11.5622L12.7198 6.91725C12.8791 6.0571 13.5231 5.46782 14.2561 5.51668L21.9239 6.02594C22.7394 6.08018 23.4331 6.74246 23.6677 7.68125L25.0243 13.1124L26.2238 12.6808L24.8627 7.24932C24.4782 5.71049 23.3301 4.62029 21.993 4.53089L14.33 4.02168Z" fill="white"/>
<path d="M36.8543 0.185316L24.0422 6.87335L24.5406 8.24649L37.3526 1.55846C37.6757 1.3897 38.0379 1.55812 38.1785 1.94584C38.3191 2.33423 38.1746 2.76783 37.8509 2.93687L24.7667 9.76325L25.265 11.1417L38.3492 4.30967C39.2923 3.81782 39.7326 2.47984 39.3224 1.34782C38.9123 0.216473 37.7971 -0.307284 36.8543 0.185316Z" fill="white"/>
</svg>
