<svg width="50" height="50" viewBox="0 0 50 50" fill="none" xmlns="http://www.w3.org/2000/svg">
<g clip-path="url(#clip0_8_2)">
<path d="M47.9567 13.7101C47.552 13.7101 47.1599 13.8285 46.8229 14.0535L45.651 14.8352C43.696 16.1378 41.4372 16.8506 39.096 16.9223L36.903 4.25481C36.4739 1.7897 34.3465 0 31.8442 0C30.9154 0 30.0016 0.252382 29.2031 0.731578L27.5811 1.70403C26.023 2.63935 23.9769 2.63935 22.4198 1.70403L20.7978 0.731578C19.9996 0.252382 19.0859 0 18.1567 0C15.6541 0 13.5274 1.7897 13.0986 4.25481L10.8953 16.9214C8.55801 16.8479 6.3024 16.1358 4.35066 14.8342L3.17876 14.0526C2.84141 13.8283 2.44934 13.7099 2.04427 13.7099C0.917709 13.7099 0 14.6276 0 15.7541V16.0533C0 16.1397 0.00396022 16.216 0.0154812 16.3082C0.170295 17.4996 1.4732 25.1149 9.67738 29.6586V34.6782C9.67738 37.2113 10.3071 39.6797 11.4984 41.8993C11.2993 41.8712 11.1017 41.8298 10.9098 41.7661L7.27921 40.5549L8.81868 43.6338C9.50489 45.0063 10.6397 46.1411 12.0121 46.8272C12.9993 47.3208 14.1032 47.5815 15.2049 47.5815C15.6848 47.5815 16.1596 47.5516 16.6316 47.5001C19.1258 49.1325 22.0097 50.0009 25.0001 50.0009C27.9905 50.0009 30.8743 49.1325 33.3686 47.5001C33.8406 47.5516 34.3155 47.5815 34.7954 47.5815C35.8971 47.5815 37.0009 47.3208 37.9888 46.8276C39.3612 46.1414 40.496 45.0066 41.1822 43.6342L42.7217 40.5553L39.0918 41.7657C38.8992 41.8301 38.7016 41.8712 38.5025 41.8996C39.6931 39.6797 40.3228 37.2113 40.3228 34.6781V29.6586C48.5271 25.1143 49.8308 17.4981 49.9856 16.3017C49.996 16.2171 50 16.1404 50 16.0533V15.7541C50 14.6276 49.0823 13.7099 47.9557 13.7099L47.9567 13.7101ZM37.8763 19.265C37.1519 19.881 32.7988 20.9682 25.0006 20.9682C17.2023 20.9682 12.8492 19.8809 12.1248 19.265L12.357 17.9271C15.0223 18.9085 20.3597 19.3553 25.0005 19.3553C29.6413 19.3553 34.9795 18.9085 37.6431 17.9271L37.8763 19.265ZM14.687 4.53112C14.9805 2.84003 16.4403 1.61347 18.1563 1.61347C18.7943 1.61347 19.42 1.787 19.9676 2.11499L21.5895 3.08745C23.6486 4.32378 26.3524 4.32378 28.4114 3.08745L30.0333 2.11499C30.5802 1.787 31.206 1.61347 31.844 1.61347C33.5602 1.61347 35.0198 2.84012 35.3132 4.53112L37.3618 16.3092C35.6513 17.0544 31.1449 17.7432 25.0004 17.7432C18.8559 17.7432 14.3495 17.0545 12.6389 16.3092L14.687 4.53112ZM3.45553 16.1774C5.59593 17.6041 8.05957 18.403 10.6161 18.5251L10.4951 19.2186L10.484 19.3557C10.484 22.4267 22.5763 22.5816 25.0003 22.5816C27.4243 22.5816 39.5167 22.4268 39.5167 19.3557L39.373 18.5251C41.9342 18.4056 44.4012 17.6056 46.5447 16.1774L47.3343 15.6507C45.2666 20.5323 39.7369 27.4204 25.0003 27.4204C10.2628 27.4204 4.73456 20.5324 2.66725 15.6516L3.45553 16.1774ZM12.7331 45.3852C11.8103 44.9247 11.0284 44.2029 10.4905 43.3254C10.9672 43.4738 11.4615 43.5497 11.9616 43.5497C13.8456 43.5497 15.5391 42.5028 16.3801 40.8182L17.1679 39.243C17.8293 37.9196 19.1599 37.098 20.6397 37.098C21.6758 37.098 22.65 37.5012 23.3831 38.2342L24.8251 39.6762L24.2775 40.7707C23.3227 42.6796 21.717 44.1942 19.7566 45.0345C18.3093 45.6545 16.7785 45.9692 15.2051 45.9692C14.3525 45.9692 13.4971 45.7675 12.7331 45.3852ZM25.0006 48.3885C22.9084 48.3885 20.8732 47.9158 19.0183 47.0129C19.4821 46.8717 19.9419 46.7104 20.3926 46.5178C22.265 45.7153 23.8643 44.3911 25.0017 42.7202C26.1386 44.3911 27.7379 45.7153 29.6108 46.5178C30.0615 46.7104 30.5206 46.8728 30.985 47.0129C29.128 47.9158 27.0928 48.3885 25.0006 48.3885ZM39.5104 43.3265C38.9726 44.2032 38.1895 44.9251 37.2678 45.3863C36.5038 45.7676 35.6485 45.9692 34.7959 45.9692C33.2233 45.9692 31.6917 45.6545 30.244 45.0352C28.2826 44.1949 26.6769 42.6803 25.7231 40.7714L25.1748 39.678L26.6174 38.2354C27.3504 37.5013 28.3246 37.0981 29.3612 37.0981C30.841 37.0981 32.1709 37.9207 32.833 39.2431L33.6207 40.8182C34.4621 42.5028 36.1557 43.5498 38.0393 43.5498C38.5394 43.5498 39.033 43.4738 39.5104 43.3265ZM38.7105 34.6787C38.7105 37.1545 38.0361 39.561 36.7702 41.6826C36.0419 41.3834 35.4317 40.8326 35.0637 40.0971L34.2759 38.5219C33.3395 36.6487 31.4562 35.4851 29.3612 35.4851C27.8941 35.4851 26.5144 36.0568 25.4772 37.0941L25.0005 37.5708L24.5238 37.0941C23.4869 36.0568 22.1069 35.4851 20.6398 35.4851C18.5445 35.4851 16.6615 36.6487 15.7251 38.5223L14.9373 40.0974C14.5697 40.833 13.9592 41.3838 13.2308 41.683C11.9649 39.561 11.2906 37.1545 11.2906 34.6787V30.4656C14.7227 32.0245 19.1827 33.0657 25.0004 33.0657C30.8181 33.0657 35.278 32.0245 38.7103 30.4656L38.7105 34.6787ZM25.0006 31.4528C8.23628 31.4528 3.43805 22.5003 2.09978 18.1807C7.50954 27.9007 19.6595 29.0334 25.0006 29.0334C30.3474 29.0334 42.5188 27.8979 47.9207 18.1466C46.6077 22.4184 41.8398 31.4537 25.0006 31.4537V31.4528Z" fill="white"/>
<path d="M22.17 15.6907L25.0006 14.6319L27.8311 15.6907L27.7498 12.547L29.5442 10.0937L26.7136 9.21564L25.0006 6.5885L23.2876 9.21601L20.457 10.0941L22.2514 12.5473L22.17 15.6907ZM24.3208 10.5844L25.0006 9.54148L25.6803 10.5841L26.9087 10.9646L26.1224 12.0379L26.1563 13.3419L25.0006 12.9102L23.8442 13.3426L23.878 12.0386L23.0917 10.9653L24.3208 10.5844Z" fill="white"/>
</g>
<defs>
<clipPath id="clip0_8_2">
<rect width="50" height="50" fill="white"/>
</clipPath>
</defs>
</svg>
