<svg width="61" height="60" viewBox="0 0 61 60" fill="none" xmlns="http://www.w3.org/2000/svg">
<path fill-rule="evenodd" clip-rule="evenodd" d="M45.66 7.35546C46.5564 5.68381 47.1978 3.95267 48.2866 2.56641C50.8249 -0.669969 55.1756 -0.831863 58.1515 2.00392C62.2724 5.93154 61.857 13.829 57.3274 17.2882C56.7636 17.7189 56.0978 18.0194 55.547 18.3417C56.1701 20.4726 56.9188 22.5727 57.3837 24.7331C58.0997 28.0493 58.0312 31.4099 57.405 34.7434C57.2392 35.6289 57.3046 36.3503 57.7824 37.1809C60.1168 41.238 59.378 46.8576 56.3193 50.408C52.1169 55.2866 46.513 57.578 40.4518 59.0155C35.2679 60.2436 29.9767 60.1457 24.7274 59.6736C19.37 59.1909 14.3725 57.3506 9.81027 54.5826C7.31153 53.066 5.12323 51.0134 3.73538 48.3779C1.71371 44.5384 1.71143 40.6476 3.83201 36.7983C4.03212 36.4361 4.20332 35.9482 4.13256 35.5657C3.05287 29.7714 3.46679 24.1442 5.92292 18.7219C5.95031 18.6624 5.92672 18.5804 5.92672 18.5111C-0.722636 16.2242 -1.47895 7.15667 2.17405 2.75541C5.4428 -1.18276 10.839 -0.836381 13.4762 3.5709C14.2188 4.81033 14.6305 6.24328 15.2384 7.69732C19.7854 4.66952 24.8453 2.97001 30.4759 2.93989C36.1049 2.90902 41.2287 4.43158 45.66 7.35546ZM29.1945 57.6729C37.6441 57.6744 44.0949 56.1571 49.1213 53.3304C51.4412 52.0262 53.5101 50.4178 55.0159 48.213C57.3898 44.7379 57.5542 41.1567 55.2806 37.5754C54.7922 36.8066 54.6773 36.1523 54.8903 35.2682C58.4406 20.5374 47.388 5.99329 32.1118 5.25836C15.3419 4.4504 2.7721 19.3951 6.57347 35.5777C6.69826 36.1139 6.54912 36.8518 6.25162 37.3247C3.93169 41.0068 3.99028 44.8463 6.53315 48.3719C8.26111 50.7672 10.5818 52.4667 13.1947 53.801C18.6875 56.6059 24.5897 57.6089 29.1945 57.6729ZM6.62597 16.7084C8.44296 14.524 9.96473 12.2597 11.9286 10.4729C13.4336 9.10467 13.3682 7.85168 12.7983 6.30051C12.5776 5.70188 12.29 5.1153 11.9552 4.57163C9.70299 0.922616 5.36595 0.894756 3.15711 4.56787C1.28457 7.68301 1.30055 10.893 3.13885 14.0308C3.96517 15.4449 5.17193 16.4562 6.62597 16.7084ZM54.5061 16.8078C55.2213 16.3763 55.9228 16.0699 56.4821 15.5977C59.8178 12.777 60.1069 6.85999 57.1007 3.61006C54.8728 1.19972 51.9693 1.208 49.7429 3.63265C48.5719 4.90897 47.9739 6.44283 47.7753 8.12728C47.738 8.44354 47.8803 8.91642 48.1131 9.10768C50.6765 11.1995 52.7218 13.71 54.5061 16.8078Z" fill="white"/>
<path fill-rule="evenodd" clip-rule="evenodd" d="M30.628 34.5303C33.0446 34.5454 34.838 35.9429 34.8289 37.8073C34.8205 39.8005 32.5728 42.0151 30.5809 41.9925C28.566 41.9699 26.3602 39.7493 26.38 37.7614C26.3968 35.9121 28.2328 34.5153 30.628 34.5303Z" fill="white"/>
<path fill-rule="evenodd" clip-rule="evenodd" d="M15.2833 32.8865C15.7863 31.7728 16.0914 30.6561 16.7328 29.7819C17.6801 28.495 19.2985 28.556 20.3957 29.7239C21.903 31.3301 21.9182 34.4655 20.4254 36.0973C19.3099 37.3164 17.6443 37.3653 16.6856 36.0205C16.0571 35.138 15.771 34.0145 15.2833 32.8865Z" fill="white"/>
<path fill-rule="evenodd" clip-rule="evenodd" d="M46.1714 33.0078C45.6395 34.1425 45.3184 35.2539 44.664 36.1191C43.7312 37.3518 42.1577 37.2833 41.078 36.1673C39.5228 34.5619 39.5121 31.3346 41.0575 29.7096C42.16 28.5485 43.7852 28.4973 44.7188 29.7977C45.3701 30.7074 45.6715 31.8632 46.1714 33.0078Z" fill="white"/>
<path fill-rule="evenodd" clip-rule="evenodd" d="M14.6814 22.3408C14.95 20.0675 17.2707 17.5503 19.3449 17.1391C19.5762 17.0932 19.8547 17.289 20.1126 17.3733C19.9483 17.5849 19.8281 17.9125 19.6143 17.99C17.4777 18.7581 16.1317 20.1948 15.6014 22.3965C15.5534 22.5953 15.2087 22.7241 15.0018 22.8852C14.8641 22.6511 14.7263 22.4169 14.6814 22.3408Z" fill="white"/>
<path fill-rule="evenodd" clip-rule="evenodd" d="M47.439 22.4884C47.3697 22.5607 47.21 22.8619 47.0449 22.8649C46.8698 22.8672 46.5739 22.6134 46.529 22.4259C46.0047 20.1714 44.6154 18.7249 42.4331 17.9599C42.2452 17.8944 42.1425 17.5909 42.0002 17.3982C42.2163 17.292 42.4415 17.0789 42.6477 17.097C44.6123 17.2649 47.5128 20.438 47.439 22.4884Z" fill="white"/>
</svg>
